<?xml version="1.0" encoding="utf-8"?>
<!-- Generator: Adobe Illustrator 23.1.0, SVG Export Plug-In . SVG Version: 6.00 Build 0)  -->
<!DOCTYPE svg PUBLIC "-//W3C//DTD SVG 1.1//EN" "http://www.w3.org/Graphics/SVG/1.1/DTD/svg11.dtd" [
	<!ENTITY ns_extend "http://ns.adobe.com/Extensibility/1.0/">
	<!ENTITY ns_ai "http://ns.adobe.com/AdobeIllustrator/10.0/">
	<!ENTITY ns_graphs "http://ns.adobe.com/Graphs/1.0/">
	<!ENTITY ns_vars "http://ns.adobe.com/Variables/1.0/">
	<!ENTITY ns_imrep "http://ns.adobe.com/ImageReplacement/1.0/">
	<!ENTITY ns_sfw "http://ns.adobe.com/SaveForWeb/1.0/">
	<!ENTITY ns_custom "http://ns.adobe.com/GenericCustomNamespace/1.0/">
	<!ENTITY ns_adobe_xpath "http://ns.adobe.com/XPath/1.0/">
]>
<svg version="1.1" id="Слой_1" xmlns:x="&ns_extend;" xmlns:i="&ns_ai;" xmlns:graph="&ns_graphs;"
	 xmlns="http://www.w3.org/2000/svg" xmlns:xlink="http://www.w3.org/1999/xlink" x="0px" y="0px" viewBox="0 0 900.2 310.5"
	 style="enable-background:new 0 0 900.2 310.5;" xml:space="preserve">
<style type="text/css">
	.st0{fill:url(#SVGID_1_);}
	.st1{fill:url(#SVGID_2_);}
</style>
<metadata>
	<sfw  xmlns="&ns_sfw;">
		<slices></slices>
		<sliceSourceBounds  bottomLeftOrigin="true" height="311.6" width="911.5" x="-2.4" y="0"></sliceSourceBounds>
	</sfw>
</metadata>
<title>bg-works2</title>
<g id="Слой_1-2-2_1_">
	<linearGradient id="SVGID_1_" gradientUnits="userSpaceOnUse" x1="453.3417" y1="-1.11" x2="453.3417" y2="115.7537">
		<stop  offset="0" style="stop-color:#E2D0EC"/>
		<stop  offset="1" style="stop-color:#DAD5EE;stop-opacity:0.99"/>
	</linearGradient>
	<path class="st0" d="M909.1,115.8c-0.1-5.1-0.1-10.2-0.2-15.3c-6.3-9.4-16.5-21.1-31.3-24.3c-21.5-4.5-34.5,14-53.2,7
		c-14.3-5.3-11.5-17.9-26.5-22.6c-10.1-3.2-21.7,0.3-44.9,7.5c-10.1,3.1-17.6,6-29.3,5.7c-29.8-0.8-32.9-20.8-58.4-23.5
		c-22.7-2.4-30.9,10.9-47.5,3.1c-11.3-5.3-8.5-11.9-21.9-19.8c-8.1-4.8-20.5-6.4-44.9-9.4c-21-2.6-21-1.6-28.2-3.6
		C504,15.1,505.1,8.5,490,5.9c-16.2-2.8-36,2-36,2s-15.8,4.1-47,11c-22.9,5.1-34.6,6.2-48,5c-5.4-0.5-10.8-1.5-15.9-3.2
		C331,16.8,326.5,13.2,318,10c-12.8-4.8-24.2-4-30.9-3.6c-20.4,1.4-26.4,10.6-43.3,16.2c-31.4,10.4-38.7-10.1-90.3-7.3
		c-35.5,1.9-44.1,13-66.8,5.2c-10.3-3.5-19.2-9.4-34.4-8.9c-9.6,0.3-13,2-18.4,2.2c0,0-3.2,0.1-7.7-0.6C13.8,11.2-0.4,0-1.8-1.1
		C-2-0.1-2.2,1-2.4,2c0.2,9,0.3,18.1,0.5,27.1"/>
</g>
<g id="Слой_1-2-2">
	
		<linearGradient id="SVGID_2_" gradientUnits="userSpaceOnUse" x1="452.9783" y1="581.9448" x2="452.9783" y2="968.1792" gradientTransform="matrix(1 0 0 1 0 -585.96)">
		<stop  offset="0" style="stop-color:#BBEBF5"/>
		<stop  offset="0.19" style="stop-color:#C5E4F3"/>
		<stop  offset="0.68" style="stop-color:#DAD5EE;stop-opacity:0.99"/>
		<stop  offset="1" style="stop-color:#E2D0EC"/>
	</linearGradient>
	<path class="st1" d="M614.1,56c-11.3-5.3-8.5-11.9-21.9-19.8c-8.1-4.8-20.5-6.4-44.9-9.4c-21-2.6-21-1.6-28.2-3.6
		c-18.8-5.4-17.8-12.1-32.8-14.7c-16.2-2.8-36,2-36,2s-15.8,4.1-47,11c-22.9,5.1-34.6,6.2-48,5c-5.4-0.5-10.8-1.5-15.9-3.2
		c-12.1-3.9-16.6-7.5-25.1-10.7c-12.8-4.8-24.2-4-30.9-3.6c-20.4,1.4-26.4,10.6-43.3,16.2c-31.4,10.4-38.7-10.1-90.3-7.3
		c-35.5,1.9-44.1,13-66.8,5.2c-10.3-3.5-19.2-9.4-34.4-8.9c-9.6,0.3-13,2-18.4,2.2c-2.6,0-5.1-0.2-7.7-0.6C18.1,15.1,9.6,13,0,5.2
		v305.3c300.4,0,600.8-0.1,901.3-0.1c1.6-45.9,3.1-91.8,4.7-137.7c-0.3-23.2-0.5-46.4-0.8-69.7c-6.3-9.4-16.5-21.1-31.3-24.3
		c-21.6-4.5-34.1,13.7-53.2,7c-16.4-5.7-14.3-21.6-30.5-25.2c-5.6-1.3-17.3,2.5-40.8,10c-10.5,3.4-18.1,6-29.3,5.7
		c-29.8-0.8-32.9-20.8-58.4-23.5C638.9,50.4,630.7,63.7,614.1,56z"/>
</g>
</svg>
