<svg id="Слой_1" data-name="Слой 1" xmlns="http://www.w3.org/2000/svg" viewBox="0 0 32 43.85"><title>refresh</title><path d="M1.8,29.3A13.39,13.39,0,0,1,.4,25.68,17.18,17.18,0,0,1,0,22,15.38,15.38,0,0,1,4.73,10.68,15.38,15.38,0,0,1,16,6h2.15l-4-4L16.1,0l7.45,7.45L16.1,14.9l-2-2,4-4H16a12.5,12.5,0,0,0-9.17,3.83A12.5,12.5,0,0,0,3,22a12.82,12.82,0,0,0,.28,2.75A19,19,0,0,0,4,27.15Zm14,14.55L8.35,36.4,15.8,29l1.95,1.95-4,4H16a12.52,12.52,0,0,0,9.18-3.82A12.52,12.52,0,0,0,29,21.9a14.28,14.28,0,0,0-.25-2.75A12,12,0,0,0,28,16.7l2.15-2.15a14.12,14.12,0,0,1,1.43,3.63A16.45,16.45,0,0,1,32,21.9a15.39,15.39,0,0,1-4.72,11.28A15.39,15.39,0,0,1,16,37.9H13.75l4,4Z"/></svg>