<svg id="Слой_1" data-name="Слой 1" xmlns="http://www.w3.org/2000/svg" viewBox="0 0 157.6 49"><defs><style>.cls-1{fill-rule:evenodd;}</style></defs><title>jwtlogo</title><g id="Page-1"><g id="jwt_logo" data-name="jwt logo"><g id="Group"><g id="Shape"><path class="cls-1" d="M14,0V35A14,14,0,0,1,0,49V42a7,7,0,0,0,7-7V0ZM141.8,7h15.8V0H119.1V7h15.7V49h7V7ZM98,0V35a7,7,0,0,1-14,0V14a14,14,0,0,0-28,0V35a7,7,0,0,1-14,0V0H35V35a14,14,0,0,0,28,0V14a7,7,0,0,1,14,0h0V35a14,14,0,0,0,28,0V0Z"/></g></g></g></g></svg>