<?xml version="1.0" encoding="utf-8"?>
<!-- Generator: Adobe Illustrator 23.1.0, SVG Export Plug-In . SVG Version: 6.00 Build 0)  -->
<!DOCTYPE svg PUBLIC "-//W3C//DTD SVG 1.1//EN" "http://www.w3.org/Graphics/SVG/1.1/DTD/svg11.dtd" [
	<!ENTITY ns_extend "http://ns.adobe.com/Extensibility/1.0/">
	<!ENTITY ns_ai "http://ns.adobe.com/AdobeIllustrator/10.0/">
	<!ENTITY ns_graphs "http://ns.adobe.com/Graphs/1.0/">
	<!ENTITY ns_vars "http://ns.adobe.com/Variables/1.0/">
	<!ENTITY ns_imrep "http://ns.adobe.com/ImageReplacement/1.0/">
	<!ENTITY ns_sfw "http://ns.adobe.com/SaveForWeb/1.0/">
	<!ENTITY ns_custom "http://ns.adobe.com/GenericCustomNamespace/1.0/">
	<!ENTITY ns_adobe_xpath "http://ns.adobe.com/XPath/1.0/">
]>
<svg version="1.1" id="Слой_1" xmlns:x="&ns_extend;" xmlns:i="&ns_ai;" xmlns:graph="&ns_graphs;"
	 xmlns="http://www.w3.org/2000/svg" xmlns:xlink="http://www.w3.org/1999/xlink" x="0px" y="0px" viewBox="0 0 896.4 341.2"
	 style="enable-background:new 0 0 896.4 341.2;" xml:space="preserve">
<style type="text/css">
	.st0{fill:url(#SVGID_1_);}
	.st1{fill:url(#SVGID_2_);}
</style>
<metadata>
	<sfw  xmlns="&ns_sfw;">
		<slices></slices>
		<sliceSourceBounds  bottomLeftOrigin="true" height="338" width="906.7" x="-3.3" y="83.9"></sliceSourceBounds>
	</sfw>
</metadata>
<linearGradient id="SVGID_1_" gradientUnits="userSpaceOnUse" x1="898.8693" y1="264.5716" x2="-4.594" y2="264.5716">
	<stop  offset="0" style="stop-color:#BBEBF5"/>
	<stop  offset="0.19" style="stop-color:#C5E4F3"/>
	<stop  offset="0.68" style="stop-color:#DAD5EE"/>
	<stop  offset="1" style="stop-color:#E2D0EC"/>
</linearGradient>
<path class="st0" d="M-4.6,191.1l0,27.3c5.1,2.8,10.6,4.6,16.4,5.2c19.1,2,26.1-11.1,40.2-11c20.3,0.2,21.5,27.5,49,38.1
	c23.2,8.9,30.8-6,54.8,1c29.6,8.7,27.5,38.8,53.2,43.8c3.7,0.7,7,1,10,0.8c15.2-0.7,23.5-4.1,44.2-10.7c16.2-5.2,24.3-7.7,30-7.4
	c13.6,0.8,15.7,7.1,31.3,11c18.7,4.6,21.8-3.1,39.9,0c22.1,3.8,20.7,15.7,43.4,20.7c14.7,3.2,27.6,1.1,47.5-2.6
	c18-3.4,18.6-6.4,30.8-7c26.4-1.4,37.6,13.1,49,5.2c9.7-6.8,5-16.4,14.6-25.6c16.6-15.9,51.5-7.3,71-2.6
	c22.1,5.4,27.1,11.1,40.2,8.3c18.2-3.8,21.6-15.5,32.9-17.2c6.2-0.9,9.2,2.2,32.2,17.6c18.7,12.5,28,18.7,30.5,19.6
	c26.2,8.9,41.2-16.6,66.5-7.8c12.9,4.4,11.2,13.4,26.6,18c12.9,3.8,20.2-0.2,31.3,5.1c9.1,4.3,14.5,11.8,17.6,17.2
	c0.1-18.5,0.3-36.9,0.3-55.4"/>
<linearGradient id="SVGID_2_" gradientUnits="userSpaceOnUse" x1="-3.8846" y1="84.069" x2="918.011" y2="185.5126">
	<stop  offset="0" style="stop-color:#BBEBF5"/>
	<stop  offset="0.19" style="stop-color:#C5E4F3"/>
	<stop  offset="0.68" style="stop-color:#DAD5EE"/>
	<stop  offset="1" style="stop-color:#E2D0EC"/>
</linearGradient>
<path class="st1" d="M805,18.8c-10.3-5.4-27.3-8.5-56,3c-16.7,6.1-28.9,5.4-37,3.7c-4.9-1.1-8.3-2.5-18.8-4.7
	c-14.6-3-20.6-2.8-25.7,0c-3.6,2-4.7,4.8-6.9,6.3c-21,14.9-39.3,0.3-73.5,14.5c-6.4,2.7-10.9,5.3-18.8,5.9
	c-12.6,0.8-18.2-4.8-30.5-2c-7.7,1.8-7,4.3-12.1,4.7c-13.1,1-17.9-16-34.5-25.2c-12.6-7-25.6-5.7-45.4-3.1
	c-18.1,2.4-21.4,6.8-42.6,11.5c-5.5,1.2-24.5,5.2-44.9,4.7c-39.9-0.9-42.7-18-74.6-16.8c-24.6,0.9-24.6,11-57.4,12.6
	c-20.6,1-42.2-0.9-42.2-0.9c-22.2-2-30.2-5.3-40.2,0.2c-11.1,6.2-11,14.4-20.8,16.5c-9.8,2.1-13.2-5.6-27-6.6
	c-14.9-1.1-16.6,7.5-30.6,7.5c-15.9,0-23.8-14.9-39-14c-6.7,0.4-16.6,4.7-28,25.2h0.1l-0.1,152.4c5.1,2.8,10.6,4.6,16.4,5.2
	c19.1,2,26.1-11.1,40.2-11c20.3,0.2,21.5,27.5,49,38.1c23.2,8.9,30.8-6,54.8,1c29.6,8.7,27.5,38.8,53.2,43.8c3.7,0.7,7,1,10,0.8
	c15.2-0.7,23.5-4.1,44.2-10.7c16.2-5.2,24.3-7.7,30-7.4c13.6,0.8,15.7,7.1,31.3,11c18.7,4.6,21.8-3.1,39.9,0
	c22.1,3.8,20.7,15.7,43.4,20.7c14.7,3.2,27.6,1.1,47.5-2.6c18-3.4,18.6-6.4,30.8-7c26.4-1.4,37.6,13.1,49.1,5.2
	c9.7-6.8,5-16.4,14.6-25.6c16.6-15.9,51.5-7.3,71-2.6c22.1,5.4,27.1,11.1,40.2,8.3c18.2-3.8,21.6-15.5,32.9-17.2
	c6.2-0.9,9.2,2.2,32.2,17.6c18.7,12.5,28,18.7,30.5,19.6c26.2,8.9,41.2-16.6,66.5-7.8c12.9,4.4,11.2,13.4,26.6,18
	c12.9,3.8,20.2-0.2,31.3,5.1c9.1,4.3,14.5,11.8,17.6,17.2c0.4-53.1,0.6-106.2,0.4-159.3c-0.2-58.2-0.7-116.4-1.6-174.5
	c-6.3,13-13.8,18.5-19.6,21.1c-8.1,3.7-12.4,1.5-23.5,6.3c-11.9,5.1-12,9.8-18.8,11C826.3,40.4,819.1,26.1,805,18.8z"/>
</svg>
