<svg id="Layer_1" data-name="Layer 1" xmlns="http://www.w3.org/2000/svg" viewBox="0 0 1045.49 1019.35"><defs><style>.cls-1{fill:#00005b;}.cls-2{fill:#99f;}</style></defs><title>after-effects</title><g id="Layer_2_1_-8" data-name="Layer 2 1 -8"><g id="Surfaces"><g id="Video_Audio_Surface" data-name="Video Audio Surface"><g id="Outline_no_shadow-3" data-name="Outline no shadow-3"><path id="path2194" class="cls-1" d="M185.14,0H860.35a185,185,0,0,1,185.14,185.14V834.21a185,185,0,0,1-185.14,185.14H185.14A185,185,0,0,1,0,834.21V185.14A185,185,0,0,1,185.14,0Z"/></g></g></g><g id="Outlined_Mnemonics_Logos" data-name="Outlined Mnemonics Logos"><g id="Ae"><path id="path2199" class="cls-2" d="M419.94,609.87h-162l-33.11,102.8a7.63,7.63,0,0,1-8.27,6.11h-81.9c-4.8,0-6.1-2.62-4.8-7.85L270.08,308.86c1.31-4.36,2.62-8.28,4.36-13.51A152.39,152.39,0,0,0,277.06,267a4.31,4.31,0,0,1,3.49-4.79H393.37c3,0,5.23,1.31,5.66,3.49L558,712.24c1.31,4.79,0,7-4.36,7h-91a6.58,6.58,0,0,1-7-4.79Zm-136.78-86.7H393.8c-2.61-9.14-6.1-20-10-31.36-3.92-11.76-7.84-24.39-11.76-37.45-4.36-13.52-8.27-26.58-12.63-40.08s-8.27-26.14-11.76-38.77c-3.49-12.2-6.54-23.53-9.59-34h-.87a533.84,533.84,0,0,1-14.81,56.2c-6.53,20.91-13.07,42.69-20,64.47-5.66,22.22-12.63,42.69-19.16,61Z"/><path id="path2201" class="cls-2" d="M816.36,569.79H678.26a96,96,0,0,0,13.5,38.77,69.11,69.11,0,0,0,31.81,26.14,135.64,135.64,0,0,0,55.75,10.89,261.46,261.46,0,0,0,45.31-4.8,163.15,163.15,0,0,0,38.77-10c2.17-1.75,3.48-.88,3.48,3.48v66.65a21.67,21.67,0,0,1-.87,5.23,10.08,10.08,0,0,1-3,3.05,186.54,186.54,0,0,1-43.56,13.07,294,294,0,0,1-61.85,5.22c-33.12,0-61-5.22-83.64-15.24A146.6,146.6,0,0,1,619,670.85,159.7,159.7,0,0,1,589,613.79a225.69,225.69,0,0,1,1.74-132.87,177.65,177.65,0,0,1,32.68-59.68,157.89,157.89,0,0,1,52.7-41.38c20.48-10,44.88-13.51,72.75-13.51a157.44,157.44,0,0,1,67.53,13.51,120.2,120.2,0,0,1,45.73,34.85,159.27,159.27,0,0,1,26.14,49.66,171.45,171.45,0,0,1,8.28,53.15c0,10.45-.44,19.6-.87,27.88-.87,8.27-1.31,14.37-1.75,18.29a6.49,6.49,0,0,1-6.1,5.66c-2.61,0-7.4.44-14.37.87a204.38,204.38,0,0,1-25.26,1.31c-10,0-20.48-1.74-31.8-1.74Zm-138.1-63.6h91.91c11.33,0,19.61,0,24.83-.43a21.36,21.36,0,0,0,10-3.49v-4.36a50,50,0,0,0-2.62-16.11,57.64,57.64,0,0,0-56.63-40.08,61.35,61.35,0,0,0-57.94,33.1A90.61,90.61,0,0,0,678.26,506.19Z"/></g></g></g></svg>