<svg id="Слой_1" preserveAspectRatio="none" data-name="Слой 1" xmlns="http://www.w3.org/2000/svg" xmlns:xlink="http://www.w3.org/1999/xlink" viewBox="0 0 748.35 279.9"><defs><style>.cls-1{fill:url(#Безымянный_градиент_17);}.cls-2{fill:url(#Безымянный_градиент);}</style><linearGradient id="Безымянный_градиент_17" x1="-8.53" y1="201.66" x2="756.81" y2="117.43" gradientTransform="matrix(1, 0, 0, -1, 0, 280)" gradientUnits="userSpaceOnUse"><stop offset="0" stop-color="#e2d0ec"/><stop offset="0.32" stop-color="#dad5ee"/><stop offset="0.81" stop-color="#c5e4f3"/><stop offset="1" stop-color="#bbebf5"/></linearGradient><linearGradient id="Безымянный_градиент" x1="-8.23" y1="204.44" x2="756.42" y2="120.29" gradientTransform="matrix(1, 0, 0, -1, 0, 280)" gradientUnits="userSpaceOnUse"><stop offset="0" stop-color="#bbebf5"/><stop offset="0.19" stop-color="#c5e4f3"/><stop offset="0.68" stop-color="#dad5ee"/><stop offset="1" stop-color="#e2d0ec"/></linearGradient></defs><title>33</title><path class="cls-1" d="M.09,0,0,152.35A29.21,29.21,0,0,0,13.13,160c17,4.33,24.79-11.12,40.18-11,20.35.16,21.46,27.49,49,38.09,23.21,8.91,30.76-6,54.78,1,29.57,8.66,27.51,38.8,53.22,43.83,21.4,4.18,30.23-14.66,54.26-9.92,15.48,3.06,20.51,12.59,36,25,22.82,18.43,60.17,35.9,92.91,32.43,45.43-4.75,52.93-46.54,93.91-42.78,20.76,1.91,36.06,14.21,49.05,5.22,9.74-6.75,5-16.36,14.6-25.57,16.56-15.88,51.54-7.34,71-2.61,22.14,5.41,27.06,11.08,40.17,8.35,17.47-3.64,25-14.26,32.87-17.22,8.36-3.13,23.51.73,53.27,34.63q-1.64-118.51-3.26-237Z"/><path class="cls-2" d="M.09,0,0,152.35a44,44,0,0,0,16.39,5.22c19.13,2,26.07-11.08,40.18-11,20.35.16,21.46,27.49,49,38.09,23.21,8.91,30.76-6,54.78,1,29.57,8.66,27.51,38.8,53.22,43.83,21.4,4.18,30.23-14.66,54.26-9.92,15.48,3.06,20.51,12.59,36,25C326.65,263,364,280.47,396.74,277c45.43-4.75,52.93-46.54,93.91-42.78,20.76,1.91,36.06,14.21,49.05,5.22,9.74-6.75,5-16.36,14.6-25.57,16.56-15.88,51.54-7.34,71-2.61,22.14,5.41,27.06,11.08,40.17,8.35,17.44-3.63,24.63-14.24,32.87-17.22,8.08-2.92,22.47.23,50,30.62V0Z"/></svg>
