<svg id="Слой_1" preserveAspectRatio="none" data-name="Слой 1" xmlns="http://www.w3.org/2000/svg" xmlns:xlink="http://www.w3.org/1999/xlink" viewBox="0 0 749.3 306.18"><defs><style>.cls-1{fill:url(#Безымянный_градиент_3);}.cls-2{fill:url(#Безымянный_градиент);}</style><linearGradient id="Безымянный_градиент_3" x1="345.11" y1="-2.56" x2="406.49" y2="494.15" gradientTransform="translate(0 -52.07)" gradientUnits="userSpaceOnUse"><stop offset="0" stop-color="#e2d0ec"/><stop offset="0.32" stop-color="#dad5ee"/><stop offset="0.81" stop-color="#c5e4f3"/><stop offset="1" stop-color="#bbebf5"/></linearGradient><linearGradient id="Безымянный_градиент" x1="345" y1="-1.65" x2="406.27" y2="494.13" gradientTransform="translate(0 -52.07)" gradientUnits="userSpaceOnUse"><stop offset="0" stop-color="#bbebf5"/><stop offset="0.19" stop-color="#c5e4f3"/><stop offset="0.68" stop-color="#dad5ee"/><stop offset="1" stop-color="#e2d0ec"/></linearGradient></defs><title>bg-works</title><g id="Слой_1-2" data-name="Слой 1-2"><path class="cls-1" d="M618.57,50.34c-11.33-5.27-8.51-11.88-21.92-19.83-8.1-4.8-20.47-6.39-44.87-9.39-21-2.57-21-1.58-28.17-3.65C504.8,12,505.82,5.4,490.78,2.82c-10.6-1.82-21.11-.13-36,2-21,3-25.11,6.83-47,11-22.46,4.27-33.7,6.4-48,5a73.75,73.75,0,0,1-15.93-3.2c-12.13-4-16.63-7.45-25.13-10.66-12.83-4.84-24.27-4-30.94-3.58C267.37,4.81,261.39,14,244.48,19.56,213.05,30,205.75,9.46,154.22,12.25c-35.52,1.93-44,13-66.79,5.22C77.16,14,68.28,8.09,53,8.6,42.43,9,37.38,11.26,26.91,10.17A59.38,59.38,0,0,1,0,0L.3,305.13l748,1q.53-120,1-239.91a61.3,61.3,0,0,1-24.82,4.43c-27-1-32.5-20.76-58.44-23.48C643.36,44.83,635.17,58.07,618.57,50.34Z"/></g><g id="Слой_1-2-2" data-name="Слой 1-2"><path class="cls-2" d="M614.09,51.65c-11.33-5.27-8.51-11.88-21.92-19.82-8.1-4.81-20.47-6.4-44.87-9.4-21-2.57-21-1.58-28.17-3.65C500.32,13.34,501.35,6.71,486.3,4.13c-10.6-1.82-21.11-.13-36,2-21,3-25.11,6.83-47,11-22.46,4.27-33.7,6.4-48,5a73.27,73.27,0,0,1-15.93-3.2C327.24,15,322.74,11.48,314.24,8.27,301.41,3.43,290,4.23,283.3,4.7,262.89,6.12,256.91,15.26,240,20.87c-31.43,10.43-38.73-10.09-90.26-7.3-35.52,1.92-44.05,13-66.78,5.21C72.69,15.28,63.8,9.4,48.52,9.91c-10.27.35-15.87,3.33-26.09,1.57A47.58,47.58,0,0,1,.3.83L0,306.18H749.3V66.26A63.94,63.94,0,0,1,720,72c-26.84-1.46-32.31-20.74-58.43-23.48C638.89,46.14,630.7,59.38,614.09,51.65Z"/></g></svg>