<svg id="Слой_1" data-name="Слой 1" xmlns="http://www.w3.org/2000/svg" xmlns:xlink="http://www.w3.org/1999/xlink" viewBox="0 0 100.65 130"><defs><style>.cls-1{fill:#341a36;}.cls-2{fill:url(#Безымянный_градиент_448);}.cls-3{fill:#004a63;}.cls-4{fill:#00556f;}.cls-5{fill:#007d90;}.cls-6{fill:#00989c;}.cls-7{fill:#00a39f;}.cls-8{fill:#00a49b;}.cls-9{fill:#00a69d;}.cls-10{fill:#02ada0;}</style><linearGradient id="Безымянный_градиент_448" x1="310.34" y1="308.24" x2="381.76" y2="368.9" gradientUnits="userSpaceOnUse"><stop offset="0" stop-color="#009996"/><stop offset="1" stop-color="#181a45"/></linearGradient></defs><title>left-sea-green-monster</title><path class="cls-1" d="M379.65,401.65c-1.25,1.4.45,3.56,0,7a11.15,11.15,0,0,1-3,6,10.7,10.7,0,0,0,7-4c1.9-2.61,3.1-7.17,1-9C383.32,400.49,380.71,400.46,379.65,401.65Z" transform="translate(-298.65 -284.65)"/><path class="cls-1" d="M372.65,400.65c1.45,2.49-.61,5.47-1,6a8,8,0,0,1-6,3,11.31,11.31,0,0,0,2-5c.41-3.26-1-5.18,0-6S371.51,398.69,372.65,400.65Z" transform="translate(-298.65 -284.65)"/><path class="cls-1" d="M361.65,396.65c1,2.06.13,4.2-1,7a27.87,27.87,0,0,1-5,8,36.3,36.3,0,0,0,1-11c-.26-3.89-1.1-6.31,0-7S360.61,394.43,361.65,396.65Z" transform="translate(-298.65 -284.65)"/><path class="cls-1" d="M354.65,393.65c-.14,1.1-1.48,1.23-4,3-4.73,3.32-6.4,7.32-7,7s1.79-3.71,2-9c.14-3.71-.94-5.2,0-6C347.58,387,355,391,354.65,393.65Z" transform="translate(-298.65 -284.65)"/><path class="cls-1" d="M343.65,390.65c-.31.62-1.67,0-4,1a12.22,12.22,0,0,0-3,2c-3.41,2.69-4.77,4.2-5,4s1.92-2.3,3-6c1.17-4-.16-6.29,1-7C337.78,383.35,344.37,389.18,343.65,390.65Z" transform="translate(-298.65 -284.65)"/><path class="cls-1" d="M333.65,384.65c-.45.81-1.6.34-4,1-4.36,1.2-6.59,4.38-7,4s2.8-3.08,4-8c.59-2.46.24-3.66,1-4C329.5,376.83,334.74,382.68,333.65,384.65Z" transform="translate(-298.65 -284.65)"/><path class="cls-1" d="M326.65,376.65l-4,2-6,3h0a22.45,22.45,0,0,0,3-5,30.09,30.09,0,0,0,1-3c.64-2.22.62-2.85,1-3C322.24,370.42,323.57,371.5,326.65,376.65Z" transform="translate(-298.65 -284.65)"/><path class="cls-1" d="M319.71,370.3c-.41.59-1.73-.13-4,0-3.58.21-5.76,2.31-6,2s1.05-1.74,7-7C319.67,368.56,320.06,369.81,319.71,370.3Z" transform="translate(-298.65 -284.65)"/><path class="cls-1" d="M309.65,353.65a7.62,7.62,0,0,1-2,6,7.17,7.17,0,0,1-4,2,7.37,7.37,0,0,0,9-1Z" transform="translate(-298.65 -284.65)"/><path class="cls-1" d="M307.65,344.65c-.82-.15-1.43.91-3,2a12.45,12.45,0,0,1-5,2,7.36,7.36,0,0,0,3,2,8.43,8.43,0,0,0,7-1C309.14,345.69,308.31,344.77,307.65,344.65Z" transform="translate(-298.65 -284.65)"/><path class="cls-1" d="M306.65,332.65c-.55,0-.6.71-2,2a12,12,0,0,1-3,2c-1.82.83-3,.74-3,1s1,.42,6,1c3.09.36,3.6.4,4,0C310,337.28,308.06,332.65,306.65,332.65Z" transform="translate(-298.65 -284.65)"/><path class="cls-1" d="M306.65,325.65c-.63-.53-1.58-.12-4.26,0-1.16.05-2.11,0-2.74,0l7,4C307.45,327,307.12,326.05,306.65,325.65Z" transform="translate(-298.65 -284.65)"/><path class="cls-1" d="M307.65,317.65l-6-2,5,5C307,319.65,307.31,318.65,307.65,317.65Z" transform="translate(-298.65 -284.65)"/><path class="cls-1" d="M310.65,307.65l-6-1,4,5Z" transform="translate(-298.65 -284.65)"/><polygon class="cls-1" points="11 15 13.22 19.39 14.98 17.04 11 15"/><polygon class="cls-1" points="16 10 17.52 13.52 19 12 16 10"/><polygon class="cls-1" points="20 6 23 9 25 8 20 6"/><polygon class="cls-1" points="25 4 26.33 6.67 27.89 5.7 25 4"/><polygon class="cls-1" points="29 2 30.04 4.91 31.8 4.33 29 2"/><polygon class="cls-1" points="33 1 33.17 3.54 34.35 3.54 33 1"/><polygon class="cls-1" points="37 1 36.5 3.15 37.67 3.35 37 1"/><polygon class="cls-1" points="40 0 39.83 2.96 41.59 2.96 40 0"/><polygon class="cls-1" points="44 1 43.35 2.96 45.11 3.74 44 1"/><polygon class="cls-1" points="47 0 46.48 3.94 48.24 4.13 47 0"/><polygon class="cls-1" points="50 2 50 4 51.56 4.72 50 2"/><polygon class="cls-1" points="55 3 52.54 4.91 54.5 5.5 55 3"/><polygon class="cls-1" points="57 4 55.67 5.89 57 7 57 4"/><polygon class="cls-1" points="59 5 58.02 7.46 59 9 59 5"/><polygon class="cls-1" points="61 7 60 9 61 10 61 7"/><polygon class="cls-1" points="64 8 62 10 64 11 64 8"/><polygon class="cls-1" points="68 11 64.87 11.76 67 13 68 11"/><polygon class="cls-1" points="70 14 67 15 69 16 70 14"/><polygon class="cls-1" points="72 16 70 17 71 18 72 16"/><polygon class="cls-1" points="73 19 70 18 71 21 73 19"/><polygon class="cls-1" points="74 23 71 23 71 25 74 23"/><polygon class="cls-1" points="71.5 26.5 74.5 28.5 70.5 28.5 71.5 26.5"/><polygon class="cls-1" points="70 31 72 36 68 31 70 31"/><polygon class="cls-1" points="67 32 68 38 65 33 67 32"/><path class="cls-1" d="M362.65,317.65v6c-.67-2.33-1.34-4.67-2-7Z" transform="translate(-298.65 -284.65)"/><path class="cls-1" d="M360.65,318.65l-3,7c.66-2.67,1.33-5.33,2-8Z" transform="translate(-298.65 -284.65)"/><polygon class="cls-1" points="61.48 34.6 55.3 39.38 60.72 33.41 61.48 34.6"/><polygon class="cls-1" points="61 34 52 31 62 32 61 34"/><polygon class="cls-1" points="61.7 33.39 61.7 34.39 51.7 34.39 61.7 33.39"/><polygon class="cls-1" points="86.48 71.22 85.98 73.37 87.15 73.56 86.48 71.22"/><polygon class="cls-1" points="84.98 71.67 84.48 73.83 85.65 74.02 84.98 71.67"/><polygon class="cls-1" points="83.94 70.67 83.23 73.72 84.9 74 83.94 70.67"/><polygon class="cls-1" points="81.95 71 81.31 73.75 82.81 74 81.95 71"/><polygon class="cls-1" points="79.98 71.67 79.48 73.83 80.65 74.02 79.98 71.67"/><polygon class="cls-1" points="77.98 71.67 77.48 73.83 78.65 74.02 77.98 71.67"/><polygon class="cls-1" points="76.98 71.67 76.48 73.83 77.65 74.02 76.98 71.67"/><polygon class="cls-1" points="75.97 71.69 74.92 73.64 76 74.14 75.97 71.69"/><polygon class="cls-1" points="74.97 71.63 73.92 73.57 75 74.07 74.97 71.63"/><polygon class="cls-1" points="73.97 70.63 72.92 72.57 74 73.07 73.97 70.63"/><polygon class="cls-1" points="72.97 71.63 71.92 73.57 73 74.07 72.97 71.63"/><polygon class="cls-1" points="71.97 70.63 70.92 72.57 72 73.07 71.97 70.63"/><polygon class="cls-1" points="69.97 70.63 68.92 72.57 70 73.07 69.97 70.63"/><polygon class="cls-1" points="68.82 70.76 67.39 72.44 68.34 73.15 68.82 70.76"/><polygon class="cls-1" points="67.78 69.65 66.35 71.33 67.3 72.05 67.78 69.65"/><polygon class="cls-1" points="65.78 69.65 64.35 71.33 65.3 72.05 65.78 69.65"/><polygon class="cls-1" points="64.78 69.65 63.35 71.33 64.3 72.05 64.78 69.65"/><polygon class="cls-1" points="63.78 68.65 62.35 70.33 63.3 71.05 63.78 68.65"/><polygon class="cls-1" points="61.78 68.65 60.35 70.33 61.3 71.05 61.78 68.65"/><polygon class="cls-1" points="60.78 67.65 59.35 69.33 60.3 70.05 60.78 67.65"/><polygon class="cls-1" points="59.78 66.65 58.35 68.33 59.3 69.05 59.78 66.65"/><polygon class="cls-1" points="57.78 66.65 56.35 68.33 57.3 69.05 57.78 66.65"/><polygon class="cls-1" points="57.21 66.06 55.21 66.99 55.78 68.04 57.21 66.06"/><polygon class="cls-1" points="55.78 64.65 54.35 66.33 55.3 67.05 55.78 64.65"/><polygon class="cls-1" points="55.07 64.86 53.06 65.79 53.64 66.84 55.07 64.86"/><polygon class="cls-1" points="54.07 63.86 52.06 64.79 52.64 65.84 54.07 63.86"/><polygon class="cls-1" points="53.07 63.86 51.06 64.79 51.64 65.84 53.07 63.86"/><polygon class="cls-1" points="53.07 62.86 51.06 63.79 51.64 64.84 53.07 62.86"/><polygon class="cls-1" points="52.07 61.86 50.06 62.79 50.64 63.84 52.07 61.86"/><polygon class="cls-1" points="50.07 61.86 48.06 62.79 48.64 63.84 50.07 61.86"/><polygon class="cls-1" points="50.07 60.86 48.06 61.79 48.64 62.84 50.07 60.86"/><polygon class="cls-1" points="49.07 59.86 47.06 60.79 47.64 61.84 49.07 59.86"/><polygon class="cls-1" points="48.07 58.86 46.06 59.79 46.64 60.84 48.07 58.86"/><polygon class="cls-1" points="47.07 58.86 45.06 59.79 45.64 60.84 47.07 58.86"/><polygon class="cls-1" points="47.07 57.86 45.06 58.79 45.64 59.84 47.07 57.86"/><polygon class="cls-1" points="45.07 56.86 43.06 57.79 43.64 58.84 45.07 56.86"/><polygon class="cls-1" points="45.07 55.86 43.06 56.79 43.64 57.84 45.07 55.86"/><polygon class="cls-1" points="44.07 54.86 42.06 55.79 42.64 56.84 44.07 54.86"/><polygon class="cls-1" points="42.25 54.09 40.1 54.58 40.44 55.72 42.25 54.09"/><polygon class="cls-1" points="42.14 53.03 39.99 53.52 40.33 54.66 42.14 53.03"/><polygon class="cls-1" points="41.14 52.03 38.99 52.52 39.33 53.66 41.14 52.03"/><polygon class="cls-1" points="40.14 51.03 37.99 51.52 38.33 52.66 40.14 51.03"/><polygon class="cls-1" points="40.14 50.03 37.99 50.52 38.33 51.66 40.14 50.03"/><polygon class="cls-1" points="39.14 49.03 36.99 49.52 37.33 50.66 39.14 49.03"/><polygon class="cls-1" points="38.14 48.03 35.99 48.52 36.33 49.66 38.14 48.03"/><polygon class="cls-1" points="38.2 47.37 36 47.23 36 48.42 38.2 47.37"/><polygon class="cls-1" points="38.2 46.39 36 46.25 36 47.44 38.2 46.39"/><polygon class="cls-1" points="37.2 45.39 35 45.25 35 46.44 37.2 45.39"/><polygon class="cls-1" points="37.2 44.39 35 44.25 35 45.44 37.2 44.39"/><polygon class="cls-1" points="36.2 43.39 34 43.25 34 44.44 36.2 43.39"/><polygon class="cls-1" points="36.2 42.39 34 42.25 34 43.44 36.2 42.39"/><polygon class="cls-1" points="35.22 40.56 33.07 40.09 32.89 41.27 35.22 40.56"/><polygon class="cls-1" points="36.2 39.39 34 39.25 34 40.44 36.2 39.39"/><polygon class="cls-1" points="36.2 41.39 34 41.25 34 42.44 36.2 41.39"/><polygon class="cls-1" points="35.2 38.39 33 38.25 33 39.44 35.2 38.39"/><polygon class="cls-1" points="35.2 37.39 33 37.25 33 38.44 35.2 37.39"/><polygon class="cls-1" points="35.2 36.39 33 36.25 33 37.44 35.2 36.39"/><polygon class="cls-1" points="35.25 35.7 33.16 34.98 32.84 36.13 35.25 35.7"/><polygon class="cls-1" points="35.27 32.99 33.18 32.27 32.86 33.42 35.27 32.99"/><polygon class="cls-1" points="35.27 33.99 33.18 33.27 32.86 34.42 35.27 33.99"/><polygon class="cls-1" points="35.27 31.99 33.18 31.27 32.86 32.42 35.27 31.99"/><polygon class="cls-1" points="35.23 30.98 33.29 29.92 32.78 31 35.23 30.98"/><polygon class="cls-1" points="36.29 29.98 34.35 28.92 33.84 30 36.29 29.98"/><polygon class="cls-1" points="36.29 28.98 34.35 27.92 33.84 29 36.29 28.98"/><polygon class="cls-1" points="36.29 27.98 34.35 26.92 33.84 28 36.29 27.98"/><polygon class="cls-1" points="36.06 26.73 34.55 25.11 33.74 25.97 36.06 26.73"/><polygon class="cls-1" points="37.23 25.66 35.72 24.04 34.9 24.9 37.23 25.66"/><polygon class="cls-1" points="37.23 24.66 35.72 23.04 34.9 23.9 37.23 24.66"/><polygon class="cls-1" points="38.23 23.66 36.72 22.04 35.9 22.9 38.23 23.66"/><polygon class="cls-1" points="38.95 23.26 38.19 21.19 37.1 21.66 38.95 23.26"/><polygon class="cls-1" points="39.99 21.89 39.23 19.81 38.14 20.29 39.99 21.89"/><polygon class="cls-1" points="40.99 20.89 40.23 18.81 39.14 19.29 40.99 20.89"/><polygon class="cls-1" points="41.99 19.89 41.23 17.81 40.14 18.29 41.99 19.89"/><polygon class="cls-1" points="40.99 19.89 40.23 17.81 39.14 18.29 40.99 19.89"/><polygon class="cls-1" points="38.99 21.89 38.23 19.81 37.14 20.29 38.99 21.89"/><polygon class="cls-1" points="42.99 18.89 42.23 16.81 41.14 17.29 42.99 18.89"/><polygon class="cls-1" points="44 18.14 43.98 15.93 42.8 16.01 44 18.14"/><polygon class="cls-1" points="45 17.95 44.98 15.74 43.8 15.83 45 17.95"/><polygon class="cls-1" points="46 16.95 45.98 14.74 44.8 14.83 46 16.95"/><polygon class="cls-1" points="47 16.95 46.98 14.74 45.8 14.83 47 16.95"/><polygon class="cls-1" points="49.39 17.06 49.89 14.91 48.72 14.71 49.39 17.06"/><polygon class="cls-1" points="48.15 17.02 48.65 14.87 47.48 14.67 48.15 17.02"/><polygon class="cls-1" points="51.15 17.02 51.65 14.87 50.48 14.67 51.15 17.02"/><polygon class="cls-1" points="53.15 16.02 53.65 13.87 52.48 13.67 53.15 16.02"/><polygon class="cls-1" points="54.15 17.02 54.65 14.87 53.48 14.67 54.15 17.02"/><polygon class="cls-1" points="52.15 16.02 52.65 13.87 51.48 13.67 52.15 16.02"/><polygon class="cls-1" points="54.67 16.76 55.17 14.61 54 14.41 54.67 16.76"/><polygon class="cls-1" points="87.39 71.46 86.8 73.58 87.96 73.83 87.39 71.46"/><polygon class="cls-1" points="88.34 70.46 87.84 72.61 89.01 72.81 88.34 70.46"/><polygon class="cls-1" points="89.42 71.46 88.77 73.57 89.93 73.85 89.42 71.46"/><polygon class="cls-1" points="55.7 16.97 56.98 15.16 55.96 14.54 55.7 16.97"/><polygon class="cls-1" points="56.43 17.06 57.7 15.26 56.69 14.63 56.43 17.06"/><polygon class="cls-1" points="57.43 18.06 58.7 16.25 57.69 15.63 57.43 18.06"/><polygon class="cls-1" points="58.43 18.06 59.7 16.25 58.69 15.63 58.43 18.06"/><polygon class="cls-1" points="59.43 19.06 60.7 17.25 59.69 16.63 59.43 19.06"/><polygon class="cls-1" points="60 19.06 61.27 17.25 60.26 16.63 60 19.06"/><polygon class="cls-1" points="60.43 20.06 61.7 18.25 60.69 17.63 60.43 20.06"/><polygon class="cls-1" points="63.03 21.74 64.87 20.53 64.16 19.58 63.03 21.74"/><polygon class="cls-1" points="61.14 19.93 62.99 18.72 62.27 17.77 61.14 19.93"/><polygon class="cls-1" points="62.14 20.93 63.99 19.72 63.27 18.77 62.14 20.93"/><polygon class="cls-1" points="62.88 22.64 64.99 21.98 64.56 20.86 62.88 22.64"/><polygon class="cls-1" points="63.01 23.73 65.12 23.07 64.69 21.96 63.01 23.73"/><polygon class="cls-1" points="64.01 24.73 66.12 24.07 65.69 22.96 64.01 24.73"/><polygon class="cls-1" points="63.79 25.31 66 25.43 65.99 24.24 63.79 25.31"/><polygon class="cls-1" points="64.01 25.97 66.22 26.09 66.2 24.9 64.01 25.97"/><polygon class="cls-1" points="63.79 24.33 66 24.44 65.99 23.25 63.79 24.33"/><polygon class="cls-1" points="63.91 26.95 65.9 27.92 66.35 26.82 63.91 26.95"/><polygon class="cls-1" points="63.85 26.43 65.83 27.4 66.28 26.3 63.85 26.43"/><polygon class="cls-1" points="63.85 27.43 65.83 28.4 66.28 27.3 63.85 27.43"/><polygon class="cls-1" points="63.85 28.43 65.83 29.4 66.28 28.3 63.85 28.43"/><polygon class="cls-1" points="63.85 29.43 65.83 30.4 66.28 29.3 63.85 29.43"/><polygon class="cls-1" points="62.85 30.43 64.83 31.4 65.28 30.3 62.85 30.43"/><polygon class="cls-1" points="61.05 31.05 62.61 32.62 63.4 31.73 61.05 31.05"/><polygon class="cls-1" points="62.89 31.06 64.44 32.63 65.24 31.75 62.89 31.06"/><path class="cls-2" d="M390.65,358.65c-5.44-3.71-8.42.61-21-2a50.92,50.92,0,0,1-31-20,30.85,30.85,0,0,1-5-11,26.94,26.94,0,0,1,0-12,17.1,17.1,0,0,1,3-7c3.81-4.94,9.6-5.79,11-6,1.94-.29,6.8-1,11,2a10.17,10.17,0,0,1,4,5c1.12,3.45,0,8,0,8s-4.23,2.21-4,3,4.59,1.12,8-1a11.37,11.37,0,0,0,5-10c-.22-4.36-3.09-7.2-6-10a36.51,36.51,0,0,0-17-9c-3.94-.9-13.85-3.16-24,2-11.89,6-15.72,18-17,22-1.8,5.61-1.88,10.21-2,17-.1,5.36-.2,12,2,20,2.76,10,7.68,16.61,11,21a75.2,75.2,0,0,0,23,20c7.76,4.36,14.11,6.12,21,8,15.17,4.15,22.75,6.23,28,3C402.34,394.46,402,366.41,390.65,358.65Z" transform="translate(-298.65 -284.65)"/><path class="cls-3" d="M377.65,375.65a27.35,27.35,0,0,0-1,5,27.78,27.78,0,0,0,0,6,13,13,0,0,0,10,0,25.62,25.62,0,0,0-1-10,16.62,16.62,0,0,0-8-1Z" transform="translate(-298.65 -284.65)"/><path class="cls-4" d="M361.65,367.65a52,52,0,0,0-2,7,51.13,51.13,0,0,0-1,7,37.29,37.29,0,0,0,13,3,34.77,34.77,0,0,0,1-6,33.26,33.26,0,0,0,0-5,13.1,13.1,0,0,1-5-1A13.48,13.48,0,0,1,361.65,367.65Z" transform="translate(-298.65 -284.65)"/><path class="cls-5" d="M347.65,361.65a31.11,31.11,0,0,0-7,11,23.49,23.49,0,0,0,13,6,52,52,0,0,0,2-5,50.41,50.41,0,0,0,2-8l-5-2Z" transform="translate(-298.65 -284.65)"/><path class="cls-6" d="M332.65,351.65a22.74,22.74,0,0,0-5,4,22.42,22.42,0,0,0-3,4c1.5,1.3,3.16,2.65,5,4,2.08,1.53,4.1,2.86,6,4a45.57,45.57,0,0,0,7-10l-5-3Z" transform="translate(-298.65 -284.65)"/><path class="cls-7" d="M322.26,335.64a26.56,26.56,0,0,0-4.14,1.7,27.15,27.15,0,0,0-4.2,2.71A70.13,70.13,0,0,0,322,352.66a15.72,15.72,0,0,0,8.41-5.41,35.37,35.37,0,0,1-4.63-5.34A36.22,36.22,0,0,1,322.26,335.64Z" transform="translate(-298.65 -284.65)"/><path class="cls-8" d="M312.65,324.65v11a11.41,11.41,0,0,0,9-4,29.26,29.26,0,0,1-1-3,33.42,33.42,0,0,1-1-5,14.94,14.94,0,0,0-3,0A14.5,14.5,0,0,0,312.65,324.65Z" transform="translate(-298.65 -284.65)"/><path class="cls-9" d="M312.65,313.65v7h7v-7a6.52,6.52,0,0,0-7,0Z" transform="translate(-298.65 -284.65)"/><path class="cls-10" d="M313.65,309.65a23.45,23.45,0,0,1,7-13c4.68-4.28,9.94-5.25,14-6a37.33,37.33,0,0,1,13,0,32.89,32.89,0,0,1,10,3c2.68,1.33,5.59,2.78,8,6,1,1.28,3.72,5.08,3,10a11.93,11.93,0,0,1-2,5,16.89,16.89,0,0,0-1-9,17.37,17.37,0,0,0-7-8c-6.07-3.91-12.52-3.37-17-3s-9.93.83-15,5a21.57,21.57,0,0,0-6,8Z" transform="translate(-298.65 -284.65)"/></svg>