<svg xmlns="http://www.w3.org/2000/svg" xmlns:xlink="http://www.w3.org/1999/xlink" viewBox="0 0 138.06 350.23"><defs><style>.cls-1{isolation:isolate;}.cls-2{fill:#8c1b12;}.cls-3{fill:url(#Безымянный_градиент_366);}.cls-4{fill:url(#Безымянный_градиент_325);}.cls-5{fill:url(#Безымянный_градиент_324);}.cls-6{fill:url(#Безымянный_градиент_324-2);}.cls-7{fill:url(#Безымянный_градиент_370);}.cls-8{opacity:0.5;mix-blend-mode:multiply;}.cls-9{fill:#8e551c;}.cls-10{fill:url(#Безымянный_градиент_311);}.cls-11{fill:url(#Безымянный_градиент_256);}.cls-12{fill:url(#Безымянный_градиент_295);}.cls-13{fill:url(#Безымянный_градиент_307);}.cls-14{fill:#e0fffd;}.cls-15{fill:#232847;}.cls-16{fill:#a64600;}.cls-17{fill:#ffeeaf;}.cls-18{fill:#925806;}.cls-19{fill:#dba027;}.cls-20{fill:#764100;}.cls-21{fill:#bf5c00;}.cls-22{fill:#472300;}.cls-23{fill:#d37603;}.cls-24{fill:#ba5f00;}.cls-25{fill:#ae4f00;}.cls-26{fill:#ca6700;}.cls-27{fill:#a65202;}.cls-28{fill:#fee9c8;}.cls-29{fill:#932f00;}.cls-30{fill:#bc5300;}.cls-31{fill:#a63e00;}</style><linearGradient id="Безымянный_градиент_366" x1="340.16" y1="339.97" x2="345.47" y2="368.92" gradientUnits="userSpaceOnUse"><stop offset="0" stop-color="#a0291d"/><stop offset="0.48" stop-color="#cd5e1a"/><stop offset="1" stop-color="#fa9317"/></linearGradient><linearGradient id="Безымянный_градиент_325" x1="305.85" y1="340.14" x2="310.72" y2="366.67" gradientUnits="userSpaceOnUse"><stop offset="0" stop-color="#ae3422"/><stop offset="0.16" stop-color="#c34e1f"/><stop offset="0.38" stop-color="#db6c1c"/><stop offset="0.6" stop-color="#ec8219"/><stop offset="0.81" stop-color="#f68f18"/><stop offset="1" stop-color="#fa9317"/></linearGradient><linearGradient id="Безымянный_градиент_324" x1="325.96" y1="338.16" x2="330.34" y2="362.03" gradientUnits="userSpaceOnUse"><stop offset="0" stop-color="#9f2718"/><stop offset="0.49" stop-color="#cd5e17"/><stop offset="1" stop-color="#fa9317"/></linearGradient><linearGradient id="Безымянный_градиент_324-2" x1="288.21" y1="329.21" x2="290.81" y2="343.34" xlink:href="#Безымянный_градиент_324"/><linearGradient id="Безымянный_градиент_370" x1="325.13" y1="270.44" x2="446.28" y2="471.58" gradientUnits="userSpaceOnUse"><stop offset="0" stop-color="#ffbd19"/><stop offset="0.2" stop-color="#fdb919"/><stop offset="0.4" stop-color="#f8ae1a"/><stop offset="0.59" stop-color="#f09b1c"/><stop offset="0.77" stop-color="#e4801f"/><stop offset="0.95" stop-color="#d45e22"/><stop offset="1" stop-color="#d05423"/></linearGradient><linearGradient id="Безымянный_градиент_311" x1="314.38" y1="236.28" x2="348.9" y2="277.15" gradientUnits="userSpaceOnUse"><stop offset="0" stop-color="#f8f5ee"/><stop offset="0.08" stop-color="#f8f4ea"/><stop offset="0.15" stop-color="#faf0df"/><stop offset="0.22" stop-color="#fce9cc"/><stop offset="0.29" stop-color="#ffe0b2"/><stop offset="0.29" stop-color="#ffdfb0"/><stop offset="0.36" stop-color="#f2cfae"/><stop offset="0.47" stop-color="#e2bbac"/><stop offset="0.6" stop-color="#d6acaa"/><stop offset="0.75" stop-color="#cfa4a9"/><stop offset="1" stop-color="#cda1a9"/></linearGradient><linearGradient id="Безымянный_градиент_256" x1="310.79" y1="228.76" x2="333.29" y2="266.13" gradientUnits="userSpaceOnUse"><stop offset="0" stop-color="#f7f5ee"/><stop offset="1" stop-color="#bcc0cf"/></linearGradient><linearGradient id="Безымянный_градиент_295" x1="314.38" y1="237.7" x2="323.82" y2="253.36" gradientUnits="userSpaceOnUse"><stop offset="0" stop-color="#00cbb8"/><stop offset="0.5" stop-color="#00a094"/><stop offset="1" stop-color="#007d8a"/></linearGradient><linearGradient id="Безымянный_градиент_307" x1="317.24" y1="242.88" x2="320.34" y2="248.03" gradientUnits="userSpaceOnUse"><stop offset="0" stop-color="#005a6d"/><stop offset="1" stop-color="#004561"/></linearGradient></defs><title>left-yellow-big-monster</title><g class="cls-1"><g id="Слой_1" data-name="Слой 1"><path class="cls-2" d="M332.54,337.26a55.56,55.56,0,0,0,10,11,45.53,45.53,0,0,0,12,7,93.48,93.48,0,0,1-6-22c-.6-4.22-.82-8.11-3-13a33.68,33.68,0,0,0-8-11q-1,13.5-2,27c-4.07-6.49-8.1-13.48-12-21q-2.1-4-4-8c-1.43,4.24-2.81,8.91-4,14a151.28,151.28,0,0,0-3,17,191.2,191.2,0,0,1-10-19c-1.89-4.14-3.55-8.15-5-12a85.38,85.38,0,0,0-2,10c-1.48,10.58-.64,19-1,19s-.4-2.91-1-7c-1.24-8.39-2.62-10.52-4-19-.28-1.73-.69-4.5-1-8a163.57,163.57,0,0,0-2,24h0a122.91,122.91,0,0,0-.26,12.61c.05,1.71.14,3.38.26,5,.13-.45,1.12-3.73,4-4.62a5.4,5.4,0,0,1,3,0c4,1.17,5.8,7,7,10,1.67,4.27,4.95,10,12,16v-27c2.21,2.43,3.88,4.53,5,6,3.37,4.43,4.25,6.48,7,9a23.42,23.42,0,0,0,6,4q-.39-7.33-1-15c-.3-3.73-.64-7.4-1-11C329.46,332.8,330.79,334.89,332.54,337.26Z" transform="translate(-281.48 -173.68)"/><path class="cls-3" d="M323.54,317.88c2.6,7,5.09,12.81,7,17,8.26,18.14,12.91,22.53,15,24.32a39.06,39.06,0,0,0,12,7,122.68,122.68,0,0,1-6-22c-.85-4.89-1.12-8.32-3-13a39.5,39.5,0,0,0-9-13.32q-2,9-4,18a51.62,51.62,0,0,0-12-18Z" transform="translate(-281.48 -173.68)"/><path class="cls-4" d="M313.54,339.88c-2.69-4.34-5.38-9-8-14q-2.15-4.08-4-8-.51,7-1,14-.51,8-1,16a33.79,33.79,0,0,0,2,5,36.28,36.28,0,0,0,11,13c.43-3.13.78-6.47,1-10A133.17,133.17,0,0,0,313.54,339.88Z" transform="translate(-281.48 -173.68)"/><path class="cls-5" d="M328.54,330.88a122.68,122.68,0,0,0-5-13,66.8,66.8,0,0,0-2,13,68.31,68.31,0,0,0,3,24,28,28,0,0,0,3,3c2.79,2.4,4.19,3.6,5,3.32C335.16,360.29,333,344.84,328.54,330.88Z" transform="translate(-281.48 -173.68)"/><path class="cls-6" d="M294.54,339.88a45,45,0,0,1-5-13,44.27,44.27,0,0,1-1-10,114.8,114.8,0,0,0-2,17c-.16,3.53-.14,6.88,0,10a7.3,7.3,0,0,1,2-3c1.13-1,3.48-2.43,5.24-1.57A2.58,2.58,0,0,1,294.54,339.88Z" transform="translate(-281.48 -173.68)"/><path class="cls-7" d="M393.54,173.88a129.76,129.76,0,0,0-31,2,101.76,101.76,0,0,0-24,7,87.39,87.39,0,0,0-30,21c-9.51,10.35-13.83,20.42-17,28-9.17,21.89-9.56,41.42-10,63-.09,4.43-.08,8,0,11.47.09,3.07.25,8.72,1,15.53,1.23,11.59,3.6,22.06,4,22,.17,0-.1-1.92-.26-5.4a96.91,96.91,0,0,1,.26-12.6h0a163.46,163.46,0,0,1,2-24c.31,3.49.72,6.27,1,8,1.38,8.47,2.76,10.6,4,19,.6,4.08.78,7,1,7s-.48-8.42,1-19a85,85,0,0,1,2-10c1.45,3.84,3.11,7.86,5,12a192.32,192.32,0,0,0,10,19,151.28,151.28,0,0,1,3-17c1.19-5.09,2.57-9.77,4-14q1.9,3.94,4,8c3.9,7.51,7.93,14.51,12,21q1-13.5,2-27a33.57,33.57,0,0,1,8,11c2.18,4.89,2.4,8.77,3,13a93.74,93.74,0,0,0,6,22,45.81,45.81,0,0,1-12-7,55.84,55.84,0,0,1-10-11c-1.75-2.37-3.08-4.46-4-6,.36,3.6.7,7.27,1,11q.61,7.65,1,15a24,24,0,0,1-6-4c-2.75-2.52-3.63-4.57-7-9-1.12-1.48-2.79-3.58-5-6v27c-7.05-6-10.33-11.74-12-16-1.2-3-3-8.84-7-10a5.21,5.21,0,0,0-2.22-.19c0,1.2,0,3.29.22,7.19.47,9,1,14,1,14,1.18,11.22,1.77,16.83,3,25,.37,2.46,2.75,18.18,6,32,3.65,15.51,10.82,46.3,32,77,13.49,19.55,20.23,29.33,30,30,29.1,2,54.13-78.83,56-85Q406.54,306.37,393.54,173.88Z" transform="translate(-281.48 -173.68)"/><g class="cls-8"><path class="cls-9" d="M333.54,223.88a20.51,20.51,0,0,1,15,9,25.26,25.26,0,0,1,4,9,34,34,0,0,1,0,16c-.8,3.73-1.89,8.86-6,14a26.36,26.36,0,0,1-13,9c-2.31.68-7.86,2.34-14,0a21.27,21.27,0,0,1-9-7,28.91,28.91,0,0,1-6-13,33.41,33.41,0,0,1,4-23,28,28,0,0,1,11-11A23.94,23.94,0,0,1,333.54,223.88Z" transform="translate(-281.48 -173.68)"/></g><path class="cls-10" d="M328.54,218.88a20.51,20.51,0,0,1,15,9,25.26,25.26,0,0,1,4,9,34,34,0,0,1,0,16c-.8,3.73-1.89,8.86-6,14a26.36,26.36,0,0,1-13,9c-2.31.68-7.86,2.34-14,0a21.27,21.27,0,0,1-9-7,28.91,28.91,0,0,1-6-13,33.41,33.41,0,0,1,4-23,28,28,0,0,1,11-11A23.94,23.94,0,0,1,328.54,218.88Z" transform="translate(-281.48 -173.68)"/><path class="cls-11" d="M309.54,228.88a17.84,17.84,0,0,1,5-4,17.05,17.05,0,0,1,8-2c6.14,0,10.36,3.61,12,5a22.68,22.68,0,0,1,7,11,24.54,24.54,0,0,1,0,14,24,24,0,0,1-11,14c-2,1.08-9.16,5.08-17,2a18.83,18.83,0,0,1-10-10c-2.28-5.35-1.18-9.95,1-19C306,233.86,307.67,231,309.54,228.88Z" transform="translate(-281.48 -173.68)"/><path class="cls-12" d="M319.54,228.88a9.17,9.17,0,0,1,5,1c3.09,1.65,4.21,4.79,5,7a17.91,17.91,0,0,1,1,7,16.3,16.3,0,0,1-4,10,13.13,13.13,0,0,1-6,4c-.48.14-6.68,1.88-11-2-4-3.61-3.32-9.37-3-12a18.22,18.22,0,0,1,3-8C310.6,234.3,314,229.25,319.54,228.88Z" transform="translate(-281.48 -173.68)"/><path class="cls-13" d="M319.54,240.88a4.39,4.39,0,0,1,3,3,4.34,4.34,0,0,1-2,5,4.6,4.6,0,0,1-6-6A4.33,4.33,0,0,1,319.54,240.88Z" transform="translate(-281.48 -173.68)"/><path class="cls-14" d="M317.54,232.88a3.35,3.35,0,0,1,3,0c1.28.82,1.37,2.75,1,4a4.15,4.15,0,0,1-4,3,3.5,3.5,0,0,1-3-2C313.77,235.91,315.68,233.62,317.54,232.88Z" transform="translate(-281.48 -173.68)"/><path class="cls-2" d="M301.54,329.88" transform="translate(-281.48 -173.68)"/><ellipse class="cls-15" cx="83.56" cy="115.2" rx="4.5" ry="5"/><path class="cls-16" d="M360.54,228.88c1-.53,2.34.3,3,1a4.22,4.22,0,0,1,1,3c0,.43,0,2.6-1,3-1.19.45-2.86-1.8-3-2a4.3,4.3,0,0,1-1-3C359.58,230.49,359.7,229.32,360.54,228.88Z" transform="translate(-281.48 -173.68)"/><path class="cls-17" d="M374.54,212.88a2.51,2.51,0,0,1,2,0,2.37,2.37,0,0,1,1,1,3.53,3.53,0,0,1,0,3,4,4,0,0,1-2,2c-.21.09-2,.86-3,0s-.46-3.06,0-4A3.72,3.72,0,0,1,374.54,212.88Z" transform="translate(-281.48 -173.68)"/><path class="cls-18" d="M328.41,197.31a2.29,2.29,0,0,1,2,0,2.13,2.13,0,0,1,1,2,2.57,2.57,0,0,1-2,2c-1.1.29-2.62,0-3-1S327.21,197.78,328.41,197.31Z" transform="translate(-281.48 -173.68)"/><path class="cls-19" d="M310.54,214.88a1.66,1.66,0,0,0-1.37.52,1.5,1.5,0,0,0,0,2,1.53,1.53,0,0,0,2,0,1.35,1.35,0,0,0,.37-.52A2,2,0,0,0,310.54,214.88Z" transform="translate(-281.48 -173.68)"/><path class="cls-20" d="M298.54,227.88a2.09,2.09,0,0,0-2,0,2.59,2.59,0,0,0-1,1c-.63.87-1.41,2-1,3a2,2,0,0,0,1,1,2.79,2.79,0,0,0,3-1C299.52,230.68,299.59,228.56,298.54,227.88Z" transform="translate(-281.48 -173.68)"/><path class="cls-21" d="M377.54,253.88c-.17,0-.9-.17-2,1a5.24,5.24,0,0,0,0,2,2.71,2.71,0,0,0,1,2,1.88,1.88,0,0,0,2,0C379.78,257.9,379,254.22,377.54,253.88Z" transform="translate(-281.48 -173.68)"/><path class="cls-22" d="M287.91,274.31c-.74-.07-1.32,1.42-1.37,1.57a2.49,2.49,0,0,0,0,2,.76.76,0,0,0,.37.43c.6.23,1.86-.79,2-2C289,275.43,288.51,274.36,287.91,274.31Z" transform="translate(-281.48 -173.68)"/><path class="cls-23" d="M381.54,304.88a1.7,1.7,0,0,1,1,1,2.93,2.93,0,0,1,0,2c-.24,1-.4,1.65-1,2a2.34,2.34,0,0,1-3-1c-.61-1.27.6-2.58,1-3S380.68,304.65,381.54,304.88Z" transform="translate(-281.48 -173.68)"/><path class="cls-24" d="M307.54,371.88a2.18,2.18,0,0,1,2,2,2.13,2.13,0,0,1-1,2,2.23,2.23,0,0,1-3-1A2.32,2.32,0,0,1,307.54,371.88Z" transform="translate(-281.48 -173.68)"/><path class="cls-25" d="M304.54,397.88a2.32,2.32,0,0,1,1,2c0,.09,0,1.67-1,2-.81.26-1.65-.5-2-1-.61-.85-.84-2.36,0-3A1.86,1.86,0,0,1,304.54,397.88Z" transform="translate(-281.48 -173.68)"/><path class="cls-26" d="M322.61,399.8c-.48-.53-2.3,0-2.31,0h0a3,3,0,0,0-.76,1.54,1.72,1.72,0,0,0,1.53,1.54C322.3,402.85,323.16,400.42,322.61,399.8Z" transform="translate(-281.48 -173.68)"/><path class="cls-27" d="M345.54,383.88a4.58,4.58,0,0,1,2,0,4.13,4.13,0,0,1,2,1c1.07,1.05,1,2.59,1,4a6.34,6.34,0,0,1-1,4,5,5,0,0,1-4,2c-2.48-.16-3.74-2.48-4-3a5.89,5.89,0,0,1,0-5A5.7,5.7,0,0,1,345.54,383.88Z" transform="translate(-281.48 -173.68)"/><path class="cls-28" d="M346.54,384.88a2.49,2.49,0,0,1,2,1,2.41,2.41,0,0,1,0,2,3.15,3.15,0,0,1-2,2,2.78,2.78,0,0,1-3-1,2.65,2.65,0,0,1,0-3A3.1,3.1,0,0,1,346.54,384.88Z" transform="translate(-281.48 -173.68)"/><path class="cls-29" d="M316.91,435a1.75,1.75,0,0,1-1.64.5c-.07,0-1.26-.21-1.38-1s.58-1.18,1-1.39c.71-.34,1.88-.33,2.26.38A1.44,1.44,0,0,1,316.91,435Z" transform="translate(-281.48 -173.68)"/><path class="cls-30" d="M363.54,421.88a1.56,1.56,0,0,1,1,0,1.77,1.77,0,0,1,1,1,2.23,2.23,0,0,1,0,2,2.35,2.35,0,0,1-2,1,2.21,2.21,0,0,1-2-1C361.17,424,361.87,422.55,363.54,421.88Z" transform="translate(-281.48 -173.68)"/><path class="cls-29" d="M331.19,458.87c.16-.05.19,0,.72,0s.57-.05.73,0a1.29,1.29,0,0,1,.72.72,1.62,1.62,0,0,1,0,1.45,1.81,1.81,0,0,1-2.89,0,1.58,1.58,0,0,1,0-1.45A1.26,1.26,0,0,1,331.19,458.87Z" transform="translate(-281.48 -173.68)"/><path class="cls-29" d="M341.19,462c.1,0,.12,0,.44,0s.34,0,.43,0a.79.79,0,0,1,.44.43,1,1,0,0,1,0,.87,1.08,1.08,0,0,1-1.74,0,1,1,0,0,1,0-.87A.79.79,0,0,1,341.19,462Z" transform="translate(-281.48 -173.68)"/><path class="cls-26" d="M336.54,474.88a3,3,0,0,1,1,0h0s1,.52,1,1-1.08,1.25-2,1c-.42-.12-1-.49-1-1S336.11,475,336.54,474.88Z" transform="translate(-281.48 -173.68)"/><path class="cls-31" d="M354.54,475.88a2.19,2.19,0,0,1,2,0c.76.58.66,2.08,0,3a2.45,2.45,0,0,1-2,1,2.17,2.17,0,0,1-2-2C352.55,476.58,354.16,476,354.54,475.88Z" transform="translate(-281.48 -173.68)"/></g></g></svg>