<svg id="Слой_1" data-name="Слой 1" xmlns="http://www.w3.org/2000/svg" xmlns:xlink="http://www.w3.org/1999/xlink" viewBox="0 0 58.63 112"><defs><style>.cls-1{fill:#10123f;}.cls-2{fill:#41242f;}.cls-3{fill:url(#Безымянный_градиент_18);}</style><linearGradient id="Безымянный_градиент_18" x1="347.08" y1="312.15" x2="359.24" y2="362.4" gradientUnits="userSpaceOnUse"><stop offset="0" stop-color="#366199"/><stop offset="1" stop-color="#1e1756"/></linearGradient></defs><title>right-dark-blue-flying-monster</title><polygon class="cls-1" points="43 106 42 110 39 105 43 106"/><path class="cls-1" d="M356.46,399.65a10.91,10.91,0,0,0-2,3c-.76,1.72-.78,3-1,3s-.57-1.48-1-8Z" transform="translate(-320.46 -293.65)"/><polygon class="cls-1" points="22.33 53.66 20.14 53.36 20.06 54.54 22.33 53.66"/><path class="cls-1" d="M349.46,397.65a7.23,7.23,0,0,0-3,1c-2,1.23-2.71,3.14-3,3s.67-2.19,1-5a16.93,16.93,0,0,0,0-4Z" transform="translate(-320.46 -293.65)"/><path class="cls-1" d="M341.4,391.65h-8a32.57,32.57,0,0,0,3-3,33.79,33.79,0,0,0,3-4C340.06,387,340.73,389.32,341.4,391.65Z" transform="translate(-320.46 -293.65)"/><path class="cls-1" d="M335.46,382.65h-8a17.49,17.49,0,0,0,4-3,17.79,17.79,0,0,0,3-4C334.79,378,335.13,380.32,335.46,382.65Z" transform="translate(-320.46 -293.65)"/><path class="cls-1" d="M331.46,370.65h-9a31.67,31.67,0,0,0,9-6c.35-.33.68-.66,1-1C332.13,366,331.79,368.32,331.46,370.65Z" transform="translate(-320.46 -293.65)"/><path class="cls-1" d="M329.46,360.65c-.88.13-1.14-1-3-2-2.91-1.54-6-.66-6-1s2.8-.44,6-2,4.22-3.41,5-3C332.89,353.4,331.56,360.34,329.46,360.65Z" transform="translate(-320.46 -293.65)"/><path class="cls-1" d="M329.46,345.65c-.73.16-1-.81-3-2-2.65-1.61-5-1.62-5-2s2.44.19,5-1,3.24-3.27,4-3C331.84,338.13,331.34,345.23,329.46,345.65Z" transform="translate(-320.46 -293.65)"/><path class="cls-1" d="M329.81,333c-.52-.12,0-1.59-1-3-1.59-2.27-5.38-2.06-5.35-2.35s3,.42,6.35-.65c1.9-.61,2.57-1.33,3-1C333.94,326.86,331,333.26,329.81,333Z" transform="translate(-320.46 -293.65)"/><path class="cls-1" d="M334.46,321.65c-.52-.16-.13-1.54-1-3-1.47-2.5-5-2.61-5-3s2.28-.43,10,0C335.94,320.92,334.92,321.79,334.46,321.65Z" transform="translate(-320.46 -293.65)"/><path class="cls-1" d="M340.46,311.65c-.75-.36-.2-1.62-1-4-1-3.1-3.23-4.77-3-5s1.9,2,5,3c2.39.8,3.64.25,4,1C346.19,308.17,342,312.38,340.46,311.65Z" transform="translate(-320.46 -293.65)"/><path class="cls-1" d="M350,303.15c-.51-.62.37-1.55,0-3a5.11,5.11,0,0,0-3-3,13.47,13.47,0,0,1,5,1c1.17.48,4.08,1.67,4,3C355.86,302.85,351,304.34,350,303.15Z" transform="translate(-320.46 -293.65)"/><path class="cls-1" d="M360.46,300.65c-.21-.42.4-.91,1-2a9,9,0,0,0,1-5,18.34,18.34,0,0,0,2,4c.7,1.05,1.14,1.48,1,2C365.09,301.07,360.93,301.6,360.46,300.65Z" transform="translate(-320.46 -293.65)"/><path class="cls-1" d="M368.46,302.65c0-.34,1.11-.17,2-1a3.94,3.94,0,0,0,1-3,5.77,5.77,0,0,1,2,3c.19.7.4,1.5,0,2C372.47,304.9,368.4,303.32,368.46,302.65Z" transform="translate(-320.46 -293.65)"/><polygon class="cls-1" points="22.06 51.46 19.87 51.16 19.79 52.34 22.06 51.46"/><polygon class="cls-1" points="22.06 55.46 19.87 55.16 19.79 56.34 22.06 55.46"/><polygon class="cls-1" points="22.06 49.46 19.87 49.16 19.79 50.34 22.06 49.46"/><polygon class="cls-1" points="22.06 57.46 19.87 57.16 19.79 58.34 22.06 57.46"/><polygon class="cls-1" points="22.06 52.46 19.87 52.16 19.79 53.34 22.06 52.46"/><polygon class="cls-1" points="21.89 59.07 19.73 59.57 20.07 60.71 21.89 59.07"/><polygon class="cls-1" points="22 59.93 19.85 60.43 20.19 61.57 22 59.93"/><polygon class="cls-1" points="22 61.93 19.85 62.43 20.19 63.57 22 61.93"/><polygon class="cls-1" points="22.16 64 19.95 64 20.02 65.19 22.16 64"/><polygon class="cls-1" points="22.03 66 19.82 66 19.89 67.19 22.03 66"/><polygon class="cls-1" points="22.84 66.89 20.7 67.46 21.08 68.59 22.84 66.89"/><polygon class="cls-1" points="22.03 69 19.82 69 19.89 70.19 22.03 69"/><polygon class="cls-1" points="23.03 72 20.82 72 20.89 73.19 23.03 72"/><polygon class="cls-1" points="22.99 69.9 20.86 70.47 21.24 71.6 22.99 69.9"/><polygon class="cls-1" points="24.03 73 21.82 73 21.89 74.19 24.03 73"/><polygon class="cls-1" points="23.99 73.9 21.86 74.47 22.24 75.6 23.99 73.9"/><polygon class="cls-1" points="22.99 46.9 20.86 47.47 21.24 48.6 22.99 46.9"/><polygon class="cls-1" points="23.74 75.66 21.82 76.75 22.48 77.75 23.74 75.66"/><polygon class="cls-1" points="24.88 76.71 22.96 77.8 23.62 78.79 24.88 76.71"/><polygon class="cls-1" points="24.68 78.24 22.76 79.33 23.41 80.33 24.68 78.24"/><polygon class="cls-1" points="25.88 78.71 23.96 79.8 24.62 80.79 25.88 78.71"/><polygon class="cls-1" points="26.28 80.34 24.07 80.3 24.13 81.49 26.28 80.34"/><polygon class="cls-1" points="26.88 81.71 24.96 82.8 25.62 83.79 26.88 81.71"/><polygon class="cls-1" points="28.32 83.51 26.13 83.2 26.05 84.39 28.32 83.51"/><polygon class="cls-1" points="28.88 83.71 26.96 84.8 27.62 85.79 28.88 83.71"/><polygon class="cls-1" points="31.14 87.35 30.16 89.33 31.25 89.79 31.14 87.35"/><polygon class="cls-1" points="29.88 85.71 27.96 86.8 28.62 87.79 29.88 85.71"/><polygon class="cls-1" points="30.88 86.71 28.96 87.8 29.62 88.79 30.88 86.71"/><polygon class="cls-1" points="32.35 88.53 31.38 90.51 32.47 90.97 32.35 88.53"/><polygon class="cls-1" points="33.35 89.53 32.38 91.51 33.47 91.97 33.35 89.53"/><polygon class="cls-1" points="34.35 90.53 33.38 92.51 34.47 92.97 34.35 90.53"/><polygon class="cls-1" points="35.35 90.53 34.38 92.51 35.47 92.97 35.35 90.53"/><polygon class="cls-1" points="36.35 91.53 35.38 93.51 36.47 93.97 36.35 91.53"/><polygon class="cls-1" points="37.33 92.07 36.35 94.06 37.45 94.51 37.33 92.07"/><polygon class="cls-1" points="38.36 92.5 37.38 94.51 38.47 94.97 38.36 92.5"/><polygon class="cls-1" points="40.35 92.53 39.38 94.51 40.47 94.97 40.35 92.53"/><polygon class="cls-1" points="42.35 93.53 41.38 95.51 42.47 95.97 42.35 93.53"/><polygon class="cls-1" points="44.35 93.53 43.38 95.51 44.47 95.97 44.35 93.53"/><polygon class="cls-1" points="41.35 93.53 40.38 95.51 41.47 95.97 41.35 93.53"/><polygon class="cls-1" points="45.35 93.53 44.38 95.51 45.47 95.97 45.35 93.53"/><polygon class="cls-1" points="46 93.82 45.47 95.97 46.65 96.18 46 93.82"/><polygon class="cls-1" points="50.52 92.52 50.96 94.69 52.11 94.38 50.52 92.52"/><polygon class="cls-1" points="43.41 94.24 42.89 96.38 44.06 96.59 43.41 94.24"/><polygon class="cls-1" points="46.86 93.57 46.34 95.72 47.51 95.93 46.86 93.57"/><polygon class="cls-1" points="48.86 93.57 48.34 95.72 49.51 95.93 48.86 93.57"/><polygon class="cls-1" points="39 92.82 38.47 94.97 39.65 95.18 39 92.82"/><polygon class="cls-1" points="49.37 92.71 49.8 94.88 50.95 94.57 49.37 92.71"/><polygon class="cls-1" points="51.13 90.67 51.57 92.83 52.72 92.52 51.13 90.67"/><polygon class="cls-1" points="48.13 93.67 48.57 95.83 49.72 95.52 48.13 93.67"/><polygon class="cls-1" points="51.71 89.17 53.12 90.87 53.99 90.05 51.71 89.17"/><polygon class="cls-1" points="52.5 84.77 54.66 85.26 54.85 84.08 52.5 84.77"/><polygon class="cls-1" points="51.79 87.9 53.2 89.6 54.06 88.78 51.79 87.9"/><polygon class="cls-1" points="52.79 86.9 54.2 88.6 55.06 87.78 52.79 86.9"/><polygon class="cls-1" points="51.75 85.85 53.91 86.34 54.1 85.16 51.75 85.85"/><polygon class="cls-1" points="51.75 82.85 53.91 83.34 54.1 82.16 51.75 82.85"/><polygon class="cls-1" points="49.4 80.31 50.6 78.46 49.56 77.88 49.4 80.31"/><polygon class="cls-1" points="50.91 81.72 52.94 80.85 52.41 79.78 50.91 81.72"/><polygon class="cls-1" points="49.91 80.72 51.94 79.85 51.41 78.78 49.91 80.72"/><polygon class="cls-1" points="52.6 84.09 54.63 83.23 54.1 82.16 52.6 84.09"/><polygon class="cls-1" points="50.91 80.72 52.94 79.85 52.41 78.78 50.91 80.72"/><polygon class="cls-1" points="48.33 78.97 49.52 77.11 48.48 76.53 48.33 78.97"/><polygon class="cls-1" points="46.43 78.81 45.62 76.75 44.54 77.26 46.43 78.81"/><polygon class="cls-1" points="47.35 78.21 47.46 76 46.27 76.02 47.35 78.21"/><polygon class="cls-1" points="45.87 79.78 45.06 77.72 43.98 78.23 45.87 79.78"/><polygon class="cls-1" points="22.76 47.81 20.57 48.13 20.82 49.3 22.76 47.81"/><polygon class="cls-1" points="45.09 80.54 43.55 78.96 42.75 79.84 45.09 80.54"/><polygon class="cls-1" points="45.33 80.91 43.23 80.22 42.93 81.38 45.33 80.91"/><polygon class="cls-1" points="45.12 81.86 43.02 81.17 42.73 82.33 45.12 81.86"/><polygon class="cls-1" points="46.19 82.74 44.01 83.07 44.26 84.23 46.19 82.74"/><polygon class="cls-1" points="47.45 82.53 45.78 83.98 46.62 84.83 47.45 82.53"/><polygon class="cls-1" points="23.2 45.3 21 45.16 21 46.34 23.2 45.3"/><polygon class="cls-1" points="23.2 44.3 21 44.16 21 45.34 23.2 44.3"/><polygon class="cls-1" points="24.48 41.82 22.41 41.04 22.06 42.18 24.48 41.82"/><polygon class="cls-1" points="24.13 42.95 22.06 42.18 21.72 43.32 24.13 42.95"/><polygon class="cls-1" points="23.02 43.62 20.95 42.85 20.61 43.99 23.02 43.62"/><polygon class="cls-1" points="25.13 38.95 23.06 38.18 22.72 39.32 25.13 38.95"/><polygon class="cls-1" points="25.13 39.95 23.06 39.18 22.72 40.32 25.13 39.95"/><polygon class="cls-1" points="24.13 40.95 22.06 40.18 21.72 41.32 24.13 40.95"/><polygon class="cls-1" points="25.13 37.95 23.06 37.18 22.72 38.32 25.13 37.95"/><polygon class="cls-1" points="25.98 37.37 24.32 35.91 23.59 36.86 25.98 37.37"/><polygon class="cls-1" points="27.12 35.48 25.45 34.02 24.73 34.97 27.12 35.48"/><polygon class="cls-1" points="27.12 33.48 25.45 32.02 24.73 32.97 27.12 33.48"/><polygon class="cls-1" points="28.39 32.42 26.73 30.97 26 31.91 28.39 32.42"/><polygon class="cls-1" points="29.12 30.48 27.45 29.02 26.73 29.97 29.12 30.48"/><polygon class="cls-1" points="28.89 31.77 27.66 29.93 26.71 30.65 28.89 31.77"/><polygon class="cls-1" points="30.01 29.67 28.79 27.83 27.84 28.55 30.01 29.67"/><polygon class="cls-1" points="30.01 28.67 28.79 26.83 27.84 27.55 30.01 28.67"/><polygon class="cls-1" points="31.01 27.67 29.79 25.83 28.84 26.55 31.01 27.67"/><polygon class="cls-1" points="32.01 25.67 30.79 23.83 29.84 24.55 32.01 25.67"/><polygon class="cls-1" points="33.67 23.96 33.08 21.83 31.95 22.23 33.67 23.96"/><polygon class="cls-1" points="32.78 24.81 32.19 22.69 31.07 23.08 32.78 24.81"/><polygon class="cls-1" points="34.78 22.81 34.19 20.69 33.06 21.08 34.78 22.81"/><polygon class="cls-1" points="35.78 21.81 35.19 19.69 34.06 20.08 35.78 21.81"/><polygon class="cls-1" points="36.33 21.06 36.56 18.86 35.38 18.81 36.33 21.06"/><polygon class="cls-1" points="37.15 20.68 37.39 18.49 36.2 18.43 37.15 20.68"/><polygon class="cls-1" points="38.28 19.88 38.52 17.68 37.33 17.63 38.28 19.88"/><polygon class="cls-1" points="41.07 18.59 41.31 16.39 40.12 16.34 41.07 18.59"/><polygon class="cls-1" points="42.26 18.64 42.5 16.44 41.31 16.39 42.26 18.64"/><polygon class="cls-1" points="40.31 18.65 40.09 16.45 38.91 16.64 40.31 18.65"/><polygon class="cls-1" points="45.96 17.93 46.79 15.88 45.66 15.51 45.96 17.93"/><polygon class="cls-1" points="44.29 18.18 45.11 16.13 43.98 15.76 44.29 18.18"/><polygon class="cls-1" points="47.67 17.96 48.49 15.91 47.36 15.54 47.67 17.96"/><polygon class="cls-1" points="48.67 18.96 49.49 16.91 48.36 16.54 48.67 18.96"/><polygon class="cls-1" points="49.2 18.76 50.78 17.21 49.89 16.41 49.2 18.76"/><polygon class="cls-1" points="50.09 19.55 51.66 18 50.78 17.21 50.09 19.55"/><polygon class="cls-1" points="50.59 20.21 52.78 19.92 52.55 18.75 50.59 20.21"/><polygon class="cls-1" points="50.83 23.48 53.02 23.19 52.79 22.02 50.83 23.48"/><polygon class="cls-1" points="50.74 20.77 52.88 21.33 53.11 20.17 50.74 20.77"/><polygon class="cls-1" points="51.74 24.77 53.88 25.33 54.11 24.17 51.74 24.77"/><polygon class="cls-1" points="50.85 26.08 52.99 26.64 53.22 25.47 50.85 26.08"/><path class="cls-2" d="M374.46,321.65c-.64.26-.54,1.37-1,3a15.33,15.33,0,0,1-2,4c.1.07,1.11-1,5-6C375.83,322,375,321.42,374.46,321.65Z" transform="translate(-320.46 -293.65)"/><path class="cls-2" d="M375.46,320.65v7a14.83,14.83,0,0,0,2-6,14.26,14.26,0,0,0,0-3Z" transform="translate(-320.46 -293.65)"/><path class="cls-2" d="M374.46,320.65a4,4,0,0,1,2,1,4.82,4.82,0,0,1,1,5c.23-.32,1.91-2.7,1-5-.16-.41-.75-1.88-2-2A2.57,2.57,0,0,0,374.46,320.65Z" transform="translate(-320.46 -293.65)"/><path class="cls-2" d="M375.17,318.82c-.92.44-.88,1.21-2,2a5.44,5.44,0,0,1-1.74.79,7.32,7.32,0,0,1-3.26.21,6.28,6.28,0,0,0,4,1c3.07-.36,5.39-3.28,5-4C377,318.43,375.9,318.47,375.17,318.82Z" transform="translate(-320.46 -293.65)"/><path class="cls-2" d="M373.2,322.52l-5,5q8.32-4.11,8-5Q376,322,373.2,322.52Z" transform="translate(-320.46 -293.65)"/><path class="cls-3" d="M372.46,319.65c.23-2.62.35-3.93,0-5a7.27,7.27,0,0,0-4-4c-3.11-1.27-6.26.17-8,1-2.59,1.23-7.94,4.51-13,15a57.87,57.87,0,0,0-6,30c.37,4.94,1.14,13.7,7,22,3.89,5.51,7.6,7.38,9,8,1.71.77,9.67,4.33,14,0,3.35-3.35,2.94-9.84,0-13-1-1-3.3-2.88-5-2s-2.06,3.91-1,5c.87.9,2.41.11,3,1a2.43,2.43,0,0,1-1,3c-1.61.81-5-1.24-6-4-1.21-3.22.72-7.45,4-9,3.65-1.73,7.39.61,8,1,3.43,2.15,4.42,5.81,5,8a19.47,19.47,0,0,1-14,24c-13.08,3.35-24.56-9.36-26-11-5.65-6.44-7.08-13.06-9-22-1.38-6.44-4.31-21,1-38,1.61-5.15,4.12-12.88,11-20a30.58,30.58,0,0,1,14-9c3.2-.9,10.19-2.86,16,1a16.57,16.57,0,0,1,6,8,18.83,18.83,0,0,1,1,10c-.5,2.73-1.35,3.59-2,4-1.26.81-3.2.9-4,0C371.92,323,372.23,322.3,372.46,319.65Z" transform="translate(-320.46 -293.65)"/><path class="cls-1" d="M375.46,320.65c.4,0,1.45-3.43,1-7-.56-4.48-3.47-9.2-7-11-7.36-3.75-19,4.42-25,11-12.85,14-11.8,33.3-11,48,.81,14.88,4.49,20.84,7,24a29.07,29.07,0,0,0,15,10c3,.79,9.58,2.53,15-1a16.21,16.21,0,0,0,7-12,14.28,14.28,0,0,0-2-9,9.3,9.3,0,0,0-3-3,6,6,0,0,0-4-1c-1.48.24-3.1,1.24-3,2,.07.57,1.12,1.06,2,1s1.32-.83,2-1c1.52-.38,3.93,2.39,5,5a13.09,13.09,0,0,1-3,14c-4,3.78-9.51,3.24-12,3-8.2-.8-13.52-6.4-15-8-7.26-7.87-7.59-17.78-8-30-.23-7-.49-18.37,5-31,4-9.26,8.71-13.63,12-16,2.57-1.85,6.87-4.85,12-4a10.54,10.54,0,0,1,6,3c1.79,1.9,2.33,4.17,3,7C375.33,318.32,375.14,320.63,375.46,320.65Z" transform="translate(-320.46 -293.65)"/></svg>