<svg id="Слой_1" data-name="Слой 1" xmlns="http://www.w3.org/2000/svg" viewBox="0 0 1958.14 1958.17"><defs><style>.cls-1{fill:#ff6c37;}.cls-2{fill:#fff;}</style></defs><title>postman</title><path class="cls-1" d="M1754,380.69c-330.49-427.95-945.33-507-1373.28-176.48s-507,945.32-176.48,1373.27,945.32,507,1373.27,176.49l.23-.18c427.72-330.55,506.65-945.23,176.23-1373.1Z"/><path class="cls-2" d="M1309.3,623.86,896.48,1040,779.82,920c406.3-406.3,447.09-369.59,529.51-296.16Z"/><path class="cls-1" d="M896.48,1051.33a14.68,14.68,0,0,1-9.79-4.07L769.21,929.78a14.69,14.69,0,0,1,0-20.41c400.58-400.58,455.25-381.82,549.88-296.16a13.09,13.09,0,0,1,4.9,10.62,11.47,11.47,0,0,1-4.07,10.61L907.1,1047.29a15.46,15.46,0,0,1-10.62,4.07ZM800.2,920l96.28,96.28L1288.1,624.65a88.14,88.14,0,0,0-115.87-19.58C1101.25,636.89,987,734,800.2,920Z"/><path class="cls-2" d="M1014.79,1155,902.2,1040,1315,632c111,108.52-53.85,289.64-300.23,523Z"/><path class="cls-1" d="M1014.79,1169.67a17.07,17.07,0,0,1-9.79-4.07L890,1053a17.17,17.17,0,0,1,0-13.06,15.87,15.87,0,0,1,0-10.62l412.82-412.81a15.49,15.49,0,0,1,21.21,0,126.54,126.54,0,0,1,40.78,97.07c0,110.15-125.66,248.83-339.39,451.19a17.13,17.13,0,0,1-10.62,4.89ZM923.41,1040l92.18,92.15c163.16-154.2,319-313.29,319.81-421a93.05,93.05,0,0,0-21.21-62.82Z"/><path class="cls-2" d="M783.07,922.47l81.59,81.59a4.9,4.9,0,0,1,.44,6.91,4.57,4.57,0,0,1-.44.44L692.5,1048.12a16.3,16.3,0,0,1-14.68-27.75l100.35-99.53s3.27,0,4.9,1.63Z"/><path class="cls-1" d="M688.44,1064.43a31.83,31.83,0,0,1-26.93-15.52,31,31,0,0,1,5.72-36.71l99.53-100.35a19.59,19.59,0,0,1,26.1,0l81.59,81.6a18,18,0,0,1,4.9,18,18.93,18.93,0,0,1-13.86,13.06l-172.16,36.71Zm91.38-124-92.18,92.18L840.22,1000Z"/><path class="cls-2" d="M1528.79,394.58a158.28,158.28,0,1,0-28.55,249.66l-111-111Z"/><path class="cls-1" d="M1418.65,681.74a173.12,173.12,0,0,1-121-294.5,174.69,174.69,0,0,1,244.76,0,13.85,13.85,0,0,1,4.9,10.61,14.08,14.08,0,0,1-4.9,10.62L1410.2,533.3,1510.55,632a13.76,13.76,0,0,1,4.07,12.24,14.66,14.66,0,0,1-6.51,10.61,177.56,177.56,0,0,1-89.74,26.93Zm0-316.56a143.37,143.37,0,1,0,57.12,275l-96.29-96.29a13.06,13.06,0,0,1,0-20.4l127.28-128.11a146.36,146.36,0,0,0-88.11-30.19Z"/><path class="cls-2" d="M1531.24,397,1391.72,535.71l111,111a168.75,168.75,0,0,0,31-22.85,163.16,163.16,0,0,0-2.44-226.8Z"/><path class="cls-1" d="M1500.21,658.92a12.26,12.26,0,0,1-9.79-4.07l-111-111a13.06,13.06,0,0,1,0-20.4l138.69-136.24a14.69,14.69,0,0,1,24.48,0,171.32,171.32,0,0,1,2.47,242.28c-.82.84-1.64,1.66-2.47,2.48A149.5,149.5,0,0,1,1510,658.09a13.15,13.15,0,0,1-9.79.83ZM1410.48,533.3l92.18,92.18a155.92,155.92,0,0,0,18-14.69,144.37,144.37,0,0,0,42.43-102,140.11,140.11,0,0,0-35.09-93Z"/><path class="cls-2" d="M1326.43,641a59.59,59.59,0,0,0-81.59,0L875.28,1009.72l61.19,62,390.79-342.66a60.49,60.49,0,0,0,1.81-85.53c-.85-.89-1.73-1.75-2.64-2.59Z"/><path class="cls-1" d="M933.2,1086.46a14.71,14.71,0,0,1-9.79-4.07l-62-62a14.69,14.69,0,0,1,0-20.41L1231,632a75.08,75.08,0,0,1,128.1,55.47,76.82,76.82,0,0,1-25.3,53.84L943,1084a13.93,13.93,0,0,1-9.79,2.44ZM890,1009.72l40.79,41.61,383.44-333.7A45.06,45.06,0,0,0,1329.71,685a43.81,43.81,0,0,0-13.86-33.44,45.68,45.68,0,0,0-64.47,0Z"/><path class="cls-2" d="M588.91,1429.91a8.27,8.27,0,0,0,0,9.79l16.31,71a21,21,0,0,1-10.16,21.41,19.89,19.89,0,0,1-23.31-2.35L460,1422.05l348.39-351.14H929.13l81.59,81.6a1851.8,1851.8,0,0,1-421.81,277.4Z"/><path class="cls-1" d="M581.57,1549.85a34.49,34.49,0,0,1-24.48-10.62L450.22,1432.36a13.06,13.06,0,0,1-2-18.36,12.7,12.7,0,0,1,2-2L801,1060.33a13.74,13.74,0,0,1,7.34-4.07H929.92a14.68,14.68,0,0,1,9.79,0l81.6,81.59a15.75,15.75,0,0,1-.83,22l-6.51,5.72A1998.47,1998.47,0,0,1,595.43,1434l15.51,66.09a35.21,35.21,0,0,1-33.44,43.23ZM482,1421.75l96.25,97.07a4.34,4.34,0,1,0,6.52-5.72l-16.31-71a22.77,22.77,0,0,1,12.24-26.1,2005.66,2005.66,0,0,0,407.92-262.71l-66.91-66.92H812.44Z"/><path class="cls-2" d="M376,1505.79l81.6-81.6,125.65,125.66L383.34,1536a16.34,16.34,0,0,1-7.34-30.17Z"/><path class="cls-1" d="M585.64,1562.08l-199.09-13.85a31.53,31.53,0,0,1-26.12-20A31.21,31.21,0,0,1,367,1496l81.6-81.6a14.69,14.69,0,0,1,20.41,0l124.83,124.83a13.85,13.85,0,0,1,0,16.31,15.53,15.53,0,0,1-8.17,6.51Zm-199.09-45.67L549.72,1527,460,1443Z"/><path class="cls-2" d="M940.54,1080.76l-164.82,25.31,95.46-94.63Z"/><path class="cls-1" d="M775.72,1121.52a14,14,0,0,1-13.06-8.17,13.76,13.76,0,0,1,0-16.31l94.63-95.46a15.5,15.5,0,0,1,21.2,0l69.39,69.33a13.77,13.77,0,0,1,0,14.69,14.37,14.37,0,0,1-11.41,10.61l-163.16,25.31Zm95.46-88.94-53,53,91.39-13.86Z"/><path class="cls-2" d="M940.54,1080.7l-115,14.69a14.69,14.69,0,0,1-13.86-24.48l59.57-59.57Z"/><path class="cls-1" d="M822.23,1110.93a30.2,30.2,0,0,1-26.1-15.51,29.37,29.37,0,0,1,4.9-35.09l59.56-59.57a15.49,15.49,0,0,1,21.21,0l69.35,69.36a14.68,14.68,0,0,1-9,25.3L828,1110.1Zm0-30.2,86.49-10.61-38.34-38.34-49,49ZM1532,490.86a12.23,12.23,0,0,0-15.51-4.89,11.31,11.31,0,0,0-5.69,6.73,11.56,11.56,0,0,0,.79,8.78,35.09,35.09,0,0,1-4.06,36.71,10.34,10.34,0,0,0-3.06,7.74,11.57,11.57,0,0,0,3.06,7.74,8.82,8.82,0,0,0,6.51,0,10.69,10.69,0,0,0,10.62-3.27,56.29,56.29,0,0,0,7.34-59.57Z"/></svg>