<svg xmlns="http://www.w3.org/2000/svg" xmlns:xlink="http://www.w3.org/1999/xlink" viewBox="0 0 734.09 555.16"><defs><style>.cls-1{isolation:isolate;}.cls-113,.cls-114,.cls-115,.cls-144,.cls-145,.cls-146,.cls-2,.cls-37,.cls-5,.cls-6,.cls-7,.cls-8{fill:none;}.cls-2,.cls-39{stroke:#ff6a59;}.cls-105,.cls-108,.cls-113,.cls-114,.cls-2,.cls-37,.cls-39,.cls-5,.cls-6,.cls-7,.cls-77,.cls-8{stroke-miterlimit:10;}.cls-3,.cls-39{fill:#ff6a59;}.cls-4{fill:#00ada5;}.cls-145,.cls-5{stroke:#00ada5;}.cls-6,.cls-7,.cls-8{stroke:#00b0ad;}.cls-7{stroke-dasharray:3.06 3.06 3.06 3.06;}.cls-8{stroke-dasharray:3.06 3.06 3.06 3.06 3.06 3.06;}.cls-9{opacity:0.75;}.cls-12,.cls-31,.cls-9{mix-blend-mode:multiply;}.cls-10{fill:#c7e2de;}.cls-11{fill:#00c1a9;}.cls-12{opacity:0.2;}.cls-105,.cls-13,.cls-89{fill:#37143d;}.cls-14{fill:#0cb;}.cls-15{fill:#00b7d0;}.cls-16{fill:#00eec9;}.cls-17{fill:#00aeb3;}.cls-18{fill:#f0f7f3;}.cls-19{fill:#e2d8ba;}.cls-20{fill:url(#Безымянный_градиент_4);}.cls-21{fill:#ea8e36;}.cls-22{fill:#f1f1e1;}.cls-23{fill:#07618b;}.cls-24{fill:#00a2aa;}.cls-25{fill:#3f557a;}.cls-26{fill:#36728d;}.cls-27{fill:#2f0e0f;}.cls-28{fill:#ff57d1;}.cls-29{fill:#009894;}.cls-30{fill:#fd4674;}.cls-31{opacity:0.4;}.cls-32{fill:#511c58;}.cls-33{fill:url(#Безымянный_градиент_41);}.cls-34{fill:#edbc4f;}.cls-35{fill:#2c2d44;}.cls-36{fill:#808e9c;}.cls-113,.cls-114,.cls-37{stroke:#511c58;}.cls-38{fill:url(#Безымянный_градиент_60);}.cls-39{stroke-width:0.75px;}.cls-40{fill:#fcebdf;}.cls-41{fill:#3a104c;}.cls-42{fill:#edede2;}.cls-43{fill:#66284f;}.cls-44{fill:#00a587;}.cls-45{fill:#ff6703;}.cls-46{fill:#00bab5;}.cls-47{fill:#fff281;}.cls-48{fill:#f4c44d;}.cls-49{fill:#f1aa2d;}.cls-50{fill:#00baba;}.cls-51{fill:#063440;}.cls-52{fill:#d4e3e7;}.cls-53{fill:#223f4d;}.cls-54{fill:url(#Безымянный_градиент_33);}.cls-55{fill:#faf7f3;}.cls-56{fill:#611b64;}.cls-57{fill:#00c9ad;}.cls-58{fill:#242e2f;}.cls-59{fill:#f2eed7;}.cls-60{fill:#00cdb8;}.cls-61{fill:#502046;}.cls-62{fill:#e7e2d8;}.cls-63{fill:#c2b7b3;}.cls-64{fill:#00ccc2;}.cls-65{fill:#00efcd;}.cls-66{fill:#c3cfcc;}.cls-67{fill:#faf3da;}.cls-68{fill:url(#Безымянный_градиент_33-2);}.cls-69{fill:#eedfc7;}.cls-70{fill:#441c48;}.cls-71{fill:#fbf1d6;}.cls-72{fill:#432255;}.cls-73{fill:#00d3d9;}.cls-74{fill:#472340;}.cls-75{fill:url(#Безымянный_градиент_20);}.cls-76{fill:#69a0a7;}.cls-77{fill:#ff7735;stroke:#ffcab3;}.cls-78{fill:#ffcab3;}.cls-79{fill:#ff5e3d;}.cls-80{fill:#f1e6d8;}.cls-81{fill:#618196;}.cls-82{fill:#eccda7;}.cls-83{fill:url(#Безымянный_градиент_63);}.cls-84{fill:#5f2465;}.cls-85{fill:url(#Безымянный_градиент_62);}.cls-86{fill:#e6dee4;}.cls-87{fill:#46174e;}.cls-88{fill:#f2efe3;}.cls-105,.cls-89{stroke:#37143d;}.cls-115,.cls-144,.cls-145,.cls-146,.cls-89,.cls-91{stroke-linecap:round;stroke-linejoin:round;}.cls-90,.cls-91{fill:#efefe2;}.cls-108,.cls-91{stroke:#4d4d4d;}.cls-92{fill:#357981;}.cls-93{fill:#f9d035;}.cls-94{fill:#f9c02b;}.cls-95{fill:#f4ffff;}.cls-96{fill:#84eae5;}.cls-97{fill:#532a43;}.cls-98{fill:url(#Безымянный_градиент_4-2);}.cls-99{fill:#ffdd9c;}.cls-100{fill:#451e00;}.cls-101{fill:#f7f1e5;}.cls-102{fill:#38153f;}.cls-103{fill:url(#Безымянный_градиент_7);}.cls-104{fill:#e6e6e3;}.cls-106{fill:#c6a2cc;}.cls-107,.cls-108{fill:#e7e7db;}.cls-109{fill:#ebeede;}.cls-110{fill:#bec7c4;}.cls-111{fill:#008d9f;}.cls-112{fill:#4dd7bb;}.cls-113{stroke-dasharray:3.28 3.28 3.28 3.28;}.cls-114{stroke-dasharray:3.28 3.28 3.28 3.28 3.28 3.28;}.cls-115{stroke:#b75463;stroke-width:2px;}.cls-116{fill:#b78abd;}.cls-117{fill:#ffeb8a;}.cls-118{fill:#4b195d;}.cls-119{fill:#40284d;}.cls-120{fill:url(#Безымянный_градиент_51);}.cls-121{fill:#00c7d6;}.cls-122{fill:#008fa9;}.cls-123{fill:url(#Безымянный_градиент_54);}.cls-124{fill:#390f47;}.cls-125{fill:#d0dbcc;}.cls-126{fill:#f0e7cb;}.cls-127{fill:#f3e865;}.cls-128{fill:#cdfdc5;}.cls-129{fill:#fbf7b0;}.cls-130{fill:#f0f5b8;}.cls-131{fill:#e4f4a2;}.cls-132{fill:#045885;}.cls-133{fill:#0083ab;}.cls-134{fill:#006d9c;}.cls-135{fill:#044f7b;}.cls-136{fill:#2e2a85;}.cls-137{fill:#3d164b;}.cls-138{fill:#e5ecf1;}.cls-139{fill:#312036;}.cls-140{fill:#ff4242;}.cls-141{fill:#b62b43;}.cls-142{fill:#eef2f0;}.cls-143{fill:#3f1a36;}.cls-144{stroke:#b78abd;}.cls-144,.cls-145,.cls-146{stroke-width:3px;}.cls-146{stroke:#ffd576;}.cls-147{fill:#ffd576;}.cls-148{fill:#f4cd60;}.cls-149{fill:#edac3a;}.cls-150{fill:#e2901a;}.cls-151{fill:#e0932d;}.cls-152{fill:#fd4951;}.cls-153{fill:#854a53;}</style><linearGradient id="Безымянный_градиент_4" x1="667.55" y1="195.87" x2="511.8" y2="351.62" gradientTransform="translate(152.24 -199.8) rotate(19.4)" gradientUnits="userSpaceOnUse"><stop offset="0" stop-color="#fed43a"/><stop offset="1" stop-color="#f68f16"/></linearGradient><linearGradient id="Безымянный_градиент_41" x1="211.8" y1="444.43" x2="211.8" y2="410.31" gradientUnits="userSpaceOnUse"><stop offset="0" stop-color="#ff9835"/><stop offset="0.25" stop-color="#e17535"/><stop offset="0.58" stop-color="#bf4d34"/><stop offset="0.84" stop-color="#ab3534"/><stop offset="1" stop-color="#a32c34"/></linearGradient><linearGradient id="Безымянный_градиент_60" x1="133.39" y1="100.52" x2="133.39" y2="267.31" gradientUnits="userSpaceOnUse"><stop offset="0" stop-color="#ff7949"/><stop offset="0.99" stop-color="#b62b43"/></linearGradient><linearGradient id="Безымянный_градиент_33" x1="383.21" y1="173.78" x2="251.77" y2="305.22" gradientTransform="matrix(1, 0.05, -0.05, 1, 9.53, 44.12)" gradientUnits="userSpaceOnUse"><stop offset="0" stop-color="#ffcf4c"/><stop offset="1" stop-color="#ff7b26"/></linearGradient><linearGradient id="Безымянный_градиент_33-2" x1="494.39" y1="391.43" x2="428.63" y2="457.19" gradientTransform="matrix(1, 0, 0, 1, 0, 0)" xlink:href="#Безымянный_градиент_33"/><linearGradient id="Безымянный_градиент_20" x1="99.82" y1="384.34" x2="214.34" y2="384.34" gradientUnits="userSpaceOnUse"><stop offset="0" stop-color="#ff5f45"/><stop offset="1" stop-color="#a32c34"/></linearGradient><linearGradient id="Безымянный_градиент_63" x1="185.38" y1="26.78" x2="245.42" y2="37.76" gradientTransform="matrix(1, 0, 0, 1, 0, 0)" xlink:href="#Безымянный_градиент_33"/><linearGradient id="Безымянный_градиент_62" x1="243.24" y1="340.77" x2="243.24" y2="517.44" gradientUnits="userSpaceOnUse"><stop offset="0" stop-color="#b78abd"/><stop offset="0.12" stop-color="#a273b1"/><stop offset="0.27" stop-color="#8f5fa7"/><stop offset="0.45" stop-color="#8251a0"/><stop offset="0.65" stop-color="#7a499b"/><stop offset="1" stop-color="#78469a"/></linearGradient><linearGradient id="Безымянный_градиент_4-2" x1="446.3" y1="205.36" x2="436.72" y2="189.2" gradientTransform="matrix(1, 0, 0, 1, 0, 0)" xlink:href="#Безымянный_градиент_4"/><linearGradient id="Безымянный_градиент_7" x1="110.34" y1="67.54" x2="167.36" y2="67.54" gradientUnits="userSpaceOnUse"><stop offset="0.01" stop-color="#f1463d"/><stop offset="1" stop-color="#ff673a"/></linearGradient><linearGradient id="Безымянный_градиент_51" x1="311.33" y1="99.05" x2="311.33" y2="323.08" gradientUnits="userSpaceOnUse"><stop offset="0" stop-color="#00e5c0"/><stop offset="0.24" stop-color="#00cbbd"/><stop offset="0.51" stop-color="#00b5b9"/><stop offset="0.77" stop-color="#00a8b8"/><stop offset="1" stop-color="#00a3b7"/></linearGradient><linearGradient id="Безымянный_градиент_54" x1="308.38" y1="123.35" x2="308.38" y2="334.54" gradientUnits="userSpaceOnUse"><stop offset="0" stop-color="#00e5c0"/><stop offset="0.11" stop-color="#00d0bd"/><stop offset="0.27" stop-color="#00bcba"/><stop offset="0.44" stop-color="#00aeb8"/><stop offset="0.65" stop-color="#00a6b7"/><stop offset="1" stop-color="#00a3b7"/></linearGradient></defs><title>tech</title><g class="cls-1"><g id="Слой_1" data-name="Слой 1"><path class="cls-2" d="M264.25,537.32l.65-81.19c.54-4.92,2.08-11.12,6.85-14.09,4.47-2.79,8.51-.69,12.52-3.33,2.91-1.91,5.87-6.36,5.54-17.73"/><circle class="cls-3" cx="264.25" cy="542.49" r="6.47"/><circle class="cls-4" cx="449.5" cy="536.56" r="5.5"/><path class="cls-5" d="M449.77,434.11c-.12,14.33-.19,24.74-.26,26.74A3.19,3.19,0,0,0,450,463a3.91,3.91,0,0,0,3.13,1.19l5.77-.05a3.66,3.66,0,0,1,2.45,1.08,3.59,3.59,0,0,1,1,2.1l.05,16.68"/><path class="cls-5" d="M462.39,484l-.05,16.68a3.58,3.58,0,0,1-1,2.11,3.68,3.68,0,0,1-2.45,1.07l-5.77-.05A4,4,0,0,0,450,505a3.21,3.21,0,0,0-.51,2.11c.07,2,.14,12.41.26,26.74"/><line class="cls-6" x1="450.11" y1="502.28" x2="450.1" y2="500.78"/><line class="cls-7" x1="450.07" y1="497.72" x2="449.99" y2="487.01"/><polyline class="cls-8" points="449.97 485.48 449.97 484.46 449.9 476.43 449.84 468.65"/><line class="cls-6" x1="449.83" y1="467.13" x2="449.82" y2="465.63"/><g class="cls-9"><path class="cls-10" d="M110,237.92a71.63,71.63,0,0,0-34.44,7,67.31,67.31,0,0,0-29.73,29c-2.8,5.41-8.67,17.17-7.05,32.87a56.31,56.31,0,0,0,11,27.39A57.94,57.94,0,0,0,70.82,351.4a57,57,0,0,0,11,3.91,45.92,45.92,0,0,0,16.43,31.31,46.45,46.45,0,0,0,29,10.17,56.13,56.13,0,0,0,29-9.39C181.39,370.24,194.21,324.76,178,288,166.2,261.1,139.11,239.54,110,237.92Z"/></g><path class="cls-11" d="M107,229.92a71.63,71.63,0,0,0-34.44,7,67.31,67.31,0,0,0-29.73,29c-2.8,5.41-8.67,17.17-7.05,32.87a56.31,56.31,0,0,0,11,27.39A57.94,57.94,0,0,0,67.82,343.4a57,57,0,0,0,11,3.91,45.92,45.92,0,0,0,16.43,31.31,46.45,46.45,0,0,0,29,10.17,56.13,56.13,0,0,0,29-9.39C178.39,362.24,191.21,316.76,175,280,163.2,253.1,136.11,231.54,107,229.92Z"/><g class="cls-12"><path class="cls-13" d="M69.24,50.26c.14-.75,3.91-1.39,7,0,3.73,1.68,5.19,5.74,6,8,2.17,6,1,10.84,2,11,.67.11,1.29-2.17,4-7,1.55-2.75,4.28-6.36,5-6,.33.16.2,1.09,0,2-1.33,6.31-5.19,9.9-7,15a19.65,19.65,0,0,0-1,8c.42.88,1.07,1.86,2,2,1.39.21,3-1.5,6-7a69.37,69.37,0,0,0,6-13c2.72-8,3.55-14.07,4-14s0,3.77,0,4a55.71,55.71,0,0,1-4,16c-3.91,9.89-8,18-8,18a31.84,31.84,0,0,0-4,11,28.88,28.88,0,0,0,0,8,5.76,5.76,0,0,0,4,2c1.55,0,2.53-1,4-2,3.1-2.1,5-2,7-3,7-3.37,7.3-15.25,9-15,1,.14,1.35,4,1,7a16.25,16.25,0,0,1-5,10c-3.48,3.13-6,2.13-11,5a27.4,27.4,0,0,0-8,7c-.26,2.55-1.07,11.09,0,16a3.85,3.85,0,0,0,1,2c1.74,1.72,5.44,1.37,8,0s4-3.91,7-9c.8-1.36,2.38-4.2,5-5a1.15,1.15,0,0,1,1,0c1.33.93-1.53,7-2,8-2.14,4.45-3.34,6.92-6,9-3.7,2.9-6,1.7-10,4-2.5,1.43-5.62,4.18-8,10q-.49,14.51-1,29l-8,1c-.47-5.38-.82-11-1-17-.19-6.3-.17-12.32,0-18a13,13,0,0,0-5-6c-4.86-2.95-8.11.39-14-2-7.45-3-9.71-11.4-10-13-.08-.45-.33-1.88,0-2s.63.48,1,1a25.66,25.66,0,0,0,3,4,35.63,35.63,0,0,0,3,3,34.07,34.07,0,0,0,4,3l16,1c.11-2.23.12-4.57,0-7a76.25,76.25,0,0,0-9-32h-9c-1.27-.3-5.64-1.49-7-5-.65-1.69-.56-3.81,0-4s1.14,1.74,3,3c1.19.8,2.46,1,6,1,7.23-.08,8.35-1.15,10,0,.85.59,1,1.1,3,6,2.7,6.45,2.44,5.35,3,7,2.13,6.25,1.69,10.12,4,11a3.13,3.13,0,0,0,2,0q-1-16-2-32a66.72,66.72,0,0,1-8-7c-4-4.14-4.74-6.24-5-7-1.32-4-.53-8,0-8s.35,2.22,2,5a16,16,0,0,0,5,5,13.92,13.92,0,0,0,7,3,11.92,11.92,0,0,0,2,0c.28-2.31.93-9.47-2-16-1.12-2.5-2.28-5.09-5-7C70.6,51.11,69.15,50.74,69.24,50.26Z"/></g><path class="cls-14" d="M66.24,47.26c.14-.75,3.91-1.39,7,0,3.73,1.68,5.19,5.74,6,8,2.17,6,1,10.84,2,11,.67.11,1.29-2.17,4-7,1.55-2.75,4.28-6.36,5-6,.33.16.2,1.09,0,2-1.33,6.31-5.19,9.9-7,15a19.65,19.65,0,0,0-1,8c.42.88,1.07,1.86,2,2,1.39.21,3-1.5,6-7a69.37,69.37,0,0,0,6-13c2.72-8,3.55-14.07,4-14s0,3.77,0,4a55.71,55.71,0,0,1-4,16c-3.91,9.89-8,18-8,18a31.84,31.84,0,0,0-4,11,28.88,28.88,0,0,0,0,8,5.76,5.76,0,0,0,4,2c1.55,0,2.53-1,4-2,3.1-2.1,5-2,7-3,7-3.37,7.3-15.25,9-15,1,.14,1.35,4,1,7a16.25,16.25,0,0,1-5,10c-3.48,3.13-6,2.13-11,5a27.4,27.4,0,0,0-8,7c-.26,2.55-1.07,11.09,0,16a3.85,3.85,0,0,0,1,2c1.74,1.72,5.44,1.37,8,0s4-3.91,7-9c.8-1.36,2.38-4.2,5-5a1.15,1.15,0,0,1,1,0c1.33.93-1.53,7-2,8-2.14,4.45-3.34,6.92-6,9-3.7,2.9-6,1.7-10,4-2.5,1.43-5.62,4.18-8,10q-.49,14.51-1,29l-8,1c-.47-5.38-.82-11-1-17-.19-6.3-.17-12.32,0-18a13,13,0,0,0-5-6c-4.86-2.95-8.11.39-14-2-7.45-3-9.71-11.4-10-13-.08-.45-.33-1.88,0-2s.63.48,1,1a25.66,25.66,0,0,0,3,4,35.63,35.63,0,0,0,3,3,34.07,34.07,0,0,0,4,3l16,1c.11-2.23.12-4.57,0-7a76.25,76.25,0,0,0-9-32h-9c-1.27-.3-5.64-1.49-7-5-.65-1.69-.56-3.81,0-4s1.14,1.74,3,3c1.19.8,2.46,1,6,1,7.23-.08,8.35-1.15,10,0,.85.59,1,1.1,3,6,2.7,6.45,2.44,5.35,3,7,2.13,6.25,1.69,10.12,4,11a3.13,3.13,0,0,0,2,0q-1-16-2-32a66.72,66.72,0,0,1-8-7c-4-4.14-4.74-6.24-5-7-1.32-4-.53-8,0-8s.35,2.22,2,5a16,16,0,0,0,5,5,13.92,13.92,0,0,0,7,3,11.92,11.92,0,0,0,2,0c.28-2.31.93-9.47-2-16-1.12-2.5-2.28-5.09-5-7C67.6,48.11,66.15,47.74,66.24,47.26Z"/><g class="cls-12"><path class="cls-13" d="M470.3,124.21a80.11,80.11,0,0,1,27-25,78.88,78.88,0,0,1,44-10c8.75.72,27.88,3.84,44,19a68.23,68.23,0,0,1,18,28,74.69,74.69,0,0,1,3,20c.2,31.87-28,66.26-32,71Z"/><path class="cls-13" d="M548.3,117.21c-.3-.37-4.84-5.92-11.49-6.07a9.31,9.31,0,0,0-1,0c-1.23,0-8,.37-12.63,5.77a15.94,15.94,0,0,0-3.92,12.28c.93,7,6.5,10.54,7.61,11.21a17.08,17.08,0,0,0,13.93,1.38,16,16,0,0,0,9.46-7.59C553.28,128.44,551.77,121.57,548.3,117.21Z"/><circle class="cls-13" cx="535.3" cy="130.21" r="13"/><circle class="cls-13" cx="568.3" cy="159.21" r="15"/><path class="cls-13" d="M572.3,158.21a7,7,0,0,0-7-2,7.08,7.08,0,0,0-4,4,8.34,8.34,0,0,0,0,7c.24.47,1.78,3.54,5,4s5.8-1.81,7-4A7.8,7.8,0,0,0,572.3,158.21Z"/></g><path class="cls-3" d="M467.3,121.21a80.11,80.11,0,0,1,27-25,78.88,78.88,0,0,1,44-10c8.75.72,27.88,3.84,44,19a68.23,68.23,0,0,1,18,28,74.69,74.69,0,0,1,3,20c.2,31.87-28,66.26-32,71Z"/><path class="cls-15" d="M545.3,114.21c-.3-.37-4.84-5.92-11.49-6.07a9.31,9.31,0,0,0-1,0c-1.23,0-8,.37-12.63,5.77a15.94,15.94,0,0,0-3.92,12.28c.93,7,6.5,10.54,7.61,11.21a17.08,17.08,0,0,0,13.93,1.38,16,16,0,0,0,9.46-7.59C550.28,125.44,548.77,118.57,545.3,114.21Z"/><circle class="cls-16" cx="532.3" cy="127.21" r="13"/><circle class="cls-17" cx="565.3" cy="156.21" r="15"/><path class="cls-18" d="M569.3,155.21a7,7,0,0,0-7-2,7.08,7.08,0,0,0-4,4,8.34,8.34,0,0,0,0,7c.24.47,1.78,3.54,5,4s5.8-1.81,7-4A7.8,7.8,0,0,0,569.3,155.21Z"/><g class="cls-9"><path class="cls-19" d="M561.25,194.12c14.09-11.64,24.53-20.28,41.2-25.87,37.73-12.64,71.33,2.53,75.33,4.41,6.86,3.22,42.21,19.81,53.14,59.45,9.24,33.54-2,72.6-29.55,93.31-20.34,15.3-43,15.67-54.16,15.7-65.41.16-134.8-55.86-128.56-96.73C521.29,227.18,537.26,214,561.25,194.12Z"/><path class="cls-19" d="M664.49,197.85a11.42,11.42,0,0,0-8.72-2c-6.07,1.28-8.21,7.57-8.38,8.11a13.06,13.06,0,0,0,1.31,10.41c.64,1.1,3,5.21,7.81,6.08,4.57.82,8.92-1.76,11.14-4.93C671.58,210,669.59,201.57,664.49,197.85Z"/><path class="cls-19" d="M614.3,199c-.38-.61-2.76-4.45-6.68-4.57-4.23-.12-7.7,4.13-8.39,8.11a10.49,10.49,0,0,0,2.17,8c.76,1,2.36,3,4.9,3.38,4.07.61,8.44-3.36,9.37-7.76A9.9,9.9,0,0,0,614.3,199Z"/><path class="cls-19" d="M712.5,246.84c-.53-1-2.58-4.66-6.83-5.72-4.65-1.16-9.23,1.54-11.63,4.75-4.17,5.57-1.49,12.2-1.21,12.85.51,1.2,2.21,5.22,6.49,6.71s8.94-.41,11.6-3.1C715.18,258,714.94,251.24,712.5,246.84Z"/><circle class="cls-19" cx="658.1" cy="203.41" r="7.83"/><circle class="cls-19" cx="607.34" cy="198.73" r="4.3"/><circle class="cls-19" cx="703.36" cy="252.42" r="6.78"/><path class="cls-19" d="M668,285.36a4.7,4.7,0,1,1-2.87-6A4.69,4.69,0,0,1,668,285.36Z"/><path class="cls-19" d="M702.7,299.81c-1.61-2.9-5.12-3.05-5.56-3.06a7,7,0,0,0-6.16,3.36c-1.48,2.45-1.44,5.91.52,7.93,2.72,2.81,8.08,1.73,10.42-1.31A6.52,6.52,0,0,0,702.7,299.81Z"/><circle class="cls-19" cx="695.72" cy="287.81" r="3"/><path class="cls-19" d="M688,317.88a5.77,5.77,0,0,0-4.9-3.38,6.11,6.11,0,0,0-4.3,10.65c2.52,2,6.2,1.11,8.1-1a6.54,6.54,0,0,0,1.55-3.76A5.81,5.81,0,0,0,688,317.88Z"/><circle class="cls-19" cx="624.05" cy="227.86" r="5.74"/><circle class="cls-19" cx="609.5" cy="223.84" r="4.7"/><ellipse class="cls-19" cx="698.88" cy="221.92" rx="3.91" ry="4.96" transform="translate(257.39 807.38) rotate(-70.6)"/><ellipse class="cls-19" cx="698.74" cy="230.93" rx="3.13" ry="3.91" transform="translate(248.8 813.27) rotate(-70.6)"/><circle class="cls-19" cx="661.96" cy="178.91" r="2.02"/><circle class="cls-19" cx="649.68" cy="175.9" r="2.02"/><circle class="cls-19" cx="659.6" cy="253.93" r="7.04"/></g><path class="cls-20" d="M558.25,186.12c14.09-11.64,24.53-20.28,41.2-25.87,37.73-12.64,71.33,2.53,75.33,4.41,6.86,3.22,42.21,19.81,53.14,59.45,9.24,33.54-2,72.6-29.55,93.31-20.34,15.3-43,15.67-54.16,15.7-65.41.16-134.8-55.86-128.56-96.73C518.29,219.18,534.26,206,558.25,186.12Z"/><path class="cls-21" d="M661.49,189.85a11.42,11.42,0,0,0-8.72-2c-6.07,1.28-8.21,7.57-8.38,8.11a13.06,13.06,0,0,0,1.31,10.41c.64,1.1,3,5.21,7.81,6.08,4.57.82,8.92-1.76,11.14-4.93C668.58,202,666.59,193.57,661.49,189.85Z"/><path class="cls-21" d="M611.3,191c-.38-.61-2.76-4.45-6.68-4.57-4.23-.12-7.7,4.13-8.39,8.11a10.49,10.49,0,0,0,2.17,8c.76,1,2.36,3,4.9,3.38,4.07.61,8.44-3.36,9.37-7.76A9.9,9.9,0,0,0,611.3,191Z"/><path class="cls-21" d="M709.5,238.84c-.53-1-2.58-4.66-6.83-5.72-4.65-1.16-9.23,1.54-11.63,4.75-4.17,5.57-1.49,12.2-1.21,12.85.51,1.2,2.21,5.22,6.49,6.71s8.94-.41,11.6-3.1C712.18,250,711.94,243.24,709.5,238.84Z"/><circle class="cls-22" cx="655.1" cy="195.41" r="7.83"/><circle class="cls-22" cx="604.34" cy="190.73" r="4.3"/><circle class="cls-23" cx="700.36" cy="244.42" r="6.78"/><path class="cls-24" d="M665,277.36a4.7,4.7,0,1,1-2.87-6A4.69,4.69,0,0,1,665,277.36Z"/><path class="cls-25" d="M699.7,291.81c-1.61-2.9-5.12-3.05-5.56-3.06a7,7,0,0,0-6.16,3.36c-1.48,2.45-1.44,5.91.52,7.93,2.72,2.81,8.08,1.73,10.42-1.31A6.52,6.52,0,0,0,699.7,291.81Z"/><circle class="cls-26" cx="692.72" cy="279.81" r="3"/><path class="cls-27" d="M685,309.88a5.77,5.77,0,0,0-4.9-3.38,6.11,6.11,0,0,0-4.3,10.65c2.52,2,6.2,1.11,8.1-1a6.54,6.54,0,0,0,1.55-3.76A5.81,5.81,0,0,0,685,309.88Z"/><circle class="cls-28" cx="621.05" cy="219.86" r="5.74"/><circle class="cls-29" cx="606.5" cy="215.84" r="4.7"/><ellipse class="cls-22" cx="695.88" cy="213.92" rx="3.91" ry="4.96" transform="translate(262.93 799.21) rotate(-70.6)"/><ellipse class="cls-22" cx="695.74" cy="222.93" rx="3.13" ry="3.91" transform="translate(254.34 805.1) rotate(-70.6)"/><circle class="cls-22" cx="658.96" cy="170.91" r="2.02"/><circle class="cls-22" cx="646.68" cy="167.9" r="2.02"/><circle class="cls-30" cx="656.6" cy="245.93" r="7.04"/><g class="cls-31"><path class="cls-13" d="M303,129.79c.42-2.61.89-4.6,0-7-.11-.29-1-2.64-3-3-2.14-.39-3.88,1.84-4,2-1.24,1.63-1.15,3.55-1,6,.21,3.52,1,3.56,1,6-.08,3.16-1.51,3.34-2,7s.89,4.5,0,7a7.52,7.52,0,0,1-6,5,7.07,7.07,0,0,1-7-4c-.18-.41-.33-.91,0-6,.26-4.12.41-4.78,0-6-.53-1.54-2-4-4-4s-3.49,2.56-4,4-.35,2.33,0,6c.63,6.69.49,7.38,0,8-1.54,1.93-5.16,1.54-7,1-.49-.14-3.93-1.15-5-4-.46-1.21-.05-1.56,0-5s0-5.17-1-6a3.65,3.65,0,0,0-4,0c-.79.5-1.52,1.46-2,5a25.07,25.07,0,0,0-.26,3.56c0,3.63.05,4-.18,4.31-1.81,2.34-22.78-11.13-25.56-12.87-24.69-15.39-69.21-12.42-100,10-24.08,17.53-47.33,52.47-38.79,89,4.69,20,17.36,33.26,24.52,39.65a68.61,68.61,0,0,0-5.21,9.91c-2.65,6.19-8.27,19.38-5.22,32.87,4.27,18.89,23.19,27.89,26.09,29.22A64.17,64.17,0,0,0,126,368.79c0,3.49.26,14,5,24,10.46,22.15,36.46,28.23,40,29,29.12,6.35,51.82-11.42,55-14a95.22,95.22,0,0,0,32,19c23.55,8.26,43.79,4.73,53,3a113.77,113.77,0,0,0,37-14,101.28,101.28,0,0,0,20,8c25.88,7.26,47.6,2.1,56,0a117.37,117.37,0,0,0,48-25c8.85,4.88,40.58,21,78,11a98,98,0,0,0,33-16,38.24,38.24,0,0,0,23-5c10.91-6.54,19.9-19.92,18-35-1.94-15.3-14-23.64-16-25,1.83-1.41,13.58-10.76,14-26a33.07,33.07,0,0,0-5-18,36.61,36.61,0,0,0-18-15,64.27,64.27,0,0,0,3-28c-3.33-28-24.5-43.25-27-45-19.45-13.56-39.92-11.63-45-11a73,73,0,0,0-2-29c-14.67-51.5-90.12-81.18-148-70-35.73,6.9-60,28.43-62,38-1.26,6-3.86,11.86-4,18-.08,3,.15,6.68-2,8-1.66,1-4.38.43-6-1a6.86,6.86,0,0,1-2-4C303,141,302,136.44,303,129.79Z"/></g><path class="cls-32" d="M300,121.79c.42-2.61.89-4.6,0-7-.11-.29-1-2.64-3-3-2.14-.39-3.88,1.84-4,2-1.24,1.63-1.15,3.55-1,6,.21,3.52,1,3.56,1,6-.08,3.16-1.51,3.34-2,7s.89,4.5,0,7a7.52,7.52,0,0,1-6,5,7.07,7.07,0,0,1-7-4c-.18-.41-.33-.91,0-6,.26-4.12.41-4.78,0-6-.53-1.54-2-4-4-4s-3.49,2.56-4,4-.35,2.33,0,6c.63,6.69.49,7.38,0,8-1.54,1.93-5.16,1.54-7,1-.49-.14-3.93-1.15-5-4-.46-1.21-.05-1.56,0-5s0-5.17-1-6a3.65,3.65,0,0,0-4,0c-.79.5-1.52,1.46-2,5a25.07,25.07,0,0,0-.26,3.56c0,3.63.05,4-.18,4.31-1.81,2.34-22.78-11.13-25.56-12.87-24.69-15.39-69.21-12.42-100,10-24.08,17.53-47.33,52.47-38.79,89,4.69,20,17.36,33.26,24.52,39.65a68.61,68.61,0,0,0-5.21,9.91c-2.65,6.19-8.27,19.38-5.22,32.87,4.27,18.89,23.19,27.89,26.09,29.22A64.17,64.17,0,0,0,123,360.79c0,3.49.26,14,5,24,10.46,22.15,36.46,28.23,40,29,29.12,6.35,51.82-11.42,55-14a95.22,95.22,0,0,0,32,19c23.55,8.26,43.79,4.73,53,3a113.77,113.77,0,0,0,37-14,101.28,101.28,0,0,0,20,8c25.88,7.26,47.6,2.1,56,0a117.37,117.37,0,0,0,48-25c8.85,4.88,40.58,21,78,11a98,98,0,0,0,33-16,38.24,38.24,0,0,0,23-5c10.91-6.54,19.9-19.92,18-35-1.94-15.3-14-23.64-16-25,1.83-1.41,13.58-10.76,14-26a33.07,33.07,0,0,0-5-18,36.61,36.61,0,0,0-18-15,64.27,64.27,0,0,0,3-28c-3.33-28-24.5-43.25-27-45-19.45-13.56-39.92-11.63-45-11a73,73,0,0,0-2-29c-14.67-51.5-90.12-81.18-148-70-35.73,6.9-60,28.43-62,38-1.26,6-3.86,11.86-4,18-.08,3,.15,6.68-2,8-1.66,1-4.38.43-6-1a6.86,6.86,0,0,1-2-4C300,133,299,128.44,300,121.79Z"/><g class="cls-12"><path class="cls-13" d="M218.29,397.32c2.14,1.95,6.57,6.59,7,13,.26,3.93-1,7.91-2,11a20.59,20.59,0,0,1-2,5c-3.39,5.63-9.33,7.08-9,8,.25.69,3.33-.67,7,0,4.36.81,8.11,4.22,10,8a16.15,16.15,0,0,1-2,17,16.36,16.36,0,0,1-11,6c-8.32.78-13.59-5.49-14-6-5.09-6.27-3.29-13.77-3-15,.86-3.59,2.62-5.78,6-10,6.29-7.84,9.84-8.61,12-14a19.23,19.23,0,0,0,1-10,21.51,21.51,0,0,1,0-13Z"/><circle class="cls-13" cx="214.79" cy="450.82" r="11.5"/><circle class="cls-13" cx="215.29" cy="451.32" r="8"/><circle class="cls-13" cx="215.29" cy="451.32" r="2"/></g><path class="cls-33" d="M215.29,394.32c2.14,1.95,6.57,6.59,7,13,.26,3.93-1,7.91-2,11a20.59,20.59,0,0,1-2,5c-3.39,5.63-9.33,7.08-9,8,.25.69,3.33-.67,7,0,4.36.81,8.11,4.22,10,8a16.15,16.15,0,0,1-2,17,16.36,16.36,0,0,1-11,6c-8.32.78-13.59-5.49-14-6-5.09-6.27-3.29-13.77-3-15,.86-3.59,2.62-5.78,6-10,6.29-7.84,9.84-8.61,12-14a19.23,19.23,0,0,0,1-10,21.51,21.51,0,0,1,0-13Z"/><circle class="cls-34" cx="211.79" cy="447.82" r="11.5"/><circle class="cls-35" cx="212.29" cy="448.32" r="8"/><circle class="cls-36" cx="212.29" cy="448.32" r="2"/><path class="cls-37" d="M163.68,495.62l-.38-47.74-.17-21.52-.23-29"/><circle class="cls-32" cx="163.72" cy="501.47" r="5.85"/><path class="cls-37" d="M184.42,531.68l-14.58-.09a6.39,6.39,0,0,1-5.87-6.17q-.14-12.07-.29-24.16"/><line class="cls-37" x1="187.93" y1="531.68" x2="193.02" y2="531.68"/><line class="cls-37" x1="196.75" y1="531.68" x2="201.84" y2="531.68"/><path class="cls-38" d="M112.54,140.29c.09-1.32.82-9.85,8-15a19.81,19.81,0,0,1,24.5,1.5c6.06,5.65,6,13.58,6,15,2.42,3,6,6.31,10,6,3.13-.24,3.76-2.5,8-4,.79-.28,7.52-2.54,14,1a17.84,17.84,0,0,1,8,10,20.15,20.15,0,0,1,0,13c.66.67,1.33,1.33,2,2a26.19,26.19,0,0,1,10,1c3.23,1,8.08,2.46,11,7,3.63,5.66,3.17,14.36-1,18-3.17,2.76-7.34,1.62-9,5a5.63,5.63,0,0,0,0,5c1.48,2.76,4.79,1.72,8,4,4.11,2.92,5.87,9.75,4,15a13.84,13.84,0,0,1-6,7c-7.42,4.19-15-.9-18,3-1.35,1.77.31,2.72-1,6-2,5-6.7,5.06-9,10a11.9,11.9,0,0,0-1,6,15.42,15.42,0,0,1-8,6c-4.24,1.31-9.47.8-13-2-2.83-2.24-2.57-4.36-5-5-2.84-.75-6.49,1.26-8,4-1.16,2.1-.23,3.1-1,6a14.75,14.75,0,0,1-6,8c-.3.19-6.7,4.09-13,1-5.16-2.53-6.74-8-7-9-1.23-4.62.83-6.79-1-9-2-2.44-6.78-2.51-10-1s-2.85,3.83-6,6c-4.69,3.23-11.55,2.2-16,0-1.14-.56-5.94-2.93-8-8-1.46-3.58,0-4.59-1-9-.1-.41-2.39-9.49-9-12-4.73-1.79-6.78,1.61-11,0-5.89-2.25-10.09-12-7-19a14.17,14.17,0,0,1,7-7c3.65-1.6,6.4-.63,7-2,.76-1.74-3.45-3.91-7-9-1-1.38-7.22-10.34-4-18a13.63,13.63,0,0,1,7-7c5.06-2.16,9,.39,11-2,1.46-1.75,0-3.86,0-8,0-4.5,1.83-10.76,6-14,5.9-4.6,16.93-3.42,22-1a8.14,8.14,0,0,0,5,1,9.75,9.75,0,0,0,5-3A13.56,13.56,0,0,0,112.54,140.29Z"/><path class="cls-39" d="M112.73,139.94c.09-1.33.82-9.86,8-15a19.8,19.8,0,0,1,24.5,1.5c6.06,5.65,6,13.57,6,15,2.42,3,6,6.31,10,6,3.13-.25,3.76-2.51,8-4,.79-.29,7.52-2.54,14,1a17.81,17.81,0,0,1,8,10,20.09,20.09,0,0,1,0,13l2,2a26,26,0,0,1,10,1c3.64,1.11,8.46,2.51,11,7,2.13,3.76,2.58,9.56-.19,13.35-5,6.9-16.78,1.76-21,8-2.68,4,.89,7.69,1,15,.26,17.68-20,35.08-28,32-4.09-1.58-3.22-7.86-9-10a11.47,11.47,0,0,0-11,2c-1,.89-1.4,1.65-4,8-3.33,8.09-3.6,9.06-5,10a9.4,9.4,0,0,1-11-1c-.32-.31-.67-.74-2-4-2.67-6.51-2.42-7.64-4-10-.91-1.34-2.76-4.09-6-5-4.1-1.14-8,1.34-9,2-5.7,3.65-5.52,9.11-10,10a7.26,7.26,0,0,1-5-1c-3-1.92-2.57-5.25-5-14-2.07-7.42-3.48-9.07-5-10-1.77-1.07-3.53-1.08-6-1-14.13.44-18.14,2.51-21,0-2.38-2.09-2.45-6-1.81-8.35,1.22-4.49,5.94-6.54,7-7,3.65-1.61,6.4-.64,7-2,.76-1.75-3.45-3.92-7-9-1-1.38-7.22-10.34-4-18a13.59,13.59,0,0,1,7-7c5.07-2.16,9,.39,11-2,1.47-1.76,0-3.86,0-8,0-4.5,1.83-10.76,6-14,5.9-4.6,16.93-3.42,22-1a8.21,8.21,0,0,0,5,1,9.71,9.71,0,0,0,5-3A13.56,13.56,0,0,0,112.73,139.94Z"/><path class="cls-40" d="M95,160.79a3.39,3.39,0,0,0-3,2,3.53,3.53,0,0,0,0,3,3.59,3.59,0,0,0,3,2,3.63,3.63,0,0,0,3-2,3.69,3.69,0,0,0,0-3A3.41,3.41,0,0,0,95,160.79Z"/><path class="cls-40" d="M172,160.79a3.38,3.38,0,0,0-2.91,1.33,3.23,3.23,0,0,0,0,3,3.25,3.25,0,0,0,6,0,3.28,3.28,0,0,0,0-3A3.47,3.47,0,0,0,172,160.79Z"/><path class="cls-41" d="M155,178.79a7.59,7.59,0,0,0-7-2,7.06,7.06,0,0,0-5,5,7.22,7.22,0,0,0,2,7,7.41,7.41,0,0,0,9,1,7.27,7.27,0,0,0,3-5A7.65,7.65,0,0,0,155,178.79Z"/><path class="cls-41" d="M122.29,178.74a7.62,7.62,0,0,0-7-2,7.09,7.09,0,0,0-5,5,7.22,7.22,0,0,0,2,7,7.41,7.41,0,0,0,9,1,7.27,7.27,0,0,0,3-5A7.66,7.66,0,0,0,122.29,178.74Z"/><g class="cls-31"><path class="cls-13" d="M468,180.85c1-2.83,2.83-6.48,6.47-8.43a11.48,11.48,0,0,1,3.92-1.26c5.36-.76,30.57-2.38,64.87-4.19a11.54,11.54,0,0,1,9.43,6.4l1.11,25.08a16.74,16.74,0,0,1-6.09,6.31c-5.31,3-9.49,1-13.85,2.9-3.27,1.41-7,5.19-9,15.61l-7-14.58-43,1.78a10.37,10.37,0,0,1-6.44-6.6Z"/><circle class="cls-13" cx="486.72" cy="183.15" r="4.5"/><circle class="cls-13" cx="506.21" cy="182.39" r="4"/><circle class="cls-13" cx="487.62" cy="197.12" r="4.5"/><circle class="cls-13" cx="507.11" cy="196.36" r="4"/><circle class="cls-13" cx="525.17" cy="181.17" r="4"/></g><path class="cls-42" d="M465,177.85c1-2.83,2.83-6.48,6.47-8.43a11.48,11.48,0,0,1,3.92-1.26c5.36-.76,30.57-2.38,64.87-4.19a11.54,11.54,0,0,1,9.43,6.4l1.11,25.08a16.74,16.74,0,0,1-6.09,6.31c-5.31,3-9.49,1-13.85,2.9-3.27,1.41-7,5.19-9,15.61l-7-14.58-43,1.78a10.37,10.37,0,0,1-6.44-6.6Z"/><circle class="cls-43" cx="483.72" cy="180.15" r="4.5"/><circle class="cls-44" cx="503.21" cy="179.39" r="4"/><circle class="cls-43" cx="484.62" cy="194.12" r="4.5"/><circle class="cls-45" cx="504.11" cy="193.36" r="4"/><circle class="cls-46" cx="522.17" cy="178.17" r="4"/><path class="cls-47" d="M324.72,99.65l-9.65-4.17s-.59-.38-1.07-.73c-4.74-3.52-4.31-15.61-4-20.18a47,47,0,0,1,1.18-6.74,34.15,34.15,0,0,1,2.6-7.57c.67-1.33,3.15-6.29,8.09-8.35,4-1.65,6.13,0,8.35-2.08,1.87-1.74,1.22-3.73,2.09-6.79,1.88-6.63,9.33-12.79,16.17-13.3,4.82-.36,8.36,2.15,10.43,0,1-1,.84-2.16,1.05-3.65,1.05-7.45,8.85-12.32,10.43-13.31,4.69-2.92,9.07-3.29,13.31-3.65,3.66-.31,9.48-.8,15.65,1.83,7.38,3.14,9.08,8.13,13.3,7.3,2.66-.52,2.92-2.67,6.26-5.22,5.6-4.25,12.47-4,15.4-3.91,9.48.34,19.8,6.19,21.23,10.64C458.19,28,435.48,48.09,324.72,99.65Z"/><path class="cls-48" d="M424.76,146.83c-1.19.53-2.9,1.24-5,2-3.33,1.21-5,1.83-6.87,1.88-2,.07-5.18.17-7.06-2.08s-1.54-5.69-.52-7.56c1.21-2.24,2.65-3,4.17-4.44,3.31-3.1,3.68-7.71,4.28-16.8a92.2,92.2,0,0,0-.36-16.33,6.92,6.92,0,0,0-10.18-5.74,8.17,8.17,0,0,0-4.17,5.74c0,.72-.71,13.24-.59,19.59a17.14,17.14,0,0,0,.52,4.18,24.61,24.61,0,0,0,2.42,5.45c.38.71,1.18,2.15,2.61,4.43,2.87,4.6,3.48,4.89,3.39,6-.19,2.27-2.93,3.8-5.48,5.22a14.65,14.65,0,0,1-7.05,2.35,13.2,13.2,0,0,1-10.17-4.44,12.76,12.76,0,0,1-2.87-7.3q.14-17.08.26-34.18c0-.2.12-4.52-3.39-6.78a7.31,7.31,0,0,0-8.35.26c-1.53,1.28-1.88,3-2.34,5.48a26.35,26.35,0,0,0,.26,10.7,11,11,0,0,1,2.34,2.87c.19.33,3.2,5.84.26,11-2.44,4.27-7.2,5.07-8.08,5.22-5.05.85-10.36-1.62-13.89-6.23q.15-11.51.32-23a8.18,8.18,0,0,0-3.13-6c-3.78-2.75-8.34-.4-8.61-.26-2.88,1.55-5.18,5-4.43,7.31a15.07,15.07,0,0,0,2.09,3.13c1.1,1.47,1.43,1.68,1.56,2.34a4.39,4.39,0,0,1-1.83,3.92c-2.4,1.84-6.8.89-8.7-1.57a6,6,0,0,1-1.08-2.65,67.43,67.43,0,0,1-1.37-10.37c-.3-5.21-.46-10.43-.59-15.65,0-1.27-.17-7.09-.2-8.41a19.12,19.12,0,0,1,1.51-7.47c.76-1.77,2.88-6.7,8.35-9.13a16,16,0,0,1,12.26,0,42.82,42.82,0,0,1,.79-9.66,26.88,26.88,0,0,1,2.6-8.08,23.73,23.73,0,0,1,3.87-5.33,15,15,0,0,1,4.48-3.54A13.93,13.93,0,0,1,362,31.55c5.52-.23,9.52,3.33,10.43,4.18a27.68,27.68,0,0,1,5.74-13.31,27.24,27.24,0,0,1,9.92-7.71,23,23,0,0,1,13-2.2c5.06.75,8.34,3.23,12,6a46.51,46.51,0,0,1,11.43,12.62Q424.67,89,424.76,146.83Z"/><path class="cls-49" d="M444.33,10.61A30.08,30.08,0,0,1,455.65,20a29.11,29.11,0,0,1,3.81,7.1A25.08,25.08,0,0,1,469.37,25c1.71,0,12.41,0,18.79,8.61a22.31,22.31,0,0,1,3.91,15.65,19.89,19.89,0,0,1,7,.79,21.58,21.58,0,0,1,10.44,7.3,27.05,27.05,0,0,1,6,16.44c.1,2.9.31,9-3.65,14.6-1.25,1.76-3.72,5.26-8.09,6.79-4.21,1.47-7.86.3-10.29,3a6.51,6.51,0,0,0-1.45,3q-.13,20.34-.26,40.69a13.25,13.25,0,0,1-2.61,8.87c-.77,1-3.72,4.82-8.35,4.7-5.55-.15-8.4-5.84-8.61-6.26-2.69-5.6.52-11,.79-11.48q.12-17.75.26-35.48a6.83,6.83,0,0,0-3.39-4.43,6.94,6.94,0,0,0-6.27.26,7.39,7.39,0,0,0-2.87,2.87v56.61c0,.65-.06,8-6,12-5.74,3.9-12.2,1.48-14.08.78-4.45-1.67-10.57-6-10.18-10.7.21-2.47,2.32-4.43,6.53-8.35a52,52,0,0,1,5.47-4.43q.27-22.83.53-45.65A6.37,6.37,0,0,0,439.37,97a5.94,5.94,0,0,0-4.95.53,6.16,6.16,0,0,0-2.61,3.25c.64,19.11.7,33.21.39,37.57a9.32,9.32,0,0,1-1.95,5.21,10,10,0,0,1-5.49,3.31c-.36-18-.54-33.51-.63-45.74-.12-17.16-.08-30.59-.06-37.27,0-13.89.14-26.51.2-32.64,0-1.29,0-3.3,0-4.56.43-7.2,4.4-13.31,10.24-15.62A15.7,15.7,0,0,1,444.33,10.61Z"/><circle class="cls-50" cx="384.26" cy="72.33" r="13.5"/><path class="cls-51" d="M378.76,65.83a7.7,7.7,0,0,0-4,5,7.47,7.47,0,0,0,4,8c3.89,1.9,7.67-.75,8-1,2.91-2.12,4.94-6.62,3-10C387.64,64.12,382.08,64.07,378.76,65.83Z"/><path class="cls-52" d="M386.76,66.35c-2.73-2.11-6.52-.24-7,0s-3.58,1.81-4,5a5.47,5.47,0,0,0,1,4,6,6,0,0,0,5,2c3.56-.19,7.11-3.48,7-7A5.6,5.6,0,0,0,386.76,66.35Z"/><path class="cls-53" d="M384.34,68.53c-1.55-1.09-3.55.29-3.71.41A3.46,3.46,0,0,0,379,71.66a3,3,0,0,0,1.82,2.81c1.44.52,2.77-.59,3.24-1a3.38,3.38,0,0,0,1.22-1.71A3,3,0,0,0,384.34,68.53Z"/><g class="cls-12"><path class="cls-13" d="M281,218.59l17.81-5.4,5.4,17.81a145.68,145.68,0,0,1,33.1,2.23L347,213.65l14.64,8.23-8.41,18.39,12.71,9.39,15.54-10.53,10.59,14.3L379,264.08c1.34,2.93,2.66,6.13,3.92,9.59s2.38,7,3.27,10.18l20.16-2.16q1.51,7.29,3.05,14.56l-20.34,5.91q-1.72,9.63-3.44,19.26l17.23,6.47L397.17,342l-20.32-7.25-5.49,9.76L381.8,362l-11.65,7.58-10.59-14.3-11,6.37q.87,7.88,1.75,15.75l-11.53,5.08q-3.7-7.71-7.4-15.4l-11.31.7q-2.76,11.77-5.53,23.55l-11.76-3.08q-1-11.32-2-22.66l-12.35-3.73-12.7,16.31-11-6.18,6.6-19.73-9.52-10.49-16,7.37Q241.2,341,236.57,333L252,324.34a47.54,47.54,0,0,1-5.6-26.59l-23-3.62,2-14.32,22,2.65,6.72-14.41-16.86-14,12.48-11.93,12.52,13.14a60.05,60.05,0,0,1,26-18.79Q284.61,227.55,281,218.59Z"/><ellipse class="cls-13" cx="297.24" cy="283.61" rx="20.34" ry="20.03" transform="translate(-0.43 566.77) rotate(-87.22)"/><ellipse class="cls-13" cx="345.26" cy="281.87" rx="16.27" ry="15.96" transform="translate(47.01 613.07) rotate(-87.22)"/><circle class="cls-13" cx="297.26" cy="283.3" r="13.77"/><ellipse class="cls-13" cx="349.88" cy="283.66" rx="3.44" ry="3.76" transform="translate(49.61 619.38) rotate(-87.22)"/></g><path class="cls-54" d="M281,214.59l17.81-5.4,5.4,17.81a145.68,145.68,0,0,1,33.1,2.23L347,209.65l14.64,8.23-8.41,18.39,12.71,9.39,15.54-10.53,10.59,14.3L379,260.08c1.34,2.93,2.66,6.13,3.92,9.59s2.38,7,3.27,10.18l20.16-2.16q1.51,7.29,3.05,14.56l-20.34,5.91q-1.72,9.63-3.44,19.26l17.23,6.47L397.17,338l-20.32-7.25-5.49,9.76L381.8,358l-11.65,7.58-10.59-14.3-11,6.37q.87,7.88,1.75,15.75l-11.53,5.08q-3.7-7.71-7.4-15.4l-11.31.7q-2.76,11.77-5.53,23.55l-11.76-3.08q-1-11.32-2-22.66l-12.35-3.73-12.7,16.31-11-6.18,6.6-19.73-9.52-10.49-16,7.37Q241.2,337,236.57,329L252,320.34a47.54,47.54,0,0,1-5.6-26.59l-23-3.62,2-14.32,22,2.65,6.72-14.41-16.86-14,12.48-11.93,12.52,13.14a60.05,60.05,0,0,1,26-18.79Q284.61,223.55,281,214.59Z"/><ellipse class="cls-55" cx="297.24" cy="279.61" rx="20.34" ry="20.03" transform="translate(3.57 562.96) rotate(-87.22)"/><ellipse class="cls-55" cx="345.26" cy="277.87" rx="16.27" ry="15.96" transform="translate(51.01 609.27) rotate(-87.22)"/><circle class="cls-32" cx="297.26" cy="279.3" r="13.77"/><ellipse class="cls-32" cx="349.88" cy="279.66" rx="3.44" ry="3.76" transform="translate(53.61 615.58) rotate(-87.22)"/><g class="cls-12"><path class="cls-13" d="M45.36,122.61c-5.52-.56-10.11,3.53-10.39,8.08-.3,4.88,4.42,9.78,10.39,9.23H66.14c6,.55,10.69-4.35,10.39-9.23-.28-4.55-4.87-8.64-10.39-8.08Z"/><ellipse class="cls-13" cx="43.53" cy="131.25" rx="9.05" ry="8.52"/><circle class="cls-13" cx="43.53" cy="131.25" r="4.92"/></g><path class="cls-56" d="M42.36,119.61c-5.52-.56-10.11,3.53-10.39,8.08-.3,4.88,4.42,9.78,10.39,9.23H63.14c6,.55,10.69-4.35,10.39-9.23-.28-4.55-4.87-8.64-10.39-8.08Z"/><ellipse class="cls-57" cx="40.53" cy="128.25" rx="9.05" ry="8.52"/><circle class="cls-58" cx="40.53" cy="128.25" r="4.92"/><g class="cls-12"><path class="cls-13" d="M396.63,439.7a10.33,10.33,0,0,1,19.15,1.41,9.27,9.27,0,0,1,1.2,18.42l-27.13.26c-.61-.1-5.38-1-7.56-5.22-2.29-4.45-.19-9.63,2.61-12.26a11.45,11.45,0,0,1,5-2.61A13.26,13.26,0,0,1,396.63,439.7Z"/></g><path class="cls-29" d="M393.63,436.7a10.33,10.33,0,0,1,19.15,1.41,9.27,9.27,0,0,1,1.2,18.42l-27.13.26c-.61-.1-5.38-1-7.56-5.22-2.29-4.45-.19-9.63,2.61-12.26a11.45,11.45,0,0,1,5-2.61A13.26,13.26,0,0,1,393.63,436.7Z"/><g class="cls-31"><path class="cls-13" d="M493,288.79l5-12-11-3v-5l7-1-1-13-9,3-2-5,9-5-7-9-6,6-3-3,4-7-7-5-5,6-6-2,1.3-9.3-7.57-.53-.78,8.09-5.95.74c-.34-2.67-.67-5.33-1-8H437q.49,4.5,1,9l-5,3-4-10-11,11,8,6-6,6-7-4-5,10,9,3-2,9-9-2,1,14,9-3,1,9-8,2,6,9,6-5,5,5-8,10,7,4,5-8,8,4-3,9,7,3,2-8h9v8l11-1-3-10,6-2,4,8,8-5-5-8,3-2,6,6,6-11-7-4,2-5Zm-18-7a26,26,0,0,1-26,15,25.7,25.7,0,0,1-21-15c-4.12-9.42-.72-18.17,0-20a24.71,24.71,0,0,1,8-11,25.15,25.15,0,0,1,16-5c1.66,0,12.77.53,20,10A25.76,25.76,0,0,1,475,281.79Z"/></g><path class="cls-59" d="M493,282.79l5-12-11-3v-5l7-1-1-13-9,3-2-5,9-5-7-9-6,6-3-3,4-7-7-5-5,6-6-2,1.3-9.3-7.57-.53-.78,8.09-5.95.74c-.34-2.67-.67-5.33-1-8H437q.49,4.5,1,9l-5,3-4-10-11,11,8,6-6,6-7-4-5,10,9,3-2,9-9-2,1,14,9-3,1,9-8,2,6,9,6-5,5,5-8,10,7,4,5-8,8,4-3,9,7,3,2-8h9v8l11-1-3-10,6-2,4,8,8-5-5-8,3-2,6,6,6-11-7-4,2-5Zm-18-7a26,26,0,0,1-26,15,25.7,25.7,0,0,1-21-15c-4.12-9.42-.72-18.17,0-20a24.71,24.71,0,0,1,8-11,25.15,25.15,0,0,1,16-5c1.66,0,12.77.53,20,10A25.76,25.76,0,0,1,475,275.79Z"/><path class="cls-60" d="M451.54,244.79c-12.43,0-22.5,9.4-22.5,21s10.07,21,22.5,21,22.5-9.4,22.5-21S464,244.79,451.54,244.79Zm1.5,27a6.26,6.26,0,0,1-8-8,7,7,0,0,1,9-4,6.51,6.51,0,0,1,4,6A6.71,6.71,0,0,1,453,271.79Z"/><g class="cls-12"><path class="cls-13" d="M94.33,455.86a9.54,9.54,0,0,1,3-1l18-1a6.58,6.58,0,0,1,4,1,7,7,0,0,1,3,5q-.49,8-1,16a5,5,0,0,1-2,3,4.87,4.87,0,0,1-2.74.85c-1.16,0-11.57.31-19.26.15a8.25,8.25,0,0,1-4-1,8.7,8.7,0,0,1-4-6v-8a9.45,9.45,0,0,1,1-5A9.66,9.66,0,0,1,94.33,455.86Z"/><rect class="cls-13" x="93.7" y="458.68" width="25.01" height="17.22" rx="2"/><rect class="cls-13" x="96.92" y="470.81" width="18.59" height="1.17"/><rect class="cls-13" x="96.92" y="466.29" width="18.59" height="1.17"/><rect class="cls-13" x="96.92" y="461.96" width="18.59" height="1.17"/></g><path class="cls-61" d="M91.33,452.86a9.54,9.54,0,0,1,3-1l18-1a6.58,6.58,0,0,1,4,1,7,7,0,0,1,3,5q-.49,8-1,16a5,5,0,0,1-2,3,4.87,4.87,0,0,1-2.74.85c-1.16,0-11.57.31-19.26.15a8.25,8.25,0,0,1-4-1,8.7,8.7,0,0,1-4-6v-8a9.45,9.45,0,0,1,1-5A9.66,9.66,0,0,1,91.33,452.86Z"/><rect class="cls-62" x="90.7" y="455.68" width="25.01" height="17.22" rx="2"/><rect class="cls-63" x="93.92" y="467.81" width="18.59" height="1.17"/><rect class="cls-63" x="93.92" y="463.29" width="18.59" height="1.17"/><rect class="cls-63" x="93.92" y="458.96" width="18.59" height="1.17"/><g class="cls-12"><path class="cls-13" d="M441.86,300.4a16.16,16.16,0,0,1,7.18-7.61,15.94,15.94,0,0,1,16,1,16.79,16.79,0,0,1,7,12,23.53,23.53,0,0,1,11-1c3.11.47,8.57,1.29,12,6,3.94,5.42,2.28,12,2,13a12,12,0,0,1,5,5c2.87,5.64-.32,11.69-1,13a17.38,17.38,0,0,1-4,5,16.4,16.4,0,0,1,3,6c.35,1.38,2,8.77-3,14-4.21,4.35-10.05,4.06-11,4a12.78,12.78,0,0,1-3,4c-4.35,3.85-11,4.17-16,2a16.19,16.19,0,0,1-7-6,16.45,16.45,0,0,1-5,5,16.89,16.89,0,0,1-23-5,13.49,13.49,0,0,1-5,5c-5,2.76-11,1.65-15-1-6.89-4.51-7-12.8-7-14a17.54,17.54,0,0,1,2-8,13.7,13.7,0,0,1-7-5c-4.27-6-1.32-13.26-1-14a15.82,15.82,0,0,1,6-7,10.63,10.63,0,0,1-3-5c-1.27-4.92,1.42-10.58,6-13a12.08,12.08,0,0,1,8-1,14.23,14.23,0,0,1,2-6,14.74,14.74,0,0,1,13-7A15.14,15.14,0,0,1,441.86,300.4Z"/><path class="cls-13" d="M423,335.79c-4.61-1.32-6.73-3-8-5-.28-.42-2.84-4.56-1-9a10.3,10.3,0,0,1,10-6,10.57,10.57,0,0,1,5-7,10.08,10.08,0,0,1,6-1,13.14,13.14,0,0,1,8,4,11.84,11.84,0,0,1,6-5,12.29,12.29,0,0,1,10,1,14.72,14.72,0,0,1,6,7c1,2.06,3.42,6.91,2,11-1.66,4.76-7.77,6.17-20,9C433.75,337.86,427.4,337,423,335.79Z"/><path class="cls-13" d="M423,335.79a13.09,13.09,0,0,0-8,18c3.34,7.64,14,8.59,18,9a33.55,33.55,0,0,0,15-2,16.1,16.1,0,0,0,7,3,14.76,14.76,0,0,0,5,0,13.88,13.88,0,0,0,5-2,23.22,23.22,0,0,0,11,1,19.19,19.19,0,0,0,11-5c1.08-1.06,7-7.16,5-15-1.71-6.75-8.12-9.62-9-10Z"/><path class="cls-13" d="M451,329.79a15.44,15.44,0,0,0-7-7c-6.76-3.15-16-.67-20,6-3.45,5.77-1.36,12-1,13,.44,1.27,2.38,6.74,8,9,4.88,2,10.68.75,15-3a12.9,12.9,0,0,0,5,4,11.66,11.66,0,0,0,14-3,8.61,8.61,0,0,0,4,3c4.48,1.56,8.55-1.64,9-2,4.32-3.52,4.09-9.52,4-12a16.94,16.94,0,0,0-4-11c-5.69-6.33-14.36-5.1-15-5A18.05,18.05,0,0,0,451,329.79Z"/></g><path class="cls-64" d="M438.86,297.4a16.16,16.16,0,0,1,7.18-7.61,15.94,15.94,0,0,1,16,1,16.79,16.79,0,0,1,7,12,23.53,23.53,0,0,1,11-1c3.11.47,8.57,1.29,12,6,3.94,5.42,2.28,12,2,13a12,12,0,0,1,5,5c2.87,5.64-.32,11.69-1,13a17.38,17.38,0,0,1-4,5,16.4,16.4,0,0,1,3,6c.35,1.38,2,8.77-3,14-4.21,4.35-10.05,4.06-11,4a12.78,12.78,0,0,1-3,4c-4.35,3.85-11,4.17-16,2a16.19,16.19,0,0,1-7-6,16.45,16.45,0,0,1-5,5,16.89,16.89,0,0,1-23-5,13.49,13.49,0,0,1-5,5c-5,2.76-11,1.65-15-1-6.89-4.51-7-12.8-7-14a17.54,17.54,0,0,1,2-8,13.7,13.7,0,0,1-7-5c-4.27-6-1.32-13.26-1-14a15.82,15.82,0,0,1,6-7,10.63,10.63,0,0,1-3-5c-1.27-4.92,1.42-10.58,6-13a12.08,12.08,0,0,1,8-1,14.23,14.23,0,0,1,2-6,14.74,14.74,0,0,1,13-7A15.14,15.14,0,0,1,438.86,297.4Z"/><path class="cls-65" d="M420,332.79c-4.61-1.32-6.73-3-8-5-.28-.42-2.84-4.56-1-9a10.3,10.3,0,0,1,10-6,10.57,10.57,0,0,1,5-7,10.08,10.08,0,0,1,6-1,13.14,13.14,0,0,1,8,4,11.84,11.84,0,0,1,6-5,12.29,12.29,0,0,1,10,1,14.72,14.72,0,0,1,6,7c1,2.06,3.42,6.91,2,11-1.66,4.76-7.77,6.17-20,9C430.75,334.86,424.4,334,420,332.79Z"/><path class="cls-66" d="M420,332.79a13.09,13.09,0,0,0-8,18c3.34,7.64,14,8.59,18,9a33.55,33.55,0,0,0,15-2,16.1,16.1,0,0,0,7,3,14.76,14.76,0,0,0,5,0,13.88,13.88,0,0,0,5-2,23.22,23.22,0,0,0,11,1,19.19,19.19,0,0,0,11-5c1.08-1.06,7-7.16,5-15-1.71-6.75-8.12-9.62-9-10Z"/><path class="cls-67" d="M448,326.79a15.44,15.44,0,0,0-7-7c-6.76-3.15-16-.67-20,6-3.45,5.77-1.36,12-1,13,.44,1.27,2.38,6.74,8,9,4.88,2,10.68.75,15-3a12.9,12.9,0,0,0,5,4,11.66,11.66,0,0,0,14-3,8.61,8.61,0,0,0,4,3c4.48,1.56,8.55-1.64,9-2,4.32-3.52,4.09-9.52,4-12a16.94,16.94,0,0,0-4-11c-5.69-6.33-14.36-5.1-15-5A18.05,18.05,0,0,0,448,326.79Z"/><g class="cls-12"><path class="cls-13" d="M466,368.79h13v11l9,4q2.49-4.5,5-9l10,5-3,9,4,5,8-5q2.49,4.5,5,9l-9,4,1,8h12l1,14H511l-3,7,11,7-7,9-8-8-5,5,8,9-10,7-8-10-9,1v11H467l3-10-8-4-8,10-9-4,8-12-5-6-10,7-5-10,10-4-2-7H429v-13l14,1,2-8-12-5q2-4,4-8l12,4,2-3-7-10,11-6,4,10,7-2Z"/><path class="cls-13" d="M502,406.79a26.84,26.84,0,0,0-26-18c-2.33,0-12.4.07-20,8a26.45,26.45,0,0,0-7,15c-1.42,11,4.45,19,6,21a29,29,0,0,0,15,10,28.45,28.45,0,0,0,15,0c2.16-.61,10.93-3.24,16-12C507.22,420.1,502.88,409,502,406.79Zm-12,24c-.83.73-7.72,6.63-17,5a21.68,21.68,0,0,1-17-18,19,19,0,0,1,2-11,18.73,18.73,0,0,1,8-8,19.43,19.43,0,0,1,8-2c2.63-.18,8.41-.59,14,3,1.17.75,8,5.32,9,14C498.14,423.4,491.16,429.79,490,430.79Z"/><path class="cls-13" d="M480,401.79a16.57,16.57,0,0,0-11,1,13.92,13.92,0,0,0-6,5,14.29,14.29,0,0,0-2,10,15.8,15.8,0,0,0,6,10c.75.58,6.14,4.59,13,3,6.07-1.41,11.76-6.85,12-14C492.29,408.89,485.74,403.36,480,401.79Z"/></g><path class="cls-68" d="M463,365.79h13v11l9,4q2.49-4.5,5-9l10,5-3,9,4,5,8-5q2.49,4.5,5,9l-9,4,1,8h12l1,14H508l-3,7,11,7-7,9-8-8-5,5,8,9-10,7-8-10-9,1v11H464l3-10-8-4-8,10-9-4,8-12-5-6-10,7-5-10,10-4-2-7H426v-13l14,1,2-8-12-5q2-4,4-8l12,4,2-3-7-10,11-6,4,10,7-2Z"/><path class="cls-69" d="M499,403.79a26.84,26.84,0,0,0-26-18c-2.33,0-12.4.07-20,8a26.45,26.45,0,0,0-7,15c-1.42,11,4.45,19,6,21a29,29,0,0,0,15,10,28.45,28.45,0,0,0,15,0c2.16-.61,10.93-3.24,16-12C504.22,417.1,499.88,406,499,403.79Zm-12,24c-.83.73-7.72,6.63-17,5a21.68,21.68,0,0,1-17-18,19,19,0,0,1,2-11,18.73,18.73,0,0,1,8-8,19.43,19.43,0,0,1,8-2c2.63-.18,8.41-.59,14,3,1.17.75,8,5.32,9,14C495.14,420.4,488.16,426.79,487,427.79Z"/><path class="cls-70" d="M477,398.79a16.57,16.57,0,0,0-11,1,13.92,13.92,0,0,0-6,5,14.29,14.29,0,0,0-2,10,15.8,15.8,0,0,0,6,10c.75.58,6.14,4.59,13,3,6.07-1.41,11.76-6.85,12-14C489.29,405.89,482.74,400.36,477,398.79Z"/><g class="cls-31"><path class="cls-13" d="M184.31,263.28a27.92,27.92,0,0,1,13-8c2.75-.75,9.79-2.69,17,1a21.48,21.48,0,0,1,9,9,25.9,25.9,0,0,1,7-2,27.44,27.44,0,0,1,18,4c10.39,6.65,13,20.44,12,30-1.54,14.21-11.83,24.77-22,29-6.1,2.54-10.83,2.25-20,2-10.67-.29-25.94-.49-45,0a5.53,5.53,0,0,0-3,1c-1,.74-2.85,2.75-2,15,.15,2.23.44,5.32,1,9a3,3,0,0,1-2,0c-5-2-1.8-20.61-1-25a32.56,32.56,0,0,1-6-2c-8.08-3.6-19-12.48-21-27-1.87-13.4,4.79-24.71,12-31a30.43,30.43,0,0,1,18-8A29.43,29.43,0,0,1,184.31,263.28Z"/><path class="cls-13" d="M179.31,278.28c-5.81-2.45-11.32.61-12,1a13.13,13.13,0,0,0-6,16,14.42,14.42,0,0,0,7,8c.86.44,7.18,3.52,13,0,4.85-2.94,5.8-8.32,6-10C188,287.69,185.31,280.82,179.31,278.28Z"/><path class="cls-13" d="M176.31,283.28a5,5,0,0,0-3-1c-2.85,0-4.63,2.48-5,3-.19.26-2.52,3.63-1,7a5.69,5.69,0,0,0,3,3,5.75,5.75,0,0,0,4,0c2.88-1.13,4-4.57,4-7C178.3,287.45,178.29,284.81,176.31,283.28Z"/><path class="cls-13" d="M206.2,275.52a1.5,1.5,0,0,0,0-3,1.5,1.5,0,0,0,0,3Z"/><path class="cls-13" d="M240.05,287.06a1.5,1.5,0,0,0,0-3,1.5,1.5,0,0,0,0,3Z"/><path class="cls-13" d="M205,310.15a1.5,1.5,0,0,0,0-3,1.5,1.5,0,0,0,0,3Z"/><path class="cls-13" d="M226.16,288.43a1.5,1.5,0,0,0,0-3,1.5,1.5,0,0,0,0,3Z"/><path class="cls-13" d="M237.89,310.15a1.5,1.5,0,0,0,0-3,1.5,1.5,0,0,0,0,3Z"/><path class="cls-13" d="M204.05,291.38a1.13,1.13,0,0,0,0-2.25,1.13,1.13,0,0,0,0,2.25Z"/><path class="cls-13" d="M215.79,283.75a1.13,1.13,0,0,0,0-2.25,1.13,1.13,0,0,0,0,2.25Z"/><path class="cls-13" d="M221.07,301.75a1.13,1.13,0,0,0,0-2.25,1.13,1.13,0,0,0,0,2.25Z"/><path class="cls-13" d="M230.66,278.67a1.13,1.13,0,0,0,0-2.25,1.13,1.13,0,0,0,0,2.25Z"/><path class="cls-13" d="M189.57,273.78a1.13,1.13,0,0,0,0-2.25,1.13,1.13,0,0,0,0,2.25Z"/><path class="cls-13" d="M158.46,280.23a1.13,1.13,0,0,0,0-2.25,1.13,1.13,0,0,0,0,2.25Z"/><path class="cls-13" d="M155.13,293.54a1.13,1.13,0,0,0,0-2.25,1.13,1.13,0,0,0,0,2.25Z"/><path class="cls-13" d="M164.72,307.43a1.13,1.13,0,0,0,0-2.25,1.13,1.13,0,0,0,0,2.25Z"/><path class="cls-13" d="M160,319a1.13,1.13,0,0,0,0-2.25,1.13,1.13,0,0,0,0,2.25Z"/><path class="cls-13" d="M188.59,314.86a1.13,1.13,0,0,0,0-2.25,1.13,1.13,0,0,0,0,2.25Z"/><path class="cls-13" d="M194.26,302.16a.75.75,0,0,0,0-1.5.75.75,0,0,0,0,1.5Z"/><path class="cls-13" d="M200.13,321.14a.75.75,0,0,0,0-1.5.75.75,0,0,0,0,1.5Z"/><path class="cls-13" d="M222.05,318.2a.75.75,0,0,0,0-1.5.75.75,0,0,0,0,1.5Z"/><path class="cls-13" d="M231.44,300.2a.75.75,0,0,0,0-1.5.75.75,0,0,0,0,1.5Z"/><path class="cls-13" d="M196.22,285.34a.75.75,0,0,0,0-1.5.75.75,0,0,0,0,1.5Z"/><path class="cls-13" d="M151.42,306.47a.75.75,0,0,0,0-1.5.75.75,0,0,0,0,1.5Z"/><path class="cls-13" d="M150.63,286.51a.75.75,0,0,0,0-1.5.75.75,0,0,0,0,1.5Z"/><path class="cls-13" d="M172.94,272.23a.75.75,0,0,0,0-1.5.75.75,0,0,0,0,1.5Z"/><path class="cls-13" d="M201.89,266a.75.75,0,0,0,0-1.5.75.75,0,0,0,0,1.5Z"/><path class="cls-13" d="M219.7,274.38a.75.75,0,0,0,0-1.5.75.75,0,0,0,0,1.5Z"/><path class="cls-13" d="M247.68,294.14a.75.75,0,0,0,0-1.5.75.75,0,0,0,0,1.5Z"/><path class="cls-13" d="M212.07,299.8a1.13,1.13,0,0,0,0-2.25,1.13,1.13,0,0,0,0,2.25Z"/><path class="cls-13" d="M242.39,301.56a1.13,1.13,0,0,0,0-2.25,1.13,1.13,0,0,0,0,2.25Z"/><path class="cls-13" d="M178,317.6a1.13,1.13,0,0,0,0-2.25,1.13,1.13,0,0,0,0,2.25Z"/></g><path class="cls-71" d="M183.31,258.28a27.92,27.92,0,0,1,13-8c2.75-.75,9.79-2.69,17,1a21.48,21.48,0,0,1,9,9,25.9,25.9,0,0,1,7-2,27.44,27.44,0,0,1,18,4c10.39,6.65,13,20.44,12,30-1.54,14.21-11.83,24.77-22,29-6.1,2.54-10.83,2.25-20,2-10.67-.29-25.94-.49-45,0a5.53,5.53,0,0,0-3,1c-1,.74-2.85,2.75-2,15,.15,2.23.44,5.32,1,9a3,3,0,0,1-2,0c-5-2-1.8-20.61-1-25a32.56,32.56,0,0,1-6-2c-8.08-3.6-19-12.48-21-27-1.87-13.4,4.79-24.71,12-31a30.43,30.43,0,0,1,18-8A29.43,29.43,0,0,1,183.31,258.28Z"/><path class="cls-72" d="M178.31,273.28c-5.81-2.45-11.32.61-12,1a13.13,13.13,0,0,0-6,16,14.42,14.42,0,0,0,7,8c.86.44,7.18,3.52,13,0,4.85-2.94,5.8-8.32,6-10C187,282.69,184.31,275.82,178.31,273.28Z"/><path class="cls-71" d="M175.31,278.28a5,5,0,0,0-3-1c-2.85,0-4.63,2.48-5,3-.19.26-2.52,3.63-1,7a5.69,5.69,0,0,0,3,3,5.75,5.75,0,0,0,4,0c2.88-1.13,4-4.57,4-7C177.3,282.45,177.29,279.81,175.31,278.28Z"/><path class="cls-72" d="M205.2,270.52a1.5,1.5,0,0,0,0-3,1.5,1.5,0,0,0,0,3Z"/><path class="cls-72" d="M239.05,282.06a1.5,1.5,0,0,0,0-3,1.5,1.5,0,0,0,0,3Z"/><path class="cls-72" d="M204,305.15a1.5,1.5,0,0,0,0-3,1.5,1.5,0,0,0,0,3Z"/><path class="cls-72" d="M225.16,283.43a1.5,1.5,0,0,0,0-3,1.5,1.5,0,0,0,0,3Z"/><path class="cls-72" d="M236.89,305.15a1.5,1.5,0,0,0,0-3,1.5,1.5,0,0,0,0,3Z"/><path class="cls-72" d="M203.05,286.38a1.13,1.13,0,0,0,0-2.25,1.13,1.13,0,0,0,0,2.25Z"/><path class="cls-72" d="M214.79,278.75a1.13,1.13,0,0,0,0-2.25,1.13,1.13,0,0,0,0,2.25Z"/><path class="cls-72" d="M220.07,296.75a1.13,1.13,0,0,0,0-2.25,1.13,1.13,0,0,0,0,2.25Z"/><path class="cls-72" d="M229.66,273.67a1.13,1.13,0,0,0,0-2.25,1.13,1.13,0,0,0,0,2.25Z"/><path class="cls-72" d="M188.57,268.78a1.13,1.13,0,0,0,0-2.25,1.13,1.13,0,0,0,0,2.25Z"/><path class="cls-72" d="M157.46,275.23a1.13,1.13,0,0,0,0-2.25,1.13,1.13,0,0,0,0,2.25Z"/><path class="cls-72" d="M154.13,288.54a1.13,1.13,0,0,0,0-2.25,1.13,1.13,0,0,0,0,2.25Z"/><path class="cls-72" d="M163.72,302.43a1.13,1.13,0,0,0,0-2.25,1.13,1.13,0,0,0,0,2.25Z"/><path class="cls-72" d="M159,314a1.13,1.13,0,0,0,0-2.25,1.13,1.13,0,0,0,0,2.25Z"/><path class="cls-72" d="M187.59,309.86a1.13,1.13,0,0,0,0-2.25,1.13,1.13,0,0,0,0,2.25Z"/><path class="cls-72" d="M193.26,297.16a.75.75,0,0,0,0-1.5.75.75,0,0,0,0,1.5Z"/><path class="cls-72" d="M199.13,316.14a.75.75,0,0,0,0-1.5.75.75,0,0,0,0,1.5Z"/><path class="cls-72" d="M221.05,313.2a.75.75,0,0,0,0-1.5.75.75,0,0,0,0,1.5Z"/><path class="cls-72" d="M230.44,295.2a.75.75,0,0,0,0-1.5.75.75,0,0,0,0,1.5Z"/><path class="cls-72" d="M195.22,280.34a.75.75,0,0,0,0-1.5.75.75,0,0,0,0,1.5Z"/><path class="cls-72" d="M150.42,301.47a.75.75,0,0,0,0-1.5.75.75,0,0,0,0,1.5Z"/><path class="cls-72" d="M149.63,281.51a.75.75,0,0,0,0-1.5.75.75,0,0,0,0,1.5Z"/><path class="cls-72" d="M171.94,267.23a.75.75,0,0,0,0-1.5.75.75,0,0,0,0,1.5Z"/><path class="cls-72" d="M200.89,261a.75.75,0,0,0,0-1.5.75.75,0,0,0,0,1.5Z"/><path class="cls-72" d="M218.7,269.38a.75.75,0,0,0,0-1.5.75.75,0,0,0,0,1.5Z"/><path class="cls-72" d="M246.68,289.14a.75.75,0,0,0,0-1.5.75.75,0,0,0,0,1.5Z"/><path class="cls-72" d="M211.07,294.8a1.13,1.13,0,0,0,0-2.25,1.13,1.13,0,0,0,0,2.25Z"/><path class="cls-72" d="M241.39,296.56a1.13,1.13,0,0,0,0-2.25,1.13,1.13,0,0,0,0,2.25Z"/><path class="cls-72" d="M177,312.6a1.13,1.13,0,0,0,0-2.25,1.13,1.13,0,0,0,0,2.25Z"/><path class="cls-73" d="M227.83,279.57c-4.36-3.11-10.14-1.48-11.93-1a5.53,5.53,0,0,0-3.19,1.87,4.25,4.25,0,0,0-.86,3.21,4.13,4.13,0,0,0,1.11,2.16h17a5.48,5.48,0,0,0,.06-3.71A5.64,5.64,0,0,0,227.83,279.57Z"/><path class="cls-74" d="M213,285.83a5.44,5.44,0,0,0,1.34,2.66,5.37,5.37,0,0,0,2.48,1.53l11.62.19a5,5,0,0,0,1.34-2.1,5.12,5.12,0,0,0,.19-2.28Z"/><g class="cls-12"><path class="cls-13" d="M171.25,350.48l-54.13-.13a13.26,13.26,0,0,0-5.51,1.12,13.68,13.68,0,0,0-5.58,4.7,17.52,17.52,0,0,0-3.13,11.74,16.73,16.73,0,0,0,11.52,13.78,13.13,13.13,0,0,0,3.48.48c8.77.17,17.67.16,23.38.13-.68,1-1.69,2.5-2.9,4.31-5.82,8.65-6.19,9.3-6.52,10A24.19,24.19,0,0,0,129,408.87a19.16,19.16,0,0,0,4.17,11.21,11,11,0,0,0,4.7,3.66,11.6,11.6,0,0,0,7.82-.26c1.89-.62,4-1.71,7.66-5.13,6.65-6.26,5.52-8.24,9-10,3.67-1.87,5.29.15,15,0A54,54,0,0,0,189.51,407c7-1.66,11.85-4.64,16.83-7.69a88.44,88.44,0,0,0,11-8,21.09,21.09,0,0,1-1-6,21.46,21.46,0,0,1,1-7c-6.59,4.65-10.59,7.79-13.22,9.91a50,50,0,0,1-10.88,6.93l-.86.37c-3.59,1.48-9.81,3.26-18.78,2.09a52.76,52.76,0,0,0-7.57-.26,24.07,24.07,0,0,0-6.52.78,18.11,18.11,0,0,0-7.17,4.18c-3.25,3.1-2.89,5.21-7,9-1.91,1.76-3.06,2.28-4,2-1.36-.42-1.86-2.41-2-3-1.31-5.28,4.19-11.73,7-15,3.08-3.61,9.42-11,19.09-13.2,1.69-.38,2.08-.28,3.91-.8,2.76-.81,9.4-2.73,13-9,.1-.19.28-.5.49-.91.52-1,3.95-7.85.51-14.09A14,14,0,0,0,171.25,350.48Z"/><circle class="cls-13" cx="117.84" cy="365.85" r="4.5"/><circle class="cls-13" cx="144.84" cy="365.85" r="4.5"/><circle class="cls-13" cx="170.84" cy="365.85" r="4.5"/></g><path class="cls-75" d="M168.25,347.48l-54.13-.13a13.26,13.26,0,0,0-5.51,1.12,13.68,13.68,0,0,0-5.58,4.7,17.52,17.52,0,0,0-3.13,11.74,16.73,16.73,0,0,0,11.52,13.78,13.13,13.13,0,0,0,3.48.48c8.77.17,17.67.16,23.38.13-.68,1-1.69,2.5-2.9,4.31-5.82,8.65-6.19,9.3-6.52,10A24.19,24.19,0,0,0,126,405.87a19.16,19.16,0,0,0,4.17,11.21,11,11,0,0,0,4.7,3.66,11.6,11.6,0,0,0,7.82-.26c1.89-.62,4-1.71,7.66-5.13,6.65-6.26,5.52-8.24,9-10,3.67-1.87,5.29.15,15,0A54,54,0,0,0,186.51,404c7-1.66,11.85-4.64,16.83-7.69a88.44,88.44,0,0,0,11-8,21.09,21.09,0,0,1-1-6,21.46,21.46,0,0,1,1-7c-6.59,4.65-10.59,7.79-13.22,9.91a50,50,0,0,1-10.88,6.93l-.86.37c-3.59,1.48-9.81,3.26-18.78,2.09a52.76,52.76,0,0,0-7.57-.26,24.07,24.07,0,0,0-6.52.78,18.11,18.11,0,0,0-7.17,4.18c-3.25,3.1-2.89,5.21-7,9-1.91,1.76-3.06,2.28-4,2-1.36-.42-1.86-2.41-2-3-1.31-5.28,4.19-11.73,7-15,3.08-3.61,9.42-11,19.09-13.2,1.69-.38,2.08-.28,3.91-.8,2.76-.81,9.4-2.73,13-9,.1-.19.28-.5.49-.91.52-1,3.95-7.85.51-14.09A14,14,0,0,0,168.25,347.48Z"/><circle class="cls-76" cx="114.84" cy="362.85" r="4.5"/><circle class="cls-76" cx="141.84" cy="362.85" r="4.5"/><circle class="cls-76" cx="167.84" cy="362.85" r="4.5"/><line class="cls-77" x1="577.82" y1="428.05" x2="578.34" y2="468.94"/><circle class="cls-78" cx="578.34" cy="472.2" r="5.28"/><g class="cls-12"><rect class="cls-13" x="525.04" y="363.79" width="79" height="71" rx="16.11"/><path class="cls-13" d="M553,391.79a12.47,12.47,0,0,0-8,10,12.65,12.65,0,0,0,8,13h16a12,12,0,0,0-1-23Z"/><circle class="cls-13" cx="561.04" cy="405.79" r="4"/><path class="cls-13" d="M541,371.79a3.83,3.83,0,0,0-4,0,3.91,3.91,0,0,0-2,4,3.74,3.74,0,0,0,3,3,3.87,3.87,0,0,0,4-2A3.92,3.92,0,0,0,541,371.79Z"/></g><rect class="cls-79" x="522.04" y="360.79" width="79" height="71" rx="16.11"/><path class="cls-80" d="M550,388.79a12.47,12.47,0,0,0-8,10,12.65,12.65,0,0,0,8,13h16a12,12,0,0,0-1-23Z"/><circle class="cls-81" cx="558.04" cy="402.79" r="4"/><path class="cls-82" d="M538,368.79a3.83,3.83,0,0,0-4,0,3.91,3.91,0,0,0-2,4,3.74,3.74,0,0,0,3,3,3.87,3.87,0,0,0,4-2A3.92,3.92,0,0,0,538,368.79Z"/><g class="cls-12"><path class="cls-13" d="M234.62,23.06a30.28,30.28,0,0,0-13-16,33.63,33.63,0,0,0-32,0,30.28,30.28,0,0,0-13,16,30.37,30.37,0,0,0-1,15,32.5,32.5,0,0,0,5,13l6,9h38l6-9a32.35,32.35,0,0,0,5-13A30.25,30.25,0,0,0,234.62,23.06Z"/><path class="cls-13" d="M186.62,60.06h38v9.5a6.91,6.91,0,0,1-1,1c-2.36,2-5.38,1.91-6.65,1.9-3.81,0-13.12.09-25.65,0a6.23,6.23,0,0,1-2.85-1,6.3,6.3,0,0,1-1.9-1.9Z"/><path class="cls-13" d="M214.1,71.16h8a43.11,43.11,0,0,1-1.9,3.91c-.63,1.13-1.27,2.17-1.89,3.1H192.1a1.72,1.72,0,0,1-1-1,1.76,1.76,0,0,1,1-2h20l1-1C213.43,73.16,213.77,72.16,214.1,71.16Z"/><path class="cls-13" d="M191.83,81.15H217.1c-.24.6-.52,1.24-.85,1.9A23.21,23.21,0,0,1,215,85.31l-19.91-.15a4,4,0,0,1-3-2A3.43,3.43,0,0,1,191.83,81.15Z"/><path class="cls-13" d="M194.1,89.16a5.42,5.42,0,0,0,1,3,5.8,5.8,0,0,0,3,2,10.43,10.43,0,0,0,6,0,20.49,20.49,0,0,0,9-5Z"/><path class="cls-13" d="M207.56,24.17l3.76,4.43-1,6-.15,28.34h-2.6q.21-15.82.43-31.66C207.85,28.89,207.7,26.53,207.56,24.17Z"/><path class="cls-13" d="M204.25,30.23l.88,2.55.2,28h-1.27Q204.15,45.49,204.25,30.23Z"/></g><path class="cls-83" d="M231.62,20.06a30.28,30.28,0,0,0-13-16,33.63,33.63,0,0,0-32,0,30.28,30.28,0,0,0-13,16,30.37,30.37,0,0,0-1,15,32.5,32.5,0,0,0,5,13l6,9h38l6-9a32.35,32.35,0,0,0,5-13A30.25,30.25,0,0,0,231.62,20.06Z"/><path class="cls-84" d="M183.62,57.06h38v9.5a6.91,6.91,0,0,1-1,1c-2.36,2-5.38,1.91-6.65,1.9-3.81,0-13.12.09-25.65,0a6.23,6.23,0,0,1-2.85-1,6.3,6.3,0,0,1-1.9-1.9Z"/><path class="cls-84" d="M211.1,68.16h8a43.11,43.11,0,0,1-1.9,3.91c-.63,1.13-1.27,2.17-1.89,3.1H189.1a1.72,1.72,0,0,1-1-1,1.76,1.76,0,0,1,1-2h20l1-1C210.43,70.16,210.77,69.16,211.1,68.16Z"/><path class="cls-84" d="M188.83,78.15H214.1c-.24.6-.52,1.24-.85,1.9A23.21,23.21,0,0,1,212,82.31l-19.91-.15a4,4,0,0,1-3-2A3.43,3.43,0,0,1,188.83,78.15Z"/><path class="cls-84" d="M191.1,86.16a5.42,5.42,0,0,0,1,3,5.8,5.8,0,0,0,3,2,10.43,10.43,0,0,0,6,0,20.49,20.49,0,0,0,9-5Z"/><path class="cls-84" d="M204.56,21.17l3.76,4.43-1,6-.15,28.34h-2.6q.21-15.82.43-31.66C204.85,25.89,204.7,23.53,204.56,21.17Z"/><path class="cls-84" d="M201.25,27.23l.88,2.55.2,28h-1.27Q201.15,42.49,201.25,27.23Z"/><g class="cls-12"><path class="cls-13" d="M248.24,323.27l-1,16,5,1,3-6,6,2-2,7,7,3,12-9,5,8-13,7,2,4,9-3,5,9-8,1v6l12,1,2,8-11-1v4l10,1-1,8-12-4-2,5,8,6-2,5h-8l9,6-2,5-14-8-6,6,7,7-3,4-9-8-7,1v21l-8-1-1-19-4-1-2,6-6-1,1-11-4-1-11,10-4-5,10-8-3-4-8,3-4-7,9-5-1-7-10,5-2-7,11-4v-4l-11,1-1-9h11l2-6-10-1,4-9,8,4,3-3-12-11,5-6,12,11,6-2v-8h7v5l4-1q-.5-8.5-1-17Z"/><path class="cls-13" d="M270.24,365.27c-4.25-10-13.35-14-16-15a28.66,28.66,0,0,0-21,0,26.8,26.8,0,0,0-13,11c-7.13,12.15-.93,25.76,1,30,1.52,3.33,3.48,7.5,8,11a25.43,25.43,0,0,0,17,5c12.72-1.14,19.5-12.49,21-15C268.56,390.06,275.7,378.11,270.24,365.27Zm-8.72,23.16c-1.11,1.87-6.13,10.27-15.55,11.11a18.77,18.77,0,0,1-12.59-3.7,19.75,19.75,0,0,1-5.93-8.15c-1.43-3.14-6-13.21-.74-22.22a19.88,19.88,0,0,1,9.63-8.14,21.26,21.26,0,0,1,15.55,0c2,.75,8.7,3.69,11.85,11.11C267.78,378,262.49,386.8,261.52,388.43Z"/><path class="cls-13" d="M249.24,359.27c-1.66-1.61-5.41-1.39-7,1a4.64,4.64,0,0,0,0,5,4.58,4.58,0,0,0,5,2C250.21,366.32,251.33,361.29,249.24,359.27Z"/><path class="cls-13" d="M239.24,369.27a4.92,4.92,0,0,0-4-1c-2.68.54-3.76,3.38-4,4s-1.7,4.65,1,7a5.77,5.77,0,0,0,7,0C242.35,376.89,241.88,371.41,239.24,369.27Z"/><path class="cls-13" d="M250.24,377.27a4.82,4.82,0,0,0-5-1c-2.5,1-3.17,4.06-3,6a5.59,5.59,0,0,0,2,4c.11.08,2.11,1.6,4,1C251.35,386.27,252.93,379.93,250.24,377.27Z"/><path class="cls-13" d="M239,387.18c-1.47-.73-3.2.44-3.61.72a4.56,4.56,0,0,0-2.17,3.61,3.83,3.83,0,0,0,2.17,3.61c2,.72,4.52-1.37,5.06-3.61C240.81,390.06,240.5,387.9,239,387.18Z"/><path class="cls-13" d="M261.24,375.27a4.43,4.43,0,0,0-5,0c-1.87,1.39-1.85,4.2-1,6,1.16,2.44,4.25,3.86,6,3C263.66,383.07,264.08,377.26,261.24,375.27Z"/></g><path class="cls-85" d="M245.24,320.27l-1,16,5,1,3-6,6,2-2,7,7,3,12-9,5,8-13,7,2,4,9-3,5,9-8,1v6l12,1,2,8-11-1v4l10,1-1,8-12-4-2,5,8,6-2,5h-8l9,6-2,5-14-8-6,6,7,7-3,4-9-8-7,1v21l-8-1-1-19-4-1-2,6-6-1,1-11-4-1-11,10-4-5,10-8-3-4-8,3-4-7,9-5-1-7-10,5-2-7,11-4v-4l-11,1-1-9h11l2-6-10-1,4-9,8,4,3-3-12-11,5-6,12,11,6-2v-8h7v5l4-1q-.5-8.5-1-17Z"/><path class="cls-86" d="M267.24,362.27c-4.25-10-13.35-14-16-15a28.66,28.66,0,0,0-21,0,26.8,26.8,0,0,0-13,11c-7.13,12.15-.93,25.76,1,30,1.52,3.33,3.48,7.5,8,11a25.43,25.43,0,0,0,17,5c12.72-1.14,19.5-12.49,21-15C265.56,387.06,272.7,375.11,267.24,362.27Zm-8.72,23.16c-1.11,1.87-6.13,10.27-15.55,11.11a18.77,18.77,0,0,1-12.59-3.7,19.75,19.75,0,0,1-5.93-8.15c-1.43-3.14-6-13.21-.74-22.22a19.88,19.88,0,0,1,9.63-8.14,21.26,21.26,0,0,1,15.55,0c2,.75,8.7,3.69,11.85,11.11C264.78,375,259.49,383.8,258.52,385.43Z"/><path class="cls-87" d="M246.24,356.27c-1.66-1.61-5.41-1.39-7,1a4.64,4.64,0,0,0,0,5,4.58,4.58,0,0,0,5,2C247.21,363.32,248.33,358.29,246.24,356.27Z"/><path class="cls-87" d="M236.24,366.27a4.92,4.92,0,0,0-4-1c-2.68.54-3.76,3.38-4,4s-1.7,4.65,1,7a5.77,5.77,0,0,0,7,0C239.35,373.89,238.88,368.41,236.24,366.27Z"/><path class="cls-87" d="M247.24,374.27a4.82,4.82,0,0,0-5-1c-2.5,1-3.17,4.06-3,6a5.59,5.59,0,0,0,2,4c.11.08,2.11,1.6,4,1C248.35,383.27,249.93,376.93,247.24,374.27Z"/><path class="cls-87" d="M236,384.18c-1.47-.73-3.2.44-3.61.72a4.56,4.56,0,0,0-2.17,3.61,3.83,3.83,0,0,0,2.17,3.61c2,.72,4.52-1.37,5.06-3.61C237.81,387.06,237.5,384.9,236,384.18Z"/><path class="cls-87" d="M258.24,372.27a4.43,4.43,0,0,0-5,0c-1.87,1.39-1.85,4.2-1,6,1.16,2.44,4.25,3.86,6,3C260.66,380.07,261.08,374.26,258.24,372.27Z"/><g class="cls-12"><path class="cls-13" d="M354,361.33c-1.23-.35-10.6-2.93-19,3-1.71,1.21-8.89,6.66-9,16-.08,6.13,2.89,13.56,10,17a18.2,18.2,0,0,0,20-3v18l14-18a25,25,0,0,0,9,6,25.46,25.46,0,0,0,15,1c10.61-2.71,19.65-13.46,19-24-.08-1.18-.61-9.69-7-13a12.7,12.7,0,0,0-8-1,16.85,16.85,0,0,0-1-7c-3.38-8.86-13.76-11.44-16-12-3.13-.77-9.47-2.35-16,1C356,350,354.23,360.09,354,361.33Z"/></g><path class="cls-88" d="M352,357.33c-1.23-.35-10.6-2.93-19,3-1.71,1.21-8.89,6.66-9,16-.08,6.13,2.89,13.56,10,17a18.2,18.2,0,0,0,20-3v18l14-18a25,25,0,0,0,9,6,25.46,25.46,0,0,0,15,1c10.61-2.71,19.65-13.46,19-24-.08-1.18-.61-9.69-7-13a12.7,12.7,0,0,0-8-1,16.85,16.85,0,0,0-1-7c-3.38-8.86-13.76-11.44-16-12-3.13-.77-9.47-2.35-16,1C354,346,352.23,356.09,352,357.33Z"/><g class="cls-12"><rect class="cls-13" x="82.21" y="284.48" width="48" height="60" rx="9.74" transform="matrix(0.09, -1, 1, 0.09, -216.57, 391.87)"/><line class="cls-89" x1="89.16" y1="300.83" x2="106.01" y2="316.5"/><line class="cls-89" x1="125.43" y1="304.12" x2="106.04" y2="316.5"/></g><rect class="cls-90" x="79.21" y="281.48" width="48" height="60" rx="9.74" transform="matrix(0.09, -1, 1, 0.09, -216.31, 386.15)"/><line class="cls-91" x1="86.16" y1="297.83" x2="103.01" y2="313.5"/><line class="cls-91" x1="122.43" y1="301.12" x2="103.04" y2="313.5"/><g class="cls-12"><rect class="cls-13" x="439.18" y="38.32" width="49.3" height="64.43" rx="9.13" transform="translate(370.33 530.29) rotate(-87.15)"/><path class="cls-13" d="M468.76,63.47a14.54,14.54,0,0,0-21-3.14c-.7.57-5.79,4.9-5,11.24.66,5.32,5,8.18,6.09,8.93,5.42,3.61,13.72,3.78,17.52-.44a8.49,8.49,0,0,0,1.72-3Z"/><path class="cls-13" d="M468.76,63.47a9.45,9.45,0,0,1,3.75-1.92,8.92,8.92,0,0,1,6.75.86C483.15,64.87,483,70,483,70.69c-.08,3.41-1.84,7.37-5.42,9.14-2,1-5.81,1.88-8.09-.15a5.05,5.05,0,0,1-1.45-2.34Z"/><ellipse class="cls-13" cx="446.64" cy="51.36" rx="3.42" ry="4.3" transform="translate(373.13 494.9) rotate(-87.15)"/><ellipse class="cls-13" cx="444.81" cy="88.1" rx="3.42" ry="4.21" transform="translate(334.7 527.98) rotate(-87.15)"/><ellipse class="cls-13" cx="489.41" cy="52.02" rx="3.13" ry="3.72" transform="translate(413.12 538.24) rotate(-87.15)"/><ellipse class="cls-13" cx="488.96" cy="61.01" rx="4.3" ry="4.6" transform="translate(403.72 546.34) rotate(-87.15)"/><ellipse class="cls-13" cx="484.97" cy="86.08" rx="3.52" ry="4.21" transform="translate(374.88 566.18) rotate(-87.15)"/></g><rect class="cls-92" x="436.18" y="35.32" width="49.3" height="64.43" rx="9.13" transform="matrix(0.05, -1, 1, 0.05, 370.47, 524.45)"/><path class="cls-93" d="M465.76,60.47a14.54,14.54,0,0,0-21-3.14c-.7.57-5.79,4.9-5,11.24.66,5.32,5,8.18,6.09,8.93,5.42,3.61,13.72,3.78,17.52-.44a8.49,8.49,0,0,0,1.72-3Z"/><path class="cls-94" d="M465.76,60.47a9.45,9.45,0,0,1,3.75-1.92,8.92,8.92,0,0,1,6.75.86C480.15,61.87,480,67,480,67.69c-.08,3.41-1.84,7.37-5.42,9.14-2,1-5.81,1.88-8.09-.15a5.05,5.05,0,0,1-1.45-2.34Z"/><ellipse class="cls-95" cx="443.64" cy="48.36" rx="3.42" ry="4.3" transform="translate(373.28 489.05) rotate(-87.15)"/><ellipse class="cls-95" cx="441.81" cy="85.1" rx="3.42" ry="4.21" transform="translate(334.85 522.13) rotate(-87.15)"/><ellipse class="cls-95" cx="486.41" cy="49.02" rx="3.13" ry="3.72" transform="translate(413.26 532.39) rotate(-87.15)"/><ellipse class="cls-95" cx="485.96" cy="58.01" rx="4.3" ry="4.6" transform="translate(403.86 540.49) rotate(-87.15)"/><ellipse class="cls-96" cx="481.97" cy="83.08" rx="3.52" ry="4.21" transform="translate(375.03 560.33) rotate(-87.15)"/><ellipse class="cls-97" cx="55.67" cy="317.07" rx="5.35" ry="5.74" transform="translate(-45.52 11.47) rotate(-8.36)"/><g class="cls-12"><circle class="cls-13" cx="446.08" cy="202.93" r="9.39"/><ellipse class="cls-13" cx="447.13" cy="203.46" rx="4.43" ry="3.91"/><ellipse class="cls-13" cx="447.13" cy="203.46" rx="3.53" ry="3.12"/></g><circle class="cls-98" cx="443.08" cy="199.93" r="9.39"/><ellipse class="cls-99" cx="444.13" cy="200.46" rx="4.43" ry="3.91"/><ellipse class="cls-100" cx="444.13" cy="200.46" rx="3.53" ry="3.12"/><circle class="cls-101" cx="472.15" cy="181.58" r="4.43"/><ellipse class="cls-102" cx="638.81" cy="291.89" rx="7.57" ry="7.17" transform="translate(155.1 801.1) rotate(-71.03)"/><circle class="cls-101" cx="500.34" cy="130.12" r="2.3"/><circle class="cls-101" cx="506.15" cy="145.52" r="1.77"/><path class="cls-101" d="M518.3,161.12a1.5,1.5,0,0,0,0-3,1.5,1.5,0,0,0,0,3Z"/><path class="cls-32" d="M534.73,71.77a1.5,1.5,0,0,0,0-3,1.5,1.5,0,0,0,0,3Z"/><path class="cls-32" d="M521.69,66a1.5,1.5,0,0,0,0-3,1.5,1.5,0,0,0,0,3Z"/><path class="cls-32" d="M518,58.43c2.89,0,2.9-4.5,0-4.5s-2.9,4.5,0,4.5Z"/><path class="cls-32" d="M530,60.07a1.8,1.8,0,0,0,0-3.6,1.8,1.8,0,0,0,0,3.6Z"/><path class="cls-32" d="M506.56,46a1.8,1.8,0,0,0,0-3.6,1.8,1.8,0,0,0,0,3.6Z"/><path class="cls-32" d="M520.64,45.61c2.51,0,2.52-3.9,0-3.9s-2.51,3.9,0,3.9Z"/><g class="cls-12"><path class="cls-13" d="M148.54,62.08c-.25-.69-2.18-5.75-6.78-7-5.09-1.43-11.69,2.23-14.09,9.39a12,12,0,0,0-5.74.26,12.27,12.27,0,0,0-8.08,8.09,12.62,12.62,0,0,0,3.91,13l45.13.52a13.61,13.61,0,0,0,7-8.35,12.32,12.32,0,0,0-.26-7.3c-1.77-4.93-6.28-7-8.09-7.83A19,19,0,0,0,148.54,62.08Z"/><ellipse class="cls-13" cx="145.54" cy="73.95" rx="6.91" ry="6.65"/></g><path class="cls-103" d="M145.54,59.08c-.25-.69-2.18-5.75-6.78-7-5.09-1.43-11.69,2.23-14.09,9.39a12,12,0,0,0-5.74.26,12.27,12.27,0,0,0-8.08,8.09,12.62,12.62,0,0,0,3.91,13l45.13.52a13.61,13.61,0,0,0,7-8.35,12.32,12.32,0,0,0-.26-7.3c-1.77-4.93-6.28-7-8.09-7.83A19,19,0,0,0,145.54,59.08Z"/><ellipse class="cls-104" cx="142.54" cy="70.95" rx="6.91" ry="6.65"/><g class="cls-12"><polygon class="cls-13" points="30.19 245.31 49.21 244.35 52.94 235.16 63.09 241.17 57.58 251.02 62.17 256.16 67.99 250.21 75.66 257.98 67.04 264.93 67.34 282.18 76.47 285.13 68.52 297.26 64.09 290.81 58.42 295.18 65.03 302.77 57.53 310.68 51.86 301.71 37.67 300.98 32.45 311.07 20.57 306.5 24.47 299.4 19.12 294.58 13.8 300.23 6.01 290.9 13.45 285.61 12.41 268.94 3 265.75 5.67 256.38 13.46 258.91 17.41 252.59 10.78 248.13 25.57 236.51 30.19 245.31"/><path class="cls-13" d="M52.59,282.55l-21.7,2-2.17,2.26a17.8,17.8,0,0,1-2-1.94,10.06,10.06,0,0,1-2.28-3.57,7.68,7.68,0,0,1-.33-1.45L23.3,269.4a5,5,0,0,1,4.56-5.33L51,262.27a5,5,0,0,1,5.33,4.55l.82,10.41a5.13,5.13,0,0,1-4.56,5.32Z"/><path class="cls-105" d="M29.64,271.79l15.08-1.18"/><path class="cls-105" d="M30,276.34l15.09-1.18"/></g><polygon class="cls-106" points="27.19 242.31 46.21 241.35 49.94 232.16 60.09 238.17 54.58 248.02 59.17 253.16 64.99 247.21 72.66 254.98 64.04 261.93 64.34 279.18 73.47 282.13 65.52 294.26 61.09 287.81 55.42 292.18 62.03 299.77 54.53 307.68 48.86 298.71 34.67 297.98 29.45 308.07 17.57 303.5 21.47 296.4 16.12 291.58 10.8 297.23 3.01 287.9 10.45 282.61 9.41 265.94 0 262.75 2.67 253.38 10.46 255.91 14.41 249.59 7.78 245.13 22.57 233.51 27.19 242.31"/><path class="cls-107" d="M49.59,279.55l-21.7,2-2.17,2.26a17.8,17.8,0,0,1-2-1.94,10.06,10.06,0,0,1-2.28-3.57,7.68,7.68,0,0,1-.33-1.45L20.3,266.4a5,5,0,0,1,4.56-5.33L48,259.27a5,5,0,0,1,5.33,4.55l.82,10.41a5.13,5.13,0,0,1-4.56,5.32Z"/><path class="cls-108" d="M26.64,268.79l15.08-1.18"/><path class="cls-108" d="M27,273.34l15.09-1.18"/><g class="cls-12"><path class="cls-13" d="M605.29,348.4l3-17.26-11.64-1.29.86-9.06h7.33l-7.33-17.26-6.9,3.89L587.17,304l4.32-9-10.36-8.63-6.47,6.47-8.62-6v-7.34l-18.12-2.15-2.59,13.37-5.18,3-5.61-9.49-10.78,6.47,6,10.79-9.49,4.31-6.91-3.88-8.19,14.67,11.64,4.31L516,331.14l-13.37.44L506.07,348l12.51-3,4.31,9.92-8.62,6.47,12.51,10.79,7.33-6.9,12.94,4.31.43,8.2,14.67-.44,1.3-7.76,12.94-3,3.88,6,16-14.24-4.74-4.74L595.8,345ZM555,352.71a25.24,25.24,0,1,1,25.24-25.23A25.23,25.23,0,0,1,555,352.71Z"/></g><path class="cls-109" d="M602.29,345.4l3-17.26-11.64-1.29.86-9.06h7.33l-7.33-17.26-6.9,3.89L584.17,301l4.32-9-10.36-8.63-6.47,6.47-8.62-6v-7.34l-18.12-2.15-2.59,13.37-5.18,3-5.61-9.49-10.78,6.47,6,10.79-9.49,4.31-6.91-3.88-8.19,14.67,11.64,4.31L513,328.14l-13.37.44L503.07,345l12.51-3,4.31,9.92-8.62,6.47,12.51,10.79,7.33-6.9,12.94,4.31.43,8.2,14.67-.44,1.3-7.76,12.94-3,3.88,6,16-14.24-4.74-4.74L592.8,342ZM552,349.71a25.24,25.24,0,1,1,25.24-25.23A25.23,25.23,0,0,1,552,349.71Z"/><path class="cls-110" d="M552,306a18.45,18.45,0,1,0,18.45,18.45A18.45,18.45,0,0,0,552,306Zm8.89,20.25c-.36.88-3-.4-4.86,1-2,1.54-1.22,5.07-2.42,5.34s-2.26-3.08-3.89-2.91a2.38,2.38,0,0,0-1.54,1.23,10.41,10.41,0,0,1-.72,1.38c-.09.19-.14.31-.16.3s0-.12.16-.3a10.45,10.45,0,0,1,.72-1.38,3.4,3.4,0,0,0,.25-2.53c-.74-1.83-3.92-1.68-4-3.07-.08-.91,1.21-1.56,1-2.91a2.21,2.21,0,0,0-.26-.71,4.11,4.11,0,0,0-2-1.56c0-.09,2.58,1.46,3.88.65s.36-3.87,1.46-4.37,2.43,2.48,5,2.59c2.3.09,3.65-2.18,4.52-1.62s-.61,2.66.33,5.18C559.16,324.81,561.22,325.52,560.92,326.28Z"/><g class="cls-12"><path class="cls-13" d="M63.77,378.53a18.69,18.69,0,0,0,2.79-3.31A13.21,13.21,0,0,0,69.18,369c0-.6.46-6.24-3.66-8.39a7,7,0,0,0-7.65.82c-3,2.64-2,7.14-1.64,8.51l.09.31a13.09,13.09,0,0,0,4,5.87A17,17,0,0,0,63.77,378.53Z"/><circle class="cls-13" cx="62.38" cy="366.42" r="3.46"/></g><path class="cls-111" d="M60.77,375.53a18.69,18.69,0,0,0,2.79-3.31A13.21,13.21,0,0,0,66.18,366c0-.6.46-6.24-3.66-8.39a7,7,0,0,0-7.65.82c-3,2.64-2,7.14-1.64,8.51l.09.31a13.09,13.09,0,0,0,4,5.87A17,17,0,0,0,60.77,375.53Z"/><circle class="cls-112" cx="59.38" cy="363.42" r="3.46"/><line class="cls-37" x1="365.25" y1="511.57" x2="365.23" y2="510.07"/><line class="cls-113" x1="365.21" y1="506.79" x2="365.12" y2="495.3"/><polyline class="cls-114" points="365.1 493.66 364.87 463.83 364.69 442.31 364.49 416.5"/><line class="cls-37" x1="364.48" y1="414.86" x2="364.46" y2="413.36"/><circle class="cls-32" cx="364.85" cy="518.88" r="7.3"/><circle class="cls-4" cx="212.58" cy="488.36" r="3.26"/><rect class="cls-115" x="309.46" y="472.96" width="14.61" height="0.55" transform="translate(-156.47 790.01) rotate(-90)"/><circle class="cls-4" cx="302.06" cy="508.43" r="2.29"/><path class="cls-32" d="M594.21,475.33a1.5,1.5,0,0,0,0-3,1.5,1.5,0,0,0,0,3Z"/><path class="cls-32" d="M142.38,472.16a1.5,1.5,0,0,0,0-3,1.5,1.5,0,0,0,0,3Z"/><path class="cls-3" d="M501.08,508.2a1.5,1.5,0,0,0,0-3,1.5,1.5,0,0,0,0,3Z"/><path class="cls-3" d="M285.86,555.16a1.5,1.5,0,0,0,0-3,1.5,1.5,0,0,0,0,3Z"/><path class="cls-3" d="M414.12,549.86a1.5,1.5,0,0,0,0-3,1.5,1.5,0,0,0,0,3Z"/><path class="cls-116" d="M228,554.38a1.5,1.5,0,0,0,0-3,1.5,1.5,0,0,0,0,3Z"/><path class="cls-116" d="M345.34,535.59a1.5,1.5,0,0,0,0-3,1.5,1.5,0,0,0,0,3Z"/><path class="cls-116" d="M483.08,482.83c2.51,0,2.51-3.9,0-3.9s-2.51,3.9,0,3.9Z"/><path class="cls-116" d="M627.86,508.65c2.51,0,2.52-3.9,0-3.9s-2.51,3.9,0,3.9Z"/><path class="cls-29" d="M629.17,432a1.5,1.5,0,0,0,0-3,1.5,1.5,0,0,0,0,3Z"/><path class="cls-117" d="M90.21,426a1.5,1.5,0,0,0,0-3,1.5,1.5,0,0,0,0,3Z"/><path class="cls-117" d="M204.47,516a1.5,1.5,0,0,0,0-3,1.5,1.5,0,0,0,0,3Z"/><path class="cls-117" d="M354,469.07a1.5,1.5,0,0,0,0-3,1.5,1.5,0,0,0,0,3Z"/><path class="cls-117" d="M434.08,458.86a1.5,1.5,0,0,0,0-3,1.5,1.5,0,0,0,0,3Z"/><path class="cls-117" d="M526.9,481.26c2.51,0,2.52-3.9,0-3.9s-2.51,3.9,0,3.9Z"/><path class="cls-117" d="M636.47,473.44c2.51,0,2.51-3.9,0-3.9s-2.51,3.9,0,3.9Z"/><path class="cls-118" d="M375.36,366.2l20.68,6-20.13,13.6,1.08-6,10.88-6.52Z"/><path class="cls-118" d="M360.7,385,340,379l20.13-13.6-1.08,6-10.88,6.53Z"/><rect class="cls-118" x="360.1" y="374.82" width="16.93" height="2.54" transform="translate(-121.4 569.01) rotate(-67.07)"/><ellipse class="cls-119" cx="394.49" cy="464.26" rx="2.51" ry="2.13" transform="translate(-116.67 795.73) rotate(-82.61)"/><ellipse class="cls-119" cx="394.64" cy="474.88" rx="2.51" ry="2.13" transform="translate(-127.07 805.14) rotate(-82.61)"/><ellipse class="cls-119" cx="394.64" cy="485.67" rx="2.51" ry="2.13" transform="translate(-137.76 814.54) rotate(-82.61)"/><ellipse class="cls-119" cx="394.64" cy="497.22" rx="2.51" ry="2.13" transform="translate(-149.22 824.61) rotate(-82.61)"/><ellipse class="cls-119" cx="394.64" cy="508.78" rx="2.51" ry="2.13" transform="translate(-160.68 834.67) rotate(-82.61)"/><ellipse class="cls-119" cx="394.64" cy="521.87" rx="2.51" ry="2.13" transform="translate(-173.67 846.09) rotate(-82.61)"/><path class="cls-120" d="M236.25,144.47c-4.85.58-16.81,2.71-26.88,12.34-11,10.53-19.39,29.68-11.78,47.12,6.58,15.09,21.49,20.58,24.8,21.7a30.53,30.53,0,0,0,4.34,8.06c1.84,2.45,10.16,12.68,23.56,12.4,11.82-.24,19.2-8.47,20.46-9.92a20.12,20.12,0,0,0,5,5.58c8.67,6.66,19.62,3.37,20.46,3.1a24.24,24.24,0,0,0,12.4-9.3,24.34,24.34,0,0,0,8.68,8.06c9.88,5.33,20.15,1.45,22.32.62a30.37,30.37,0,0,0,11.16-7.44,25,25,0,0,0,6.82,6.2c8.84,5.41,21.35,5.15,30.39-1.24a28.65,28.65,0,0,0,10.54-14.88,30,30,0,0,0,11.78-3.1c12.26-6.15,15.92-19,16.74-22.32,3.88-15.84-4.77-28.37-6.2-30.38-8.85-12.37-22-15-24.8-15.5a20.17,20.17,0,0,0,.62-9.92c-2.05-10.1-12.28-16.25-20.47-18-12.23-2.58-21.87,4.33-23.56,5.58a52.35,52.35,0,0,0-5.58-9.92c-12.75-17.84-37.93-29.22-62.62-24.8-7.86,1.41-23.33,5.79-35.34,19.84A59.28,59.28,0,0,0,236.25,144.47Z"/><path class="cls-121" d="M242.05,147.68a41.77,41.77,0,0,0-23.73,10.9c-9.71,9.29-17.11,26.2-10.4,41.6,5.81,13.32,19,18.16,21.9,19.16a26.49,26.49,0,0,0,3.83,7.11c1.63,2.16,9,11.19,20.8,11,10.43-.21,16.95-7.48,18.06-8.76a17.78,17.78,0,0,0,4.38,4.93c7.65,5.87,17.32,3,18.06,2.73a21.46,21.46,0,0,0,10.95-8.21,21.39,21.39,0,0,0,7.66,7.12c8.72,4.7,17.78,1.27,19.7.55a26.93,26.93,0,0,0,9.86-6.57,21.78,21.78,0,0,0,6,5.47,24.51,24.51,0,0,0,36.12-14.23,26.54,26.54,0,0,0,10.4-2.73c10.83-5.44,14.06-16.77,14.78-19.71,3.43-14-4.21-25.05-5.47-26.82a34.87,34.87,0,0,0-21.9-13.68,17.61,17.61,0,0,0,.55-8.76c-1.81-8.92-10.84-14.35-18.06-15.87-10.81-2.28-19.32,3.82-20.8,4.92a46.56,46.56,0,0,0-4.93-8.75c-11.25-15.76-33.49-25.8-55.28-21.9-6.94,1.25-20.59,5.11-31.2,17.52A52.48,52.48,0,0,0,242.05,147.68Z"/><path class="cls-122" d="M240.94,142.73a42.78,42.78,0,0,0-24.32,11.17c-10,9.53-17.55,26.86-10.67,42.65,6,13.66,19.46,18.62,22.45,19.64a27.34,27.34,0,0,0,3.93,7.3c1.67,2.21,9.19,11.47,21.32,11.22,10.7-.22,17.38-7.66,18.52-9a18.19,18.19,0,0,0,4.49,5.05c7.85,6,17.76,3.05,18.52,2.81a22,22,0,0,0,11.23-8.42,21.94,21.94,0,0,0,7.85,7.3c8.94,4.82,18.23,1.3,20.2.56a27.44,27.44,0,0,0,10.11-6.74,22.45,22.45,0,0,0,6.17,5.62,25.69,25.69,0,0,0,27.5-1.13,26,26,0,0,0,9.54-13.46,27.21,27.21,0,0,0,10.66-2.81c11.1-5.57,14.41-17.19,15.15-20.2,3.52-14.34-4.31-25.69-5.61-27.5a35.75,35.75,0,0,0-22.45-14c-6,.08-13.19-.8-16.36-5.57-4.42-6.63,2.15-16-1.6-19.68-2.08-2-7.38-2.35-21.32,5.05a48.12,48.12,0,0,0-5.05-9c-11.54-16.15-34.34-26.45-56.68-22.45-7.11,1.27-21.12,5.24-32,18A53.8,53.8,0,0,0,240.94,142.73Z"/><path class="cls-123" d="M240.43,141.28a42.81,42.81,0,0,0-24.33,11.17c-10,9.53-17.55,26.86-10.66,42.65,5.95,13.66,19.45,18.62,22.45,19.64a27.26,27.26,0,0,0,3.92,7.3c1.67,2.21,9.2,11.47,21.33,11.22,10.69-.21,17.38-7.66,18.52-9a18.19,18.19,0,0,0,4.49,5.05c7.84,6,17.76,3,18.52,2.81a22,22,0,0,0,11.22-8.42,21.9,21.9,0,0,0,7.86,7.3c8.94,4.82,18.23,1.31,20.2.56a27.6,27.6,0,0,0,10.1-6.73,22.76,22.76,0,0,0,6.17,5.61,25.15,25.15,0,0,0,37-14.59,27.17,27.17,0,0,0,10.66-2.81c11.1-5.57,14.42-17.19,15.16-20.2,3.51-14.34-4.32-25.69-5.62-27.5a35.71,35.71,0,0,0-22.44-14,18.09,18.09,0,0,0,.56-9c-1.85-9.14-11.12-14.71-18.52-16.27-11.08-2.34-19.8,3.92-21.33,5a47.55,47.55,0,0,0-5.05-9C329.14,106,306.35,95.7,284,99.7c-7.11,1.28-21.11,5.24-32,18A53.62,53.62,0,0,0,240.43,141.28Z"/><path class="cls-124" d="M286.87,155.57c-5.22-3.12-10.88-.45-11.78,0a13.55,13.55,0,0,0-7.44,11.16c0,.55-.39,7.87,5.58,11.78.27.18,5.43,3.44,11.16,1.24,6-2.3,8.51-9,8.06-14.26C292.36,164.39,291.86,158.56,286.87,155.57Z"/><path class="cls-124" d="M357.55,161.77c-2.92-1.67-6.24-.26-6.82,0a8.55,8.55,0,0,0-5,6.82c-.26,2.49.53,5.77,3.1,7.44,3.48,2.27,8.89.73,11.16-3.1S361,163.75,357.55,161.77Z"/><circle class="cls-125" cx="353.83" cy="168.59" r="3.1"/><circle class="cls-126" cx="280.36" cy="166.42" r="4.65"/><circle class="cls-127" cx="295.55" cy="123.95" r="4.34"/><circle class="cls-128" cx="313.22" cy="128.6" r="2.79"/><circle class="cls-129" cx="260.21" cy="123.95" r="2.48"/><circle class="cls-130" cx="338.64" cy="136.04" r="2.17"/><circle class="cls-131" cx="343.91" cy="130.15" r="3.1"/><circle class="cls-132" cx="249.36" cy="219.74" r="2.79"/><circle class="cls-133" cx="275.4" cy="224.7" r="2.79"/><circle class="cls-134" cx="321.9" cy="230.28" r="2.79"/><circle class="cls-135" cx="366.85" cy="216.33" r="2.48"/><circle class="cls-136" cx="401.27" cy="198.04" r="2.79"/><circle class="cls-137" cx="279.54" cy="167.29" r="12.5"/><path class="cls-138" d="M284,159.79a6.84,6.84,0,0,0-6,0,7.49,7.49,0,0,0-4,4,6.74,6.74,0,0,0,1,7c2.19,2.35,5.76,2.07,8,1a7.33,7.33,0,0,0,4-5A6.68,6.68,0,0,0,284,159.79Z"/><circle class="cls-137" cx="355.54" cy="167.29" r="12.5"/><path class="cls-138" d="M360,159.79a6.84,6.84,0,0,0-6,0,7.49,7.49,0,0,0-4,4,6.74,6.74,0,0,0,1,7c2.19,2.35,5.76,2.07,8,1a7.33,7.33,0,0,0,4-5A6.68,6.68,0,0,0,360,159.79Z"/><path class="cls-139" d="M298,183.79l-6.69,2.87h0c4.11,12.63,16.06,20.85,28.69,20.08a28.57,28.57,0,0,0,24.86-19.13l-6.69-2.86a20.67,20.67,0,0,1-40.17-1Z"/><g class="cls-12"><path class="cls-13" d="M567.36,242.34c2.56,2.6,5.53,1.49,9,2.72,7,2.51,8.9,12.67,9,13.2.21,1.18,1.62,9.09-3.13,14.24-3.51,3.8-8.62,4.21-11.84,4.51-30.12,2.9-36.59,11.27-51.93,5.36a27.5,27.5,0,0,1-11.07-6.91c-9.09-9.72-6.92-23.66-6.58-25.63,2.29-13.3,12.18-20.43,14.67-22.22a34.93,34.93,0,0,1,18.62-6.84c1.86-.11,13.29-.61,22.42,6.79,3.33,2.7,7,5.69,8.77,10.6C565.78,239.63,566,241,567.36,242.34Z"/></g><path class="cls-140" d="M564.36,239.34c2.56,2.6,5.53,1.49,9,2.72,7,2.51,8.9,12.67,9,13.2.21,1.18,1.62,9.09-3.13,14.24-3.51,3.8-8.62,4.21-11.84,4.51-30.12,2.9-36.59,11.27-51.93,5.36a27.5,27.5,0,0,1-11.07-6.91c-9.09-9.72-6.92-23.66-6.58-25.63,2.29-13.3,12.18-20.43,14.67-22.22a34.93,34.93,0,0,1,18.62-6.84c1.86-.11,13.29-.61,22.42,6.79,3.33,2.7,7,5.69,8.77,10.6C562.78,236.63,563,238,564.36,239.34Z"/><g class="cls-12"><path class="cls-13" d="M568,242.44c2.83,2.54,5.3,1.16,9,2.91,6.21,2.91,8.05,10.74,8.31,11.83.42,1.8,2,9.8-2.74,15.13-1.93,2.16-4.59,3.53-12.61,4.74-13.89,2.08-20.84,3.13-26.81.11-8.53-4.32-11.42-13.21-15.62-26.15-4-12.46-6.88-21.18-2.35-26.44,6.22-7.22,22.66-3.7,30.67,2.07,3,2.14,6.35,4.58,8.59,9C566,238.75,565.91,240.58,568,242.44Z"/></g><path class="cls-141" d="M565,239.44c2.83,2.54,5.3,1.16,9,2.91,6.21,2.91,8.05,10.74,8.31,11.83.42,1.8,2,9.8-2.74,15.13-1.93,2.16-4.59,3.53-12.61,4.74-13.89,2.08-20.84,3.13-26.81.11-8.53-4.32-11.42-13.21-15.62-26.15-4-12.46-6.88-21.18-2.35-26.44,6.22-7.22,22.66-3.7,30.67,2.07,3,2.14,6.35,4.58,8.59,9C563,235.75,562.91,237.58,565,239.44Z"/><circle class="cls-142" cx="530.5" cy="236.59" r="12.61"/><circle class="cls-143" cx="531.45" cy="237.38" r="6.52"/><path class="cls-142" d="M504.35,272.46c1.33,1.58,4.35,4.63,8.25,4.53.28,0,.56,0,.86-.07l28.61-2.47-.38-4.33Z"/><rect class="cls-142" x="543.59" y="269.51" width="10.44" height="4.35" transform="translate(-21.31 48.16) rotate(-4.93)"/><path class="cls-142" d="M555.56,268.92l.37,4.33c.7-.05,5.4-.41,7.8-.67a1.75,1.75,0,0,0,.62-.17c1.37-.65,1.59-2.93,1.61-4.39h0Z"/><rect class="cls-144" x="421.02" y="488.41" width="9.48" height="0.55" transform="translate(-62.93 914.45) rotate(-90)"/><rect class="cls-145" x="342.75" y="444.34" width="8.93" height="0.55" transform="translate(-97.4 791.83) rotate(-90)"/><rect class="cls-115" x="118.95" y="513.8" width="14.61" height="0.55" transform="translate(-396.39 430.08) rotate(-67.07)"/><rect class="cls-146" x="319.66" y="546.01" width="14.61" height="0.55" transform="translate(-219.32 873.25) rotate(-90)"/><rect class="cls-146" x="237.09" y="472.62" width="14.61" height="0.55" transform="translate(-278.76 571.23) rotate(-73.32)"/><rect class="cls-115" x="537.17" y="493.55" width="14.61" height="1.26" transform="translate(50.29 1038.65) rotate(-90)"/><rect class="cls-145" x="498.18" y="532.45" width="8.93" height="0.55" transform="translate(-153.06 859.06) rotate(-73.12)"/><path class="cls-141" d="M424.64,514.72a1.5,1.5,0,0,0,0-3,1.5,1.5,0,0,0,0,3Z"/><path class="cls-141" d="M529,445.33a1.5,1.5,0,0,0,0-3,1.5,1.5,0,0,0,0,3Z"/><path class="cls-141" d="M536.82,444.44a1.13,1.13,0,0,0,0-2.25,1.13,1.13,0,0,0,0,2.25Z"/><path class="cls-141" d="M616.12,412.09a1.13,1.13,0,0,0,0-2.25,1.13,1.13,0,0,0,0,2.25Z"/><path class="cls-141" d="M612,429.83a1.13,1.13,0,0,0,0-2.25,1.13,1.13,0,0,0,0,2.25Z"/><path class="cls-141" d="M631.77,388.61a1.13,1.13,0,0,0,0-2.25,1.13,1.13,0,0,0,0,2.25Z"/><path class="cls-141" d="M241.51,451.22a1.13,1.13,0,0,0,0-2.25,1.13,1.13,0,0,0,0,2.25Z"/><path class="cls-141" d="M245.69,513.83a1.13,1.13,0,0,0,0-2.25,1.13,1.13,0,0,0,0,2.25Z"/><path class="cls-66" d="M289,478.2a1.5,1.5,0,0,0,0-3,1.5,1.5,0,0,0,0,3Z"/><path class="cls-66" d="M339.6,439.59a1.5,1.5,0,0,0,0-3,1.5,1.5,0,0,0,0,3Z"/><path class="cls-66" d="M322.38,439.89a.75.75,0,0,0,0-1.5.75.75,0,0,0,0,1.5Z"/><path class="cls-66" d="M347.43,493.63a.75.75,0,0,0,0-1.5.75.75,0,0,0,0,1.5Z"/><path class="cls-66" d="M220.12,507.71a.75.75,0,0,0,0-1.5.75.75,0,0,0,0,1.5Z"/><path class="cls-66" d="M473.17,472.76a.75.75,0,0,0,0-1.5.75.75,0,0,0,0,1.5Z"/><path class="cls-66" d="M521.17,463.37a.75.75,0,0,0,0-1.5.75.75,0,0,0,0,1.5Z"/><path class="cls-66" d="M642.73,359.54a.75.75,0,0,0,0-1.5.75.75,0,0,0,0,1.5Z"/><path class="cls-66" d="M538.38,48.58a.75.75,0,0,0,0-1.5.75.75,0,0,0,0,1.5Z"/><path class="cls-66" d="M552,76.24a.75.75,0,0,0,0-1.5.75.75,0,0,0,0,1.5Z"/><path class="cls-66" d="M483.08,23.54a.75.75,0,0,0,0-1.5.75.75,0,0,0,0,1.5Z"/><path class="cls-66" d="M616.64,390.84a.75.75,0,0,0,0-1.5.75.75,0,0,0,0,1.5Z"/><path class="cls-66" d="M124.64,435.71a.75.75,0,0,0,0-1.5.75.75,0,0,0,0,1.5Z"/><path class="cls-32" d="M145,437a1.5,1.5,0,0,0,0-3,1.5,1.5,0,0,0,0,3Z"/><path class="cls-32" d="M555.08,472.24a.75.75,0,0,0,0-1.5.75.75,0,0,0,0,1.5Z"/><path class="cls-32" d="M335.43,432.58a.75.75,0,0,0,0-1.5.75.75,0,0,0,0,1.5Z"/><path class="cls-32" d="M284.3,505.11a.75.75,0,0,0,0-1.5.75.75,0,0,0,0,1.5Z"/><path class="cls-32" d="M530.56,40.24a.75.75,0,0,0,0-1.5.75.75,0,0,0,0,1.5Z"/><path class="cls-32" d="M665.17,419.54a.75.75,0,0,0,0-1.5.75.75,0,0,0,0,1.5Z"/><path class="cls-32" d="M484.12,510.32a.75.75,0,0,0,0-1.5.75.75,0,0,0,0,1.5Z"/><path class="cls-32" d="M180,436.76a.75.75,0,0,0,0-1.5.75.75,0,0,0,0,1.5Z"/><path class="cls-147" d="M499.77,17.28a.75.75,0,0,0,0-1.5.75.75,0,0,0,0,1.5Z"/><path class="cls-147" d="M499.77,33.45a.75.75,0,0,0,0-1.5.75.75,0,0,0,0,1.5Z"/><path class="cls-147" d="M523.77,78.32a.75.75,0,0,0,0-1.5.75.75,0,0,0,0,1.5Z"/><path class="cls-147" d="M560.82,442.5a.75.75,0,0,0,0-1.5.75.75,0,0,0,0,1.5Z"/><path class="cls-147" d="M651.08,373.63a.75.75,0,0,0,0-1.5.75.75,0,0,0,0,1.5Z"/><path class="cls-147" d="M641.69,420.06a.75.75,0,0,0,0-1.5.75.75,0,0,0,0,1.5Z"/><path class="cls-147" d="M340.64,475.89a.75.75,0,0,0,0-1.5.75.75,0,0,0,0,1.5Z"/><path class="cls-147" d="M365.69,548.41a.75.75,0,0,0,0-1.5.75.75,0,0,0,0,1.5Z"/><path class="cls-147" d="M120.47,487.89a.75.75,0,0,0,0-1.5.75.75,0,0,0,0,1.5Z"/><path class="cls-147" d="M65.17,475.37a.75.75,0,0,0,0-1.5.75.75,0,0,0,0,1.5Z"/><path class="cls-147" d="M154.38,521.8a.75.75,0,0,0,0-1.5.75.75,0,0,0,0,1.5Z"/><path class="cls-147" d="M384.47,534.7a1.13,1.13,0,0,0,0-2.25,1.13,1.13,0,0,0,0,2.25Z"/><path class="cls-116" d="M108,429.31a1.13,1.13,0,0,0,0-2.25,1.13,1.13,0,0,0,0,2.25Z"/><path class="cls-116" d="M326.56,454.35a1.13,1.13,0,0,0,0-2.25,1.13,1.13,0,0,0,0,2.25Z"/><path class="cls-116" d="M517,503.39a1.13,1.13,0,0,0,0-2.25,1.13,1.13,0,0,0,0,2.25Z"/><path class="cls-116" d="M654.21,397.48a1.13,1.13,0,0,0,0-2.25,1.13,1.13,0,0,0,0,2.25Z"/><path class="cls-116" d="M585.34,507.05a1.13,1.13,0,0,0,0-2.25,1.13,1.13,0,0,0,0,2.25Z"/><path class="cls-116" d="M108,505a1.13,1.13,0,0,0,0-2.25,1.13,1.13,0,0,0,0,2.25Z"/><path class="cls-116" d="M296.82,453.31a1.13,1.13,0,0,0,0-2.25,1.13,1.13,0,0,0,0,2.25Z"/><path class="cls-116" d="M513.34,35.77a1.5,1.5,0,0,0,0-3,1.5,1.5,0,0,0,0,3Z"/><path class="cls-116" d="M497.17,27.42a1.5,1.5,0,0,0,0-3,1.5,1.5,0,0,0,0,3Z"/><path class="cls-3" d="M520.64,31.37a.75.75,0,0,0,0-1.5.75.75,0,0,0,0,1.5Z"/><path class="cls-3" d="M533.17,83a.75.75,0,0,0,0-1.5.75.75,0,0,0,0,1.5Z"/><path class="cls-148" d="M373,294a1.5,1.5,0,0,0,0-3,1.5,1.5,0,0,0,0,3Z"/><path class="cls-148" d="M380.3,316.46a1.5,1.5,0,0,0,0-3,1.5,1.5,0,0,0,0,3Z"/><path class="cls-148" d="M366.21,301.86a1.5,1.5,0,0,0,0-3,1.5,1.5,0,0,0,0,3Z"/><path class="cls-149" d="M270.73,306a1.5,1.5,0,0,0,0-3,1.5,1.5,0,0,0,0,3Z"/><path class="cls-149" d="M284.82,325.79c3.86,0,3.87-6,0-6s-3.87,6,0,6Z"/><path class="cls-149" d="M289.51,355.22a1.13,1.13,0,0,0,0-2.25,1.13,1.13,0,0,0,0,2.25Z"/><path class="cls-149" d="M258.73,328.61a1.13,1.13,0,0,0,0-2.25,1.13,1.13,0,0,0,0,2.25Z"/><path class="cls-149" d="M251.43,253a1.13,1.13,0,0,0,0-2.25,1.13,1.13,0,0,0,0,2.25Z"/><path class="cls-149" d="M270.21,255.05a1.13,1.13,0,0,0,0-2.25,1.13,1.13,0,0,0,0,2.25Z"/><path class="cls-150" d="M343.25,352.61a1.13,1.13,0,0,0,0-2.25,1.13,1.13,0,0,0,0,2.25Z"/><path class="cls-150" d="M326,359.91a1.13,1.13,0,0,0,0-2.25,1.13,1.13,0,0,0,0,2.25Z"/><path class="cls-150" d="M348,343.53c3.86,0,3.87-6,0-6s-3.87,6,0,6Z"/><path class="cls-151" d="M342.21,326.38a1.5,1.5,0,0,0,0-3,1.5,1.5,0,0,0,0,3Z"/><path class="cls-149" d="M314,364.4c3.86,0,3.86-6,0-6s-3.87,6,0,6Z"/><path class="cls-149" d="M286.38,256.61a1.13,1.13,0,0,0,0-2.25,1.13,1.13,0,0,0,0,2.25Z"/><path class="cls-149" d="M265.51,263.39a1.13,1.13,0,0,0,0-2.25,1.13,1.13,0,0,0,0,2.25Z"/><path class="cls-149" d="M300.47,330a1.5,1.5,0,0,0,0-3,1.5,1.5,0,0,0,0,3Z"/><path class="cls-3" d="M124.12,214.2a1.5,1.5,0,0,0,0-3,1.5,1.5,0,0,0,0,3Z"/><path class="cls-3" d="M177.34,249.83a1.13,1.13,0,0,0,0-2.25,1.13,1.13,0,0,0,0,2.25Z"/><path class="cls-3" d="M204.47,225.83a1.13,1.13,0,0,0,0-2.25,1.13,1.13,0,0,0,0,2.25Z"/><path class="cls-3" d="M160.64,253a1.13,1.13,0,0,0,0-2.25,1.13,1.13,0,0,0,0,2.25Z"/><path class="cls-3" d="M148.64,244.09a1.13,1.13,0,0,0,0-2.25,1.13,1.13,0,0,0,0,2.25Z"/><path class="cls-3" d="M141.86,263.91a1.13,1.13,0,0,0,0-2.25,1.13,1.13,0,0,0,0,2.25Z"/><path class="cls-3" d="M114.21,250.87a1.13,1.13,0,0,0,0-2.25,1.13,1.13,0,0,0,0,2.25Z"/><path class="cls-3" d="M103.77,247.74a1.13,1.13,0,0,0,0-2.25,1.13,1.13,0,0,0,0,2.25Z"/><path class="cls-3" d="M94.9,258.18a1.13,1.13,0,0,0,0-2.25,1.13,1.13,0,0,0,0,2.25Z"/><path class="cls-3" d="M81.86,239.91a1.13,1.13,0,0,0,0-2.25,1.13,1.13,0,0,0,0,2.25Z"/><path class="cls-3" d="M71.43,229.48a1.13,1.13,0,0,0,0-2.25,1.13,1.13,0,0,0,0,2.25Z"/><path class="cls-3" d="M56.3,227.39a1.13,1.13,0,0,0,0-2.25,1.13,1.13,0,0,0,0,2.25Z"/><path class="cls-3" d="M134,270.32a.75.75,0,0,0,0-1.5.75.75,0,0,0,0,1.5Z"/><path class="cls-3" d="M112.12,241.63a.75.75,0,0,0,0-1.5.75.75,0,0,0,0,1.5Z"/><path class="cls-3" d="M88.64,254.15a.75.75,0,0,0,0-1.5.75.75,0,0,0,0,1.5Z"/><path class="cls-3" d="M79.25,231.71a.75.75,0,0,0,0-1.5.75.75,0,0,0,0,1.5Z"/><path class="cls-3" d="M75.08,226.5a.75.75,0,0,0,0-1.5.75.75,0,0,0,0,1.5Z"/><path class="cls-3" d="M62,230.67a.75.75,0,0,0,0-1.5.75.75,0,0,0,0,1.5Z"/><path class="cls-3" d="M81.86,248.41a.75.75,0,0,0,0-1.5.75.75,0,0,0,0,1.5Z"/><path class="cls-3" d="M98,252.06a.75.75,0,0,0,0-1.5.75.75,0,0,0,0,1.5Z"/><path class="cls-3" d="M124.12,257.28a.75.75,0,0,0,0-1.5.75.75,0,0,0,0,1.5Z"/><path class="cls-3" d="M126.21,268.24a.75.75,0,0,0,0-1.5.75.75,0,0,0,0,1.5Z"/><path class="cls-3" d="M129.34,264.81a1.5,1.5,0,0,0,0-3,1.5,1.5,0,0,0,0,3Z"/><path class="cls-3" d="M197.17,229.33a1.5,1.5,0,0,0,0-3,1.5,1.5,0,0,0,0,3Z"/><path class="cls-3" d="M168.47,250a.75.75,0,0,0,0-1.5.75.75,0,0,0,0,1.5Z"/><path class="cls-3" d="M197.69,216.06a.75.75,0,0,0,0-1.5.75.75,0,0,0,0,1.5Z"/><path class="cls-3" d="M208.12,227.54a.75.75,0,0,0,0-1.5.75.75,0,0,0,0,1.5Z"/><path class="cls-3" d="M148.12,252.58a.75.75,0,0,0,0-1.5.75.75,0,0,0,0,1.5Z"/><path class="cls-3" d="M154.9,245.65a1.13,1.13,0,0,0,0-2.25,1.13,1.13,0,0,0,0,2.25Z"/><path class="cls-3" d="M186.21,240.44a1.13,1.13,0,0,0,0-2.25,1.13,1.13,0,0,0,0,2.25Z"/><path class="cls-141" d="M178.38,210a1.5,1.5,0,0,0,0-3,1.5,1.5,0,0,0,0,3Z"/><path class="cls-141" d="M102.21,222a1.5,1.5,0,0,0,0-3,1.5,1.5,0,0,0,0,3Z"/><path class="cls-141" d="M69.34,192.81a1.5,1.5,0,0,0,0-3,1.5,1.5,0,0,0,0,3Z"/><path class="cls-141" d="M138.73,228.29a1.5,1.5,0,0,0,0-3,1.5,1.5,0,0,0,0,3Z"/><path class="cls-141" d="M61.51,215.39a1.13,1.13,0,0,0,0-2.25,1.13,1.13,0,0,0,0,2.25Z"/><path class="cls-141" d="M80.82,215.91a1.13,1.13,0,0,0,0-2.25,1.13,1.13,0,0,0,0,2.25Z"/><path class="cls-141" d="M94.9,234.7a1.13,1.13,0,0,0,0-2.25,1.13,1.13,0,0,0,0,2.25Z"/><path class="cls-141" d="M173.69,230.52a1.13,1.13,0,0,0,0-2.25,1.13,1.13,0,0,0,0,2.25Z"/><path class="cls-141" d="M183.08,222.84a.75.75,0,0,0,0-1.5.75.75,0,0,0,0,1.5Z"/><path class="cls-141" d="M169.51,239a.75.75,0,0,0,0-1.5.75.75,0,0,0,0,1.5Z"/><path class="cls-141" d="M161.17,220.24a.75.75,0,0,0,0-1.5.75.75,0,0,0,0,1.5Z"/><path class="cls-141" d="M137.69,241.63a.75.75,0,0,0,0-1.5.75.75,0,0,0,0,1.5Z"/><path class="cls-141" d="M121.51,227.54a.75.75,0,0,0,0-1.5.75.75,0,0,0,0,1.5Z"/><path class="cls-141" d="M129.86,250a.75.75,0,0,0,0-1.5.75.75,0,0,0,0,1.5Z"/><path class="cls-141" d="M91.25,205.11a.75.75,0,0,0,0-1.5.75.75,0,0,0,0,1.5Z"/><path class="cls-141" d="M89.69,224.41a.75.75,0,0,0,0-1.5.75.75,0,0,0,0,1.5Z"/><path class="cls-141" d="M73.51,203a.75.75,0,0,0,0-1.5.75.75,0,0,0,0,1.5Z"/><path class="cls-47" d="M414.21,90.55a1.5,1.5,0,0,0,0-3,1.5,1.5,0,0,0,0,3Z"/><path class="cls-47" d="M399.08,138a1.5,1.5,0,0,0,0-3,1.5,1.5,0,0,0,0,3Z"/><path class="cls-47" d="M361.51,103.07a1.5,1.5,0,0,0,0-3,1.5,1.5,0,0,0,0,3Z"/><path class="cls-47" d="M332.3,97.86a1.5,1.5,0,0,0,0-3,1.5,1.5,0,0,0,0,3Z"/><path class="cls-47" d="M350.56,88.46a1.5,1.5,0,0,0,0-3,1.5,1.5,0,0,0,0,3Z"/><path class="cls-47" d="M414.73,48.81a1.5,1.5,0,0,0,0-3,1.5,1.5,0,0,0,0,3Z"/><path class="cls-47" d="M398.56,89a1.5,1.5,0,0,0,0-3,1.5,1.5,0,0,0,0,3Z"/><path class="cls-47" d="M357.86,120.06a.75.75,0,0,0,0-1.5.75.75,0,0,0,0,1.5Z"/><path class="cls-47" d="M391.25,109.63a.75.75,0,0,0,0-1.5.75.75,0,0,0,0,1.5Z"/><path class="cls-47" d="M412.12,80.93a.75.75,0,0,0,0-1.5.75.75,0,0,0,0,1.5Z"/><path class="cls-47" d="M410.56,61.11a.75.75,0,0,0,0-1.5.75.75,0,0,0,0,1.5Z"/><path class="cls-47" d="M421.51,131.54a.75.75,0,0,0,0-1.5.75.75,0,0,0,0,1.5Z"/><path class="cls-47" d="M411.08,145.11a.75.75,0,0,0,0-1.5.75.75,0,0,0,0,1.5Z"/><path class="cls-47" d="M383.43,92.41a.75.75,0,0,0,0-1.5.75.75,0,0,0,0,1.5Z"/><path class="cls-47" d="M364.64,91.37a.75.75,0,0,0,0-1.5.75.75,0,0,0,0,1.5Z"/><path class="cls-47" d="M420,75.19a.75.75,0,0,0,0-1.5.75.75,0,0,0,0,1.5Z"/><path class="cls-47" d="M390.21,132.81a1.5,1.5,0,0,0,0-3,1.5,1.5,0,0,0,0,3Z"/><g class="cls-12"><path class="cls-13" d="M231.4,104.92c-11.74-6.51-23.45-1.67-25-1a29.87,29.87,0,0,0-14,13c-1.66,2.9-5.5,9.86-4,19a27.54,27.54,0,0,0,9,16,28.81,28.81,0,0,0,20,7c14.17-.74,21.85-12.23,23-14s7.66-11.88,4-24A28.13,28.13,0,0,0,231.4,104.92Z"/><path class="cls-13" d="M229.4,121.92a14.66,14.66,0,0,0-10-7c-7.68-1.21-12.8,4.75-13,5a14.35,14.35,0,0,0-2,15c2.81,6.18,9,7.77,10,8,.81.19,7.89,1.76,13-3S232.51,127.26,229.4,121.92Z"/><path class="cls-13" d="M219.38,123.23c-2.76-1.46-6.55-.49-7.79,1.85a5.43,5.43,0,0,0-.05,4.12,6.21,6.21,0,0,0,2.87,3.43c2.4,1.24,6.3.93,7.79-1.84S221.93,124.59,219.38,123.23Z"/><ellipse class="cls-13" cx="215.9" cy="125.54" rx="3.5" ry="2.63"/></g><path class="cls-88" d="M228.4,101.92c-11.74-6.51-23.45-1.67-25-1a29.87,29.87,0,0,0-14,13c-1.66,2.9-5.5,9.86-4,19a27.54,27.54,0,0,0,9,16,28.81,28.81,0,0,0,20,7c14.17-.74,21.85-12.23,23-14s7.66-11.88,4-24A28.13,28.13,0,0,0,228.4,101.92Z"/><path class="cls-152" d="M226.4,118.92a14.66,14.66,0,0,0-10-7c-7.68-1.21-12.8,4.75-13,5a14.35,14.35,0,0,0-2,15c2.81,6.18,9,7.77,10,8,.81.19,7.89,1.76,13-3S229.51,124.26,226.4,118.92Z"/><path class="cls-153" d="M216.38,120.23c-2.76-1.46-6.55-.49-7.79,1.85a5.43,5.43,0,0,0-.05,4.12,6.21,6.21,0,0,0,2.87,3.43c2.4,1.24,6.3.93,7.79-1.84S218.93,121.59,216.38,120.23Z"/><ellipse class="cls-88" cx="212.9" cy="122.54" rx="3.5" ry="2.63"/></g></g></svg>