<svg id="github_black" data-name="github black" xmlns="http://www.w3.org/2000/svg" viewBox="0 0 457.26 445.14"><defs><style>.cls-1{fill:#fff;}</style></defs><title>github-white</title><path class="cls-1" d="M457.26,228.63C457.26,102.36,354.9,0,228.63,0S0,102.36,0,228.63C0,328.86,64.49,414,154.23,444.88c5.47-3.95,11.78-8.82,11.78-17,0-12.58-.28-44.93-.28-44.93a158.06,158.06,0,0,1-24.1,1.67c-35.69,0-47-22.64-52.35-35.32-7-16.51-16-24.26-25.68-30.46-5.91-3.8-7.27-8.29-.43-9.57,31.59-5.92,39.66,35.62,60.76,42.25,15.06,4.72,34.42,2.68,44-3.52,1.27-12.68,10.47-23.66,18.13-29.44-53.66-5.12-85.47-23.66-102-53.45l-1.77-3.34-4.14-9.46L77,248.92c-5.16-15.12-7.45-32.44-7.45-51.79,0-34.34,10.76-47.3,25.21-65.61-11-39.15,4-65.91,4-65.91S122,60.82,165.86,92.09c23.79-10.14,87.24-11,117.26-2.26,18.41-12.11,52.11-29.29,65.71-24.48,3.68,5.89,11.61,23.08,4.82,60.82,4.61,8.28,28.6,25.92,28.69,75.77C382,220.33,380,235.86,376.46,249l-2,6.71s-1.13,3.17-2.37,6.19l-1.46,3.33C354.71,300,322.06,313,269.3,318.37c17.1,10.7,22,24.13,22,60.47s-.48,41.22-.37,49.58c.1,7.39,6,12.7,11.32,16.72C392.42,414.48,457.26,329.13,457.26,228.63Z"/></svg>