<svg id="Express" xmlns="http://www.w3.org/2000/svg" viewBox="0 0 105.34 23.51"><title>express</title><g id="original-wordmark"><path id="path4" d="M32.68,23.51V.46h1.25V4.09a5.08,5.08,0,0,0,.41-.51A6.18,6.18,0,0,1,40,.07a6.64,6.64,0,0,1,6.53,3.51,11.28,11.28,0,0,1,.27,10.33c-1.27,2.84-4.4,4.25-7.75,3.73a6.27,6.27,0,0,1-5-3.3v9.17Zm1.25-14.9c.11,1.13.15,1.93.28,2.71.49,3.08,2.32,4.91,5.17,5.24a5.87,5.87,0,0,0,6.46-3.73,10,10,0,0,0-.22-8.24,5.75,5.75,0,0,0-6.06-3.35,5.6,5.6,0,0,0-5,4.14A29.64,29.64,0,0,0,33.93,8.61Z"/><path id="path6" d="M73.43,11.75a6.74,6.74,0,0,1-6.59,5.95c-5.24.27-7.7-3.21-8.09-7.23a11.49,11.49,0,0,1,1-6.38,7.12,7.12,0,0,1,7.41-4,6.82,6.82,0,0,1,6,5.18,35.81,35.81,0,0,1,.59,3.83H60c-.25,3.65,1.7,6.57,4.48,7.28,3.45.85,6.41-.65,7.48-3.93C72.23,11.63,72.66,11.51,73.43,11.75ZM60,8H72.34c-.07-3.88-2.49-6.69-5.77-6.73C62.86,1.17,60.19,3.87,60,8Z"/><path id="path8" d="M76,11.83h1.21A4.85,4.85,0,0,0,80,16a7.41,7.41,0,0,0,6.45-.17A2.92,2.92,0,0,0,88.17,13a2.64,2.64,0,0,0-1.77-2.63c-1.33-.49-2.75-.77-4.1-1.2a29,29,0,0,1-4.12-1.51c-2.18-1.06-2.31-5.2.16-6.52A8.7,8.7,0,0,1,86.64,1a4.35,4.35,0,0,1,2.21,4.46h-1s-.1-.1-.1-.15C87.6,2,84.82,1,81.84,1.27A7.85,7.85,0,0,0,79.29,2,2.55,2.55,0,0,0,77.81,4.6,2.54,2.54,0,0,0,79.51,7c1.31.47,2.68.78,4,1.15,1.08.3,2.2.5,3.25.86a3.81,3.81,0,0,1,2.63,3.46,4.07,4.07,0,0,1-2.2,4.25c-2.84,1.61-7.52,1.19-9.61-.85A5.7,5.7,0,0,1,76,11.83Z"/><path id="path10" d="M104.74,5.46h-1.13a2.41,2.41,0,0,0-.08-.42,3.7,3.7,0,0,0-3-3.56,7.43,7.43,0,0,0-4.77.23,2.9,2.9,0,0,0-2.1,2.77,2.67,2.67,0,0,0,2,2.69c1.7.52,3.44.85,5.17,1.32a15.74,15.74,0,0,1,1.65.51,4.25,4.25,0,0,1,.23,7.92,9.5,9.5,0,0,1-7.66.08,5.33,5.33,0,0,1-3.2-5.16H93a6.2,6.2,0,0,0,7.33,4.81,6,6,0,0,0,2.12-.86A3,3,0,0,0,104.07,13a2.64,2.64,0,0,0-1.79-2.62c-1.33-.49-2.75-.75-4.1-1.19A29.2,29.2,0,0,1,94,7.65c-2.13-1-2.3-5.15.12-6.47a8.6,8.6,0,0,1,8.45-.09A4.45,4.45,0,0,1,104.74,5.46Z"/><path id="path12" d="M30.61,17.29a2,2,0,0,1-2.42-.92c-1.38-2.08-2.91-4.06-4.39-6.09l-.64-.85c-1.75,2.35-3.5,4.6-5.1,7a1.88,1.88,0,0,1-2.3.9l6.58-8.83-6.12-8a2,2,0,0,1,2.43.85c1.42,2.08,3,4.06,4.56,6.16,1.57-2.08,3.13-4.08,4.58-6.14A1.84,1.84,0,0,1,30.07.5L27.7,3.65c-1.06,1.41-2.11,2.82-3.22,4.19A.84.84,0,0,0,24.42,9l.06.07C26.52,11.81,28.53,14.51,30.61,17.29Z"/><path id="path14" d="M58.54.39V1.58A6.18,6.18,0,0,0,52,7.34c0,.2,0,.41,0,.62v9.36H50.75V.46H52V3.92C53.42,1.4,55.69.46,58.54.39Z"/><path id="path16" d="M0,8.34c.18-.85.29-1.78.54-2.65C2,.46,8-1.72,12.14,1.52c2.41,1.9,3,4.59,2.9,7.62H1.42c-.22,5.41,3.69,8.68,8.68,7a5.12,5.12,0,0,0,3.29-3.66c.27-.86.69-1,1.5-.75a6.87,6.87,0,0,1-3.3,5,8,8,0,0,1-9.32-1.19A8.4,8.4,0,0,1,.18,10.67,4,4,0,0,0,0,9.82C0,9.32,0,8.82,0,8.34ZM1.44,8H13.75C13.68,4.05,11.2,1.27,7.9,1.24,4.22,1.19,1.59,3.92,1.43,8Z"/></g></svg>