<svg id="Слой_1" preserveAspectRatio="none" data-name="Слой 1" xmlns="http://www.w3.org/2000/svg" xmlns:xlink="http://www.w3.org/1999/xlink" viewBox="0 0 749.3 306.18"><defs><linearGradient id="Безымянный_градиент_9" x1="344.99" y1="309.67" x2="406.27" y2="-186.14" gradientTransform="matrix(1, 0, 0, -1, 0, 255.93)" gradientUnits="userSpaceOnUse"><stop offset="0" stop-color="#bbebf5"/><stop offset="0.19" stop-color="#c5e4f3"/><stop offset="0.68" stop-color="#dad5ee" stop-opacity="0.99"/><stop offset="1" stop-color="#e2d0ec"/></linearGradient></defs><title>bg-works2</title><g id="Слой_1-2" data-name="Слой 1-2"><path d="M618.57,50.34c-11.33-5.27-8.51-11.88-21.92-19.83-8.1-4.8-20.47-6.39-44.87-9.39-21-2.57-21-1.58-28.17-3.65C504.8,12,505.82,5.4,490.78,2.82c-16.24-2.79-36,2-36,2s-15.83,4.08-47,11c-22.86,5.07-34.59,6.18-48,5a74,74,0,0,1-15.93-3.2c-12.13-4-16.63-7.45-25.13-10.66-12.83-4.84-24.27-4-30.94-3.58C267.37,4.81,261.39,14,244.48,19.56,213.05,30,205.75,9.46,154.22,12.25c-35.52,1.93-44,13-66.79,5.22C77.16,14,68.28,8.09,53,8.6c-10.57.4-15.62,2.66-26.09,1.57A59.38,59.38,0,0,1,0,0V9.66L76.35,22.35,749.3,76.61V66.22a61.3,61.3,0,0,1-24.82,4.43c-27-1-32.5-20.76-58.44-23.48C643.36,44.83,635.17,58.07,618.57,50.34Z" style="fill:#dad5ee"/></g><g id="Слой_1-2-2" data-name="Слой 1-2-2"><path d="M614.09,51.65c-11.33-5.27-8.51-11.88-21.92-19.82-8.1-4.81-20.47-6.4-44.87-9.4-21-2.57-21-1.58-28.17-3.65C500.32,13.34,501.35,6.71,486.3,4.13c-16.24-2.78-36,2-36,2s-15.79,4.07-47,11c-22.86,5.07-34.59,6.17-48,5a73.31,73.31,0,0,1-15.93-3.2C327.24,15,322.74,11.48,314.24,8.27,301.41,3.43,290,4.23,283.3,4.7,262.89,6.12,256.91,15.26,240,20.87c-31.43,10.43-38.73-10.09-90.26-7.3-35.52,1.92-44.05,13-66.78,5.21C72.69,15.28,63.8,9.4,48.52,9.91c-9.57.32-13.05,2-18.41,2.17a46.78,46.78,0,0,1-7.68-.6C18.08,10.8,9.57,8.71,0,.85V306.18H749.3V66.26A63.88,63.88,0,0,1,720,72c-26.84-1.46-32.31-20.74-58.43-23.48C638.89,46.14,630.7,59.38,614.09,51.65Z" style="fill:url(#Безымянный_градиент_9)"/></g></svg>