<svg id="Слой_1" data-name="Слой 1" xmlns="http://www.w3.org/2000/svg" viewBox="0 0 1273.33 498.09"><defs><style>.cls-1{fill:#800;}</style></defs><title>mongoose</title><path class="cls-1" d="M487,355.61V358l.14,140.13h101.6v-144l-50.09,79.82Q512.82,394.75,487,355.61Z"/><path class="cls-1" d="M1270,134.11c-2.84-3.81-6.77-5.24-14.09-7.82a63.42,63.42,0,0,0-12.05-3c-11.32,36.43-15,44-16.12,43.67-1.66-.42,1.28-17.18,1.56-18.78a110,110,0,0,1,8.07-26.22l.54-1.17c-53.89-22-140.59-54.52-239.48-79.05C942.77,28,894.35,19.46,873.22,15.94c-14.71-2.46-46.56-7.56-87.65-11.74C733.84-1.06,707-.82,681.48,1.85c-13.58,1.42-24.69,3.3-32.09,4.7l66.52,36c-37-12.23-71.53-23.07-105.65-33.66,0,0-34.65-10.75-63.39-1.56-9.41,3-13.15,8.83-14.09,10.17-1.64,2.35-4.78,7.7-4.75,21.55a97.48,97.48,0,0,0,4.75,29.32c3.91,12.51,7.91,25.64,18,43.83A273.23,273.23,0,0,0,590.7,167c9.48,10,28.07,29.6,54.1,43.63,8.94,4.81,23.88,11.73,37.46,17.41,6.46,2.71,11.88,4.83,15.65,6.27a220.2,220.2,0,0,1-68.08-23.48,231.5,231.5,0,0,1-44.61-32.09,229.08,229.08,0,0,1-36-41.48,207.8,207.8,0,0,1-23.48-46.95,171.54,171.54,0,0,1-8.61-37.57,156.46,156.46,0,0,1-.78-18.78,521.86,521.86,0,0,0-82.18,2.35c-47.11,5.07-82,15.3-104.08,21.91-8.84,2.64-45.06,13.66-92.35,35.22-96.13,43.8-162.78,96.83-198,125.21C22.83,232.26,9.23,244.07,0,252.29a431.2,431.2,0,0,1,146.17-25c8.41,0,111.17,1.38,169.05,41.48,29,20.13,50.87,47,50.87,47,2.53,3,5.14,6.34,7.75,10.05,2,2.85,3.78,5.62,5.37,8.28q.89-46.74,1.75-93.46l106.43.78,50.09,90.78q24.64-46.17,49.3-92.35l108.79,1.57V419l18.78-11.74a107.83,107.83,0,0,1,21.13-26.61c14.18-13,28.15-18.65,38.35-22.69,21.79-8.65,40-10.34,56.34-11.74,22.67-1.94,28,.39,58.7-.78,17.77-.68,32.2-2.08,41.48-3.13A149.77,149.77,0,0,1,921,318.81q-1.35-4.43-2.35-8.61a22.67,22.67,0,0,1,23.48-19.57L1205,232.72a82.89,82.89,0,0,0,30.53-13.3,70.1,70.1,0,0,0,12.52-11c9.53-10.69,13.36-22.11,20.63-44.51,1.65-5.08,2.88-9.24,3.63-11.84C1272.82,150.45,1275.28,141.2,1270,134.11ZM656,99.31,674.77,131l-35.6-16.43q15.06,19.75,30.13,39.52l-20-6.65,27.78,40.69a328,328,0,0,1-29.74-19.56A283.28,283.28,0,0,1,609,135.31a270,270,0,0,1-36.78-50.87,73.08,73.08,0,0,1-5.87-14.87,42.84,42.84,0,0,1-2-11c-.18-3.84-.29-7.46,2-9.39,1.83-1.56,4.44-1.36,5.87-1.17,24.07,3.21,51.65,18.78,51.65,18.78,19.39,10.94,29.08,16.4,32.48,18.78a219,219,0,0,1,32.48,27.78ZM850.66,82.78a162.6,162.6,0,0,1,47,3.13c17.08,3.6,64.67,13.18,129.33,26.31a35.82,35.82,0,0,1-4.64,4,27.31,27.31,0,0,1-8.87,4.7c-18.66,5.44-51.65,3.65-51.65,3.65-16.82-.91-26.81-1.78-38.61-3.65-14.68-2.33-20.89-4.43-26.61-8.87a41.39,41.39,0,0,1-13-18.26Zm151.64,148c-44.8,14.3-63.74,22-69.12,24.21,0,0-11.54,4.77-31.06,14.39-.2.11-.73.37-1.41.74a35.08,35.08,0,0,0-8.5,6.57A23.84,23.84,0,0,0,886,287.13a21.51,21.51,0,0,0-.52,7.83c.63,7.06,1.28,16.46,2.08,28.17a147.73,147.73,0,0,1-8.87-18.26c-2.75-6.83-3.92-11.23-4.17-16.17-.26-5.15.61-8.08,1.41-10a19.67,19.67,0,0,1,4.85-6.74c16.53-15.47,51.65-26.61,51.65-26.61,11.52-4.07,24-8,37.57-11.47a451.94,451.94,0,0,1,57.39-11C1021.75,224.67,1013,227.37,1002.3,230.79Z"/></svg>