<svg id="Слой_1" preserveAspectRatio="none"  data-name="Слой 1" xmlns="http://www.w3.org/2000/svg" xmlns:xlink="http://www.w3.org/1999/xlink" viewBox="0 0 749.36 224.62"><defs><style>.cls-1{fill:url(#Безымянный_градиент_198);}.cls-2{fill:url(#Безымянный_градиент_202);}.cls-3{fill:url(#Безымянный_градиент_6);}.cls-4{fill:url(#Безымянный_градиент_192);}</style><linearGradient id="Безымянный_градиент_198" x1="419.17" y1="64.19" x2="582.54" y2="245.35" gradientUnits="userSpaceOnUse"><stop offset="0" stop-color="#7e81e1"/><stop offset="0.53" stop-color="#97afe2"/><stop offset="1" stop-color="#afdce2"/></linearGradient><linearGradient id="Безымянный_градиент_202" x1="350.4" y1="82.26" x2="98.61" y2="205.18" gradientUnits="userSpaceOnUse"><stop offset="0" stop-color="#c997f5"/><stop offset="0.65" stop-color="#ee7f98"/><stop offset="0.99" stop-color="#ff746b"/></linearGradient><linearGradient id="Безымянный_градиент_6" x1="690.43" y1="86.43" x2="461.69" y2="236.7" gradientUnits="userSpaceOnUse"><stop offset="0" stop-color="#bbebf5"/><stop offset="0.19" stop-color="#c5e4f3"/><stop offset="0.68" stop-color="#dad5ee"/><stop offset="1" stop-color="#e2d0ec"/></linearGradient><linearGradient id="Безымянный_градиент_192" x1="41.41" y1="157.12" x2="103.31" y2="-14.18" gradientUnits="userSpaceOnUse"><stop offset="0" stop-color="#ffa751"/><stop offset="1" stop-color="#fce883"/></linearGradient></defs><title>bg-footer7</title><path class="cls-1" d="M547.48,155.22c-.18-2.08-.8-12.55-1.11-26.92-.09-3.64,0-7.91.39-13.65,1.54-22.21,5.48-32,3.33-52.82-1.1-10.62-2.44-11.12-3-20.55A108.06,108.06,0,0,1,552.69,0H334.61a73.61,73.61,0,0,0,.52,37.3c5.74,21.93-2.5,43.43,1,76.7,2.35,22,3.88,36.41,14.61,50.09,13.78,17.55,31.59,19.72,33.92,33.91,1.66,10.2-5.77,20-12.27,26.61H536.78C546.75,185.14,548.36,165.63,547.48,155.22Z"/><path class="cls-2" d="M388.09,197.22c-8.81-16.73-18.65-17.91-28.44-30.52-17.17-22.14-13.63-53.42-11.48-72.53,2.71-24,8.5-27.34,8.35-48A114.58,114.58,0,0,0,346.09,0H182c-1.35,17.45,2.84,26.69-3.69,47.74-9.84,31.72-25.06,29.15-36.72,61.86-8.78,24.67-2.2,32-11,68.05a257.25,257.25,0,0,1-16.44,47H395.65A68.72,68.72,0,0,0,388.09,197.22Z"/><path class="cls-3" d="M541.22,34.17c-.29,9.7,2,15,3.78,24.53,3.83,20.81.55,37.86-1.72,49.67-3.87,20.14-8.8,19.82-15.6,48-2.38,9.88-4.8,20.26-4.2,31.45.37,7,2.29,20.86,13.3,36.79H749.36V0H552.69C547.53,7.89,541.64,19.64,541.22,34.17Z"/><path class="cls-4" d="M141.63,109.6c11.66-32.71,26.88-30.14,36.72-61.86,6.53-21,2.34-30.29,3.69-47.74H0V224.61H114.17a257.25,257.25,0,0,0,16.44-47C139.43,141.56,132.85,134.27,141.63,109.6Z"/></svg>